<mxfile host="Electron" modified="2024-04-02T13:12:34.716Z" agent="Mozilla/5.0 (Windows NT 10.0; Win64; x64) AppleWebKit/537.36 (KHTML, like Gecko) draw.io/24.0.4 Chrome/120.0.6099.109 Electron/28.1.0 Safari/537.36" etag="y8NBYA17OhNF2La8dab-" version="24.0.4" type="device">
  <diagram name="Page-1" id="yL54-gszw4lgz0pBwC8L">
    <mxGraphModel dx="1434" dy="956" grid="0" gridSize="10" guides="1" tooltips="1" connect="1" arrows="1" fold="1" page="0" pageScale="1" pageWidth="850" pageHeight="1100" background="#ffffff" math="0" shadow="0">
      <root>
        <mxCell id="0" />
        <mxCell id="1" parent="0" />
        <UserObject label="" tags="Background" id="CJAz3a5iVs_dnIX_Vtv_-1">
          <mxCell style="vsdxID=1000;fillColor=#ebf1df;gradientColor=none;fillOpacity=40;shape=stencil(nZBLDoAgDERP0z3SIyjew0SURgSD+Lu9kMZoXLhwN9O+tukAlrNpJg1SzDH4QW/URgNYgZTkjA4UkwJUgGXng+6DX1zLfmoymdXo17xh5zmRJ6Q42BWCfc2oJfdAr+Yv+AP9Cb7OJ3H/2JG1HNGz/84klThPVCc=);strokeColor=#789440;points=[[1,0.5,0],[0.5,0,0],[0.5,0.5,0],[0.5,0.5,0]];labelBackgroundColor=none;rounded=0;html=1;whiteSpace=wrap;" parent="1" vertex="1">
            <mxGeometry x="91" y="161" width="720" height="300" as="geometry" />
          </mxCell>
        </UserObject>
        <UserObject label="" tags="Background" id="CJAz3a5iVs_dnIX_Vtv_-3">
          <mxCell style="vsdxID=1001;fillColor=#0078d4;gradientColor=none;fillOpacity=10;shape=stencil(nZBLDoAgDERP0z3SIyjew0SURgSD+Lu9kMZoXLhwN9O+tukAlrNpJg1SzDH4QW/URgNYgZTkjA4UkwJUgGXng+6DX1zLfmoymdXo17xh5zmRJ6Q42BWCfc2oJfdAr+Yv+AP9Cb7OJ3H/2JG1HNGz/84klThPVCc=);strokeColor=none;spacingTop=-3;spacingBottom=-3;spacingLeft=-3;spacingRight=-3;points=[];labelBackgroundColor=none;rounded=0;html=1;whiteSpace=wrap;" parent="1" vertex="1">
            <mxGeometry x="71" y="141" width="766" height="500" as="geometry" />
          </mxCell>
        </UserObject>
        <UserObject label="&lt;div style=&quot;font-size: 1px&quot;&gt;&lt;/div&gt;" tags="Background" id="CJAz3a5iVs_dnIX_Vtv_-4">
          <mxCell style="verticalAlign=middle;align=center;overflow=width;vsdxID=1002;fillColor=#f2f2f2;gradientColor=none;shape=stencil(nZBLDoAgDERP0z3SIyjew0SURgSD+Lu9kMZoXLhwN9O+tukAlrNpJg1SzDH4QW/URgNYgZTkjA4UkwJUgGXng+6DX1zLfmoymdXo17xh5zmRJ6Q42BWCfc2oJfdAr+Yv+AP9Cb7OJ3H/2JG1HNGz/84klThPVCc=);strokeColor=none;spacingTop=-3;spacingBottom=-3;spacingLeft=-3;spacingRight=-3;points=[[0,0.5,0]];labelBackgroundColor=none;rounded=0;html=1;whiteSpace=wrap;" parent="1" vertex="1">
            <mxGeometry x="114" y="181" width="180" height="260" as="geometry" />
          </mxCell>
        </UserObject>
        <UserObject label="" tags="Background" id="CJAz3a5iVs_dnIX_Vtv_-5">
          <mxCell style="vsdxID=1003;fillColor=none;gradientColor=none;points=[];labelBackgroundColor=none;rounded=0;strokeColor=none;html=1;whiteSpace=wrap;" parent="1" vertex="1">
            <mxGeometry x="19" y="91" width="102" height="98" as="geometry" />
          </mxCell>
        </UserObject>
        <mxCell id="CJAz3a5iVs_dnIX_Vtv_-6" style="vsdxID=1004;fillColor=none;gradientColor=none;strokeColor=none;spacingTop=-3;spacingBottom=-3;spacingLeft=-3;spacingRight=-3;points=[];labelBackgroundColor=none;rounded=0;html=1;whiteSpace=wrap;" parent="CJAz3a5iVs_dnIX_Vtv_-5" vertex="1">
          <mxGeometry width="102" height="98" as="geometry" />
        </mxCell>
        <mxCell id="CJAz3a5iVs_dnIX_Vtv_-7" style="vsdxID=1005;fillColor=#FFFFFF;gradientColor=none;shape=stencil(vZTdcsIgEIWfJpfZAZbfa6vvwShqpmnikFj17UsKxGBbZ3rjHZw9YeHL7la4Go725CpGhtH37+7S7MZjhW8VY013dL4Zw6rCdYWrfe/dwffnbhf3Jzs5p9VH/zmdcI3foQBGp68YuUWFEvK930S79dsQ89nOQZho97dZ4lFJHoqAojjSMFDZU9trM9S+H+3Y9F2Mx4Sktf7g6pCw3rf2UISGi3OnhUyXV9yefXwSjUEOkqX8SdECdHrllRUH39JWcdAqOTA5ADOZpEgKyvwNR/L54RmORDCmpCOAYEGHBY98HR2mgD7iAfNAh/MSDynRSAJUlGyeF43UP4tGF1w0K6AoYC+smFzzMxFGQfASiTHzlTIVweYfnsnoUDUlGCXA4LPkUt9bMEmGgNFlekEBsUw/3zonXzYz/trNbdP9p/nD4j449k3bxrmzjD8OmiDFIYXrLw==);strokeColor=#ffd965;spacingTop=-3;spacingBottom=-3;spacingLeft=-3;spacingRight=-3;points=[];labelBackgroundColor=none;rounded=0;html=1;whiteSpace=wrap;" parent="CJAz3a5iVs_dnIX_Vtv_-6" vertex="1">
          <mxGeometry x="4" width="97" height="97" as="geometry" />
        </mxCell>
        <mxCell id="CJAz3a5iVs_dnIX_Vtv_-8" style="vsdxID=1006;fillColor=#ffe452;gradientColor=none;fillOpacity=23;strokeOpacity=23;shape=stencil(vZTdcsIgEIWfJpfZAZbfa6vvwShqpmnikFj17UsKxGBbZ3rjHZw9YeHL7la4Go725CpGhtH37+7S7MZjhW8VY013dL4Zw6rCdYWrfe/dwffnbhf3Jzs5p9VH/zmdcI3foQBGp68YuUWFEvK930S79dsQ89nOQZho97dZ4lFJHoqAojjSMFDZU9trM9S+H+3Y9F2Mx4Sktf7g6pCw3rf2UISGi3OnhUyXV9yefXwSjUEOkqX8SdECdHrllRUH39JWcdAqOTA5ADOZpEgKyvwNR/L54RmORDCmpCOAYEGHBY98HR2mgD7iAfNAh/MSDynRSAJUlGyeF43UP4tGF1w0K6AoYC+smFzzMxFGQfASiTHzlTIVweYfnsnoUDUlGCXA4LPkUt9bMEmGgNFlekEBsUw/3zonXzYz/trNbdP9p/nD4j449k3bxrmzjD8OmiDFIYXrLw==);strokeColor=#ffd965;spacingTop=-3;spacingBottom=-3;spacingLeft=-3;spacingRight=-3;points=[];labelBackgroundColor=none;rounded=0;html=1;whiteSpace=wrap;" parent="CJAz3a5iVs_dnIX_Vtv_-6" vertex="1">
          <mxGeometry x="4" width="97" height="97" as="geometry" />
        </mxCell>
        <mxCell id="CJAz3a5iVs_dnIX_Vtv_-9" style="vsdxID=1007;fillColor=#ffe452;gradientColor=none;shape=stencil(vVbbbtswDP0aP4aQSF2fu+4/jNZJjHlxoLhr8veVK/lCtXExYOubTVI6R4cXqaKHy7E+NxWKyxD6X81r+zwcK/pRIbanYxPaIX5V9FjRw74PzSH0L6fn9H+ux8jx63f/Z9zhmtYZCc6Nq1DckkWAwnfDzxTftae/iq/DU3SGHE8Ixqf4kBeQAqGTKQc5BGXZphZ0XnXd1df2sgv9UA9tf8qYydfV4dDsIuBu39UH5rq8Ns15ZZZrik8vIWkgk9N7UBnulk0owZrMAHOUA5t537JJIxDlKMpnEeCmqGyyetLgDr7xQI7jewGmwNcE5Dl+JK4dxycHEjn+EnUvRVoXKSLwyFIkLajpWHnXmDT5jTkCJC6R06ALiRQ4yxWyCixyhTRIwwWKRe03aji6ZVHDhpbyyOQ9SC5QZEPfKBDFikGuUCwrWwhk5oKZFJr7dxZo3eP0eZN/OUS2mCoLUnKmgtOMZyny6JZcZ0rSgSPOMiouzBZy3FZx4MjFKA4uigpyc3PO0BbQcujYDXnrz3uMPszAedOlb7mGUkyq/Jvq2cxJnGS+yMmCj8uYIi6Ol6AUF8ct3bIagF5toccJhcUAHEdr0d0zoQk9Dump5Gd0nBtzRgdk0/fD9Jtmxio5yC+oewX+X1Lz5YW7Do4fy9W+b7suvQzW/vIpEE3pGUGPbw==);strokeColor=#ffd965;spacingTop=-3;spacingBottom=-3;spacingLeft=-3;spacingRight=-3;points=[];labelBackgroundColor=none;rounded=0;html=1;whiteSpace=wrap;" parent="CJAz3a5iVs_dnIX_Vtv_-6" vertex="1">
          <mxGeometry width="102" height="98" as="geometry" />
        </mxCell>
        <mxCell id="CJAz3a5iVs_dnIX_Vtv_-10" style="vsdxID=1008;fillColor=#d15900;gradientColor=none;shape=stencil(vVbbTuMwEP2aPHZke3x9ZuE/IkjbaENTuWGBv19nfUnGLUFILG/O+Nhn5swlbvDucmzPXSPYZfLj7+61f5qODf5qhOhPx873U1g1eN/g3X703cGPL6en+H1uZ+S8eh7/zDe8xXOag8H5lGDv0cIA3T/DQ8S3/jFs+oRHAcZEvE8HUAJLVySQFaA0udSAlgmya9/6y86PUzv14ylxxr2h9YduFwh3+6E9kK3La9edV2a+dvHxxceYeNx0DkzmTybBwbrkgSgolpx6TyYlQKqEwhQLT5D0bRS4TXLtgFfkjgMKSh6YjKPkwR+LlBwtMEv5F9RH+XFX6eGGpIcbEIKkxwnQ/Ofyw6g8xgJKKg8DU6VGmlJ4WR1uFw2TSUjATWpkoJHSW6gKQxpKXTqiMK+7Bm+3zedtxomjQ3/6Er4OTGoQlgZWjpTIQvRcVVUH/EpVZa9UTcdu1lxwNndNLjqNYHPFJ/9ASRJQOGW/teTYpjxLyeeqk2AslceCtlQdqxZQ1scA01Sf0D5GbPQkArdXTSk10Wfd6omIsZ/TRyGoqi8WflEmm666Mkw2VtWP5SBuzEy3xR6GGnLKPo9ipPzFocwehnr5rWT2kApVscPWvMTCvMoNTc2NZvx/ifnqHAiL5d++74chPg3W+/VbIJjiOwLv/wI=);strokeColor=#ffd965;spacingTop=-3;spacingBottom=-3;spacingLeft=-3;spacingRight=-3;points=[];labelBackgroundColor=none;rounded=0;html=1;whiteSpace=wrap;" parent="CJAz3a5iVs_dnIX_Vtv_-6" vertex="1">
          <mxGeometry width="102" height="98" as="geometry" />
        </mxCell>
        <mxCell id="CJAz3a5iVs_dnIX_Vtv_-11" style="vsdxID=1009;fillColor=none;gradientColor=none;strokeColor=none;spacingTop=-3;spacingBottom=-3;spacingLeft=-3;spacingRight=-3;points=[];labelBackgroundColor=none;rounded=0;html=1;whiteSpace=wrap;" parent="CJAz3a5iVs_dnIX_Vtv_-5" vertex="1">
          <mxGeometry x="33" y="20" width="36" height="57" as="geometry" />
        </mxCell>
        <mxCell id="CJAz3a5iVs_dnIX_Vtv_-12" style="vsdxID=1010;fillColor=#ffd70f;gradientColor=none;shape=stencil(vVfbcpswEP0aHr2j++U5Tf+DSbDNlBqPTBrn7ysiLlkkFLfD8AbSao/27NmVVPCn27m8VgUjt861v6r3+rU7F/xHwVh9OVeu7vxXwZ8L/nRsXXVy7dvlNfxfy96y//rd/uk93MM6K0D1ixj5CAPcgvwc+BnMS/fiJ91gTg0IHuzdsIBSkDQMrflkHPrfT5NDea9vB9d2ZVe3lzBPwlxTulN18ICHY1Oe0NTtvaqu0fCwxaa+5CKa0ZP2ioHlmALgIksB1xEFwiAKuAZC0053oCCDnrSX097WKIsokDaiQGEVRE4nZe3BAAPCELpUQPV6SBIMxRFxUBznlIPEQpFzNWwUEs2EFMEbA9ash6RGuseIBBCFI5LANHJpKWi1aUSZJAkNzGJ4O24oGZGYZD2GxCZJDRnxxSxXXO4QUQ4+3XzEVElzBqzccIH2vQnn2GjIcMyAqUVpg8CVnXApQe1Gcg4+zZmvBHwkGDacESsUyIgCXDgJj2Tr/p5pBTn4BynTOtvh2RTNFxVgDhI+JdDdzrgc/IOkeRfa5jgQy0MOJG43sU/lD7ltK+GfdDDDr5FmcH/yLnhWB2x51wHBioUOlj7F1Nd30cEqfJo0CQQvkBZsTjjxAn8FzCB8e6fGV3BJgBhczUAz7YmS6cI9JmXWwX2BOLqk4r87NH1Al9EOmVnucCEbYUGvRL1D5WTQ0wf7tznyH/Mb61g3TXiifZ1fvsn8UHjP8ee/);strokeColor=none;strokeWidth=3;spacingTop=-3;spacingBottom=-3;spacingLeft=-3;spacingRight=-3;points=[];labelBackgroundColor=none;rounded=0;html=1;whiteSpace=wrap;" parent="CJAz3a5iVs_dnIX_Vtv_-11" vertex="1">
          <mxGeometry width="36" height="57" as="geometry" />
        </mxCell>
        <mxCell id="CJAz3a5iVs_dnIX_Vtv_-13" style="vsdxID=1011;fillColor=#ff9300;gradientColor=none;fillOpacity=75;strokeOpacity=75;shape=stencil(vVTBboMwDP2aHLGCQxJy7rr/iNYA0RipAlu7v19YULsAotqh3ILtZz8/GxN26Bt9NgRpP3j3bi72NDSEvRBE2zXG2yG8CDsSdqicN7V3n90pfp/1GDm+PtzXmOEaccgB2YhC+h0tSgErfi2vEdDa7n8A7d+C108AzqCYAH5CcMh5tEwxqoS8TJNKkGqKyfTV9pl3gx6s66KfRl+rfW2yUDCrWl0nrv5izHlhXqVYKJAipVhA+YhhEAKfxzBVfVk+VJcbopcgcS66EElLkgPlSU4KZb5XRxvV1zvKYTEilc4IgaokI95Ee/4OCYSCpwQFUNwmeBviDoIvit8XeF1wAUrOVyj9bbduwR4dPT5F4XG/fJVt23g4//rnlzKY4pVlxx8=);strokeColor=none;strokeWidth=3;spacingTop=-3;spacingBottom=-3;spacingLeft=-3;spacingRight=-3;points=[];labelBackgroundColor=none;rounded=0;html=1;whiteSpace=wrap;" parent="CJAz3a5iVs_dnIX_Vtv_-11" vertex="1">
          <mxGeometry x="14" y="35" width="1" height="15" as="geometry" />
        </mxCell>
        <mxCell id="CJAz3a5iVs_dnIX_Vtv_-14" style="vsdxID=1012;fillColor=#ff9300;gradientColor=none;fillOpacity=75;strokeOpacity=75;shape=stencil(vVPLDoMgEPwajhoUbeLZ2v8gFZWUgllptX9fLKQ+aNPEJt6W3VlmZ2EQybuGtgzFuNOgLqznpW4QOaI45rJhwLWJECkQySsFrAZ1k6U9t3REjtFV3ccbBtuHx44YP+wpJSHOXpmTBVM4myo4cBqmkcWDa0gOYeZSHsZBIuw4hoAOvAtAaaq5kgt+QaFmgWELKkHrRanrGWu9tJtPcDkTkyVhkn0k3yznPb23oR30rMmn8Tbr8Ve02+t4P+PPp/m2mx2k/HCNCSa/VVwIa9d5fe1Pk7LeJsUT);strokeColor=none;strokeWidth=3;spacingTop=-3;spacingBottom=-3;spacingLeft=-3;spacingRight=-3;points=[];labelBackgroundColor=none;rounded=0;html=1;whiteSpace=wrap;" parent="CJAz3a5iVs_dnIX_Vtv_-11" vertex="1">
          <mxGeometry x="8" y="17" width="18" height="2" as="geometry" />
        </mxCell>
        <mxCell id="CJAz3a5iVs_dnIX_Vtv_-15" style="vsdxID=1013;fillColor=#ff9300;gradientColor=none;fillOpacity=75;strokeOpacity=75;shape=stencil(vVPLDoMgEPwajhoUbeLZ2v8gFZWUgllptX9fLKQ+aNPEJt6W3VlmZ2EQybuGtgzFuNOgLqznpW4QOaI45rJhwLWJECkQySsFrAZ1k6U9t3REjtFV3ccbBtuHx44YP+wpJSHOXpmTBVM4myo4cBqmkcWDa0gOYeZSHsZBIuw4hoAOvAtAaaq5kgt+QaFmgWELKkHrRanrGWu9tJtPcDkTkyVhkn0k3yznPb23oR30rMmn8Tbr8Ve02+t4P+PPp/m2mx2k/HCNCSa/VVwIa9d5fe1Pk7LeJsUT);strokeColor=none;strokeWidth=3;spacingTop=-3;spacingBottom=-3;spacingLeft=-3;spacingRight=-3;points=[];labelBackgroundColor=none;rounded=0;html=1;whiteSpace=wrap;" parent="CJAz3a5iVs_dnIX_Vtv_-11" vertex="1">
          <mxGeometry x="8" y="20" width="18" height="2" as="geometry" />
        </mxCell>
        <UserObject label="&lt;div style=&quot;font-size: 1px&quot;&gt;&lt;p style=&quot;text-align:left;margin-left:0;margin-right:0;margin-top:0px;margin-bottom:0px;text-indent:0;vertical-align:middle;direction:ltr;&quot;&gt;&lt;font style=&quot;font-size:33.87px;font-family:Segoe UI Semibold;color:#000000;direction:ltr;letter-spacing:0px;line-height:120%;opacity:1&quot;&gt;&lt;b&gt;Landing &lt;/b&gt;&lt;/font&gt;&lt;font style=&quot;font-size:33.87px;font-family:Segoe UI Semibold;color:#000000;direction:ltr;letter-spacing:0px;line-height:120%;opacity:1&quot;&gt;&lt;b&gt;Z&lt;/b&gt;&lt;/font&gt;&lt;font style=&quot;font-size:33.87px;font-family:Segoe UI Semibold;color:#000000;direction:ltr;letter-spacing:0px;line-height:120%;opacity:1&quot;&gt;&lt;b&gt;one &lt;/b&gt;&lt;/font&gt;&lt;font style=&quot;font-size:33.87px;font-family:Segoe UI Semibold;color:#000000;direction:ltr;letter-spacing:0px;line-height:120%;opacity:1&quot;&gt;&lt;b&gt;S&lt;/b&gt;&lt;/font&gt;&lt;font style=&quot;font-size:33.87px;font-family:Segoe UI Semibold;color:#000000;direction:ltr;letter-spacing:0px;line-height:120%;opacity:1&quot;&gt;&lt;b&gt;ubscriptions&lt;br/&gt;&lt;/b&gt;&lt;/font&gt;&lt;/p&gt;&lt;/div&gt;" tags="Background" id="CJAz3a5iVs_dnIX_Vtv_-16">
          <mxCell style="verticalAlign=middle;align=left;overflow=width;vsdxID=1014;fillColor=none;gradientColor=none;shape=stencil(nZBLDoAgDERP0z3SIyjew0SURgSD+Lu9kMZoXLhwN9O+tukAlrNpJg1SzDH4QW/URgNYgZTkjA4UkwJUgGXng+6DX1zLfmoymdXo17xh5zmRJ6Q42BWCfc2oJfdAr+Yv+AP9Cb7OJ3H/2JG1HNGz/84klThPVCc=);strokeColor=none;points=[];labelBackgroundColor=none;rounded=0;html=1;whiteSpace=wrap;" parent="1" vertex="1">
            <mxGeometry x="130" y="81" width="480" height="60" as="geometry" />
          </mxCell>
        </UserObject>
        <UserObject label="" tags="Background" id="CJAz3a5iVs_dnIX_Vtv_-17">
          <mxCell style="vsdxID=1015;fillColor=none;gradientColor=none;strokeColor=none;spacingTop=-3;spacingBottom=-3;spacingLeft=-3;spacingRight=-3;points=[];labelBackgroundColor=none;rounded=0;html=1;whiteSpace=wrap;" parent="1" vertex="1">
            <mxGeometry x="151" y="190" width="109" height="230" as="geometry" />
          </mxCell>
        </UserObject>
        <mxCell id="CJAz3a5iVs_dnIX_Vtv_-18" style="vsdxID=1016;fillColor=none;gradientColor=none;shape=stencil(vVLREoIgEPwaHmUQLPXZ7D+YQmUicU4q+/twTifIpsfebu92b9nhiKjGTg6KcDY6sBf10GfXEXEgnOu+U6Cdr4ioiagaC6oFe+vPiAc5M+fqau/zhgl1KWOzhrMnYkRHpBrdB1TOaJ5F5JRTUYYCCSc/hUVQcsqRD6tAUFFgawr91oXeIl0kUyInPSZgnXTa9hHbSGhV4s2Sxsg2Go0PpYZN+2ue2DovaJn9yLKj+SZLUUZZgtcvnGJP8/2/8nx+5YoXsi/eR9BoY/CGwvnn0fgWHpyoXw==);strokeColor=#3c3c41;spacingTop=-3;spacingBottom=-3;spacingLeft=-3;spacingRight=-3;points=[];labelBackgroundColor=none;rounded=0;html=1;whiteSpace=wrap;" parent="CJAz3a5iVs_dnIX_Vtv_-17" vertex="1">
          <mxGeometry x="20" y="52" width="17" height="118" as="geometry" />
        </mxCell>
        <mxCell id="CJAz3a5iVs_dnIX_Vtv_-19" style="vsdxID=1017;fillColor=none;gradientColor=none;shape=stencil(vVLLDsIgEPwajiU81MJZ638QpS0RS7NFq38vDW2EGj1628fM7s5mEN8Preo1YmTw4C56NGffIn5AjJmu1WB8iBCvEN/XDnQD7tadY96rCTlFV3efJjwij0wMRp5pdoxAa7oEWEpMaQamDHOZEhScQhdmgiRYbCMBFgbHVMTSDKIkP4ARTNmMKNTDDAU4r7xxXXauVdDoIuwraquarDWMWvdJmX6XtF5eCiw3PwRtcfmhR8hMT/iSENlQscPl7l+Kcj2LvhkagrcLamNtNFHaX7smlKLjePUC);strokeColor=#3c3c41;spacingTop=-3;spacingBottom=-3;spacingLeft=-3;spacingRight=-3;points=[];labelBackgroundColor=none;rounded=0;html=1;whiteSpace=wrap;" parent="CJAz3a5iVs_dnIX_Vtv_-17" vertex="1">
          <mxGeometry x="68" y="52" width="17" height="118" as="geometry" />
        </mxCell>
        <mxCell id="CJAz3a5iVs_dnIX_Vtv_-20" style="vsdxID=1018;fillColor=none;gradientColor=none;strokeColor=none;spacingTop=-3;spacingBottom=-3;spacingLeft=-3;spacingRight=-3;points=[];labelBackgroundColor=none;rounded=0;html=1;whiteSpace=wrap;" parent="CJAz3a5iVs_dnIX_Vtv_-17" vertex="1">
          <mxGeometry x="28" y="162" width="51" height="68" as="geometry" />
        </mxCell>
        <mxCell id="CJAz3a5iVs_dnIX_Vtv_-21" style="vsdxID=1019;fillColor=#005ba1;gradientColor=none;shape=stencil(hZPRkoIwDEW/pq+ZNEFon133PxxF6SwLTsVV/15qYSFVdt+ScC+cXlLF63O1PZWK8Nz59qu8un1XKf5QRK6pSu+6vlK8Ubw+tL48+vbS7GN/2gZlqL7bn/CGW/StEDQHF+E9TvQKjH1OPqNhd/HRoaOACAozWHTqwRvFEQ6KoTVg9CBgKRhbQPHV2jUzTBSIJgOkvxBR4lkCSxKPNNhcImpESZhZ0LmkHDVvId9kKeUpZlFAlib5C5FSjZjhMIUEnTS8EJAEnfTzuBYgrYU8k5AGkp89Pwi9rgS/5sMLy/ZvoqmhL6bdPri6jldj/jy9C/0o3iPePAA=);strokeColor=none;spacingTop=-3;spacingBottom=-3;spacingLeft=-3;spacingRight=-3;points=[];labelBackgroundColor=none;rounded=0;html=1;whiteSpace=wrap;" parent="CJAz3a5iVs_dnIX_Vtv_-20" vertex="1">
          <mxGeometry y="9" width="51" height="59" as="geometry" />
        </mxCell>
        <mxCell id="CJAz3a5iVs_dnIX_Vtv_-22" style="vsdxID=1020;fillColor=#e8e8e8;gradientColor=none;shape=stencil(hZLBDoIwEES/ptem7KKFM+p/EAEhIpACCn9vaytlMeptGWb6ZpNlmPRl2uUMRD+o9po/qmwoGR4YQNWUuaoGPTE8MkyKVuUX1Y5NZr+71DjNdGvv5oXJ5uKY70OTAjFbJYy5hJdysoHzqGwi+Iw4SUou0UoTLBI6aXZSIITzoEdJ50Hq+cIG4ACU7V91GEGpukggKVdQ5t+NBSWaEpIytSQjyt3suhM8QMr9uamuHUaUu9lzWXz2Jd6ICbceXwOiNVcP/jaKqq7taa3/b29JS/YO8fgE);strokeColor=none;spacingTop=-3;spacingBottom=-3;spacingLeft=-3;spacingRight=-3;points=[];labelBackgroundColor=none;rounded=0;html=1;whiteSpace=wrap;" parent="CJAz3a5iVs_dnIX_Vtv_-20" vertex="1">
          <mxGeometry width="51" height="18" as="geometry" />
        </mxCell>
        <mxCell id="CJAz3a5iVs_dnIX_Vtv_-23" style="vsdxID=1021;fillColor=#50e6ff;gradientColor=none;shape=stencil(hZLdDoIwDIWfZrdL16Jj1/68h1EUIooZ4M/bu9lFLAa9K4dz9vUkVbRoy82lUAht55tjcat2XaloqRCrc1n4qguTopWixb7xxcE3/XnH35dNdMbp1FzjC3fOOaczG1MID1ZmoI15KWsObHvPCfMdSZK1es4ZuONbwjy5kmQAkodYyJy2WfKQ9EywEbVxkj28mjAgqWGRnCQXJPNvY5DEsAQ5yYwSSu6oa4CgxP4sanMNucSOar57P4YdjJXQwTNVNQzDaeyruubL+vw/PqUg8RnS6gk=);strokeColor=none;spacingTop=-3;spacingBottom=-3;spacingLeft=-3;spacingRight=-3;points=[];labelBackgroundColor=none;rounded=0;html=1;whiteSpace=wrap;" parent="CJAz3a5iVs_dnIX_Vtv_-20" vertex="1">
          <mxGeometry x="6" y="2" width="39" height="11" as="geometry" />
        </mxCell>
        <mxCell id="CJAz3a5iVs_dnIX_Vtv_-24" style="vsdxID=1022;fillColor=#198ab3;gradientColor=none;shape=stencil(xVLLDoIwEPyaHmm2LRU8K/5HIwUaKyVLFfx7i9UoPhIvxtvuzOzuJDtErPpGdZpw6D26nR5M6Rsi1oRz0zYajQ8VEQURq8qhrtEd2jL2nZqUU7V3x2nDGOfSJc2zaYrDKSJw6TZRrHAbGLyKmeQUFlGNVzmDVFIQERwfV9wWhhPsxidqNH2CzitvXDtTW4W1TsLBpLKqnlH9oHX3Ar+3mHEq8yeLLF9QyGYWGfzTpBSvJkFKKmceP/3mJw6tab+PRSjugaqMtTGPj/xzAAMUwyuKMw==);strokeColor=none;spacingTop=-3;spacingBottom=-3;spacingLeft=-3;spacingRight=-3;points=[];labelBackgroundColor=none;rounded=0;html=1;whiteSpace=wrap;" parent="CJAz3a5iVs_dnIX_Vtv_-20" vertex="1">
          <mxGeometry x="10" y="10" width="31" height="4" as="geometry" />
        </mxCell>
        <mxCell id="CJAz3a5iVs_dnIX_Vtv_-25" style="vsdxID=1023;fillColor=none;gradientColor=none;strokeColor=none;spacingTop=-3;spacingBottom=-3;spacingLeft=-3;spacingRight=-3;points=[];labelBackgroundColor=none;rounded=0;html=1;whiteSpace=wrap;" parent="CJAz3a5iVs_dnIX_Vtv_-17" vertex="1">
          <mxGeometry x="20" width="68" height="68" as="geometry" />
        </mxCell>
        <mxCell id="CJAz3a5iVs_dnIX_Vtv_-26" style="vsdxID=1024;fillColor=#5e9624;gradientColor=none;shape=stencil(xVTBcoMgEP0ajjLImlrPafofTILKlIqzksb8faA4VYJmpj2kN3jv7S5vXZfAfmhFLwlng0XzIS/qZFsCb4Rz1bUSlXUnAgcC+9qgbNCcu1O498Ir/enTfPkMY4hjtHr1QZxdA1CU9OUbeA9yrbqF3LMQ6fOlWODRMTiJgUJgGV5/kABMih2nUK6kY2MmRjVkaKywynTTWwOnBTYyc6WyWosmooaLlP0CzredbJVeFVcVZfxhmxLnu8R5EVlPU/oXwbPsPyq/1S9eRQE+RfHLr59HPUinac75hB4ksz/PxF8drf5O5b8Zup9Sd5gXQa20Dntkyd8vDgeFpQOHGw==);strokeColor=none;spacingTop=-3;spacingBottom=-3;spacingLeft=-3;spacingRight=-3;points=[];labelBackgroundColor=none;rounded=0;html=1;whiteSpace=wrap;" parent="CJAz3a5iVs_dnIX_Vtv_-25" vertex="1">
          <mxGeometry width="68" height="68" as="geometry" />
        </mxCell>
        <mxCell id="CJAz3a5iVs_dnIX_Vtv_-27" style="vsdxID=1025;fillColor=#b4ec36;gradientColor=none;shape=stencil(vZXbcoMgEIafxkt3OCPXafoeTEMSplYzaJvk7YvFmgAx00lb73AP7H7Ljn9BV91eH0xBUNe79tUc7abfF/SpIMQ2e+Ns708FXRd0tW2d2bn2vdmE74MeIofTW/sx3HAKeUoBkkMWQedgYQKE+rI8h4TaNlcJHINgUQICcR2u3Yv3uTGcgKIh2p0nCw6WMYRVgKqbN6JTqU+2K13b6962zegNvlq7nSl9tXJb613k6o7GHDLzTRxfit/HT3mwTHkwj3jyKxXIfwRKG0QkaTDqzo8/Hjb3/VZLjZsikGSm/AwOq9J5MxERUQrJlRQw+1MifIcora4kcPY7ID69yBiCEVrqhQQHcrv4ozhCTuufjWgJoKz8ZT8eRlIgsjWmcqmd8/Ojcqb8DBLFKRJREdK0Yt8/rQqqf3yjrL9MJWisEveEaoEt+oFO+sNFZbe2roNIX/tTVfamoOh0/Qk=);strokeColor=none;spacingTop=-3;spacingBottom=-3;spacingLeft=-3;spacingRight=-3;points=[];labelBackgroundColor=none;rounded=0;html=1;whiteSpace=wrap;" parent="CJAz3a5iVs_dnIX_Vtv_-25" vertex="1">
          <mxGeometry x="25" y="7" width="17" height="17" as="geometry" />
        </mxCell>
        <mxCell id="CJAz3a5iVs_dnIX_Vtv_-28" style="vsdxID=1026;fillColor=#b4ec36;gradientColor=none;shape=stencil(xVbLcsMgDPwaH63hjX1O0/9gGpwwde0Mdpvk74uL8wBieknTG14tEisk5IKuhp3a64KgYbT9uz6Yzbgr6EtBiOl22prRrQq6Luiq6a3e2v6z2/jvvZqY0+qj/5o8HP0+JqAm0y6CTh7BQMQP8Or5relu+Ai4COisgirgK/vmrHbmExDM8+0pRpZccgIYz5RSHc1Q2n5Uo+m7eYO3tcpudenClU2rtoFpOGi9T+C7gtIE1DUQnlPEqljRGZkpHF2QxOefSIpPWNH4hGdk+YQSaP2spKfhJQKaT7pIki5CSQRqHvgUEir5UEl4WZLLn8AL4Rck4UQSDiW5qpEy9MlBPq010vBUAGI5SZTEks7IxWfo8HppT9BTAaEL4e+XKQPB8xuSBCSdR6POc7cclj5FULOH5iBTpnfCg8xe6a/vt2tmEabV9fJjBWUfO5HUnAhrLjPj/mXAxBPWLa7juTFt66f7rT0e5w7yvwJ0/Q0=);strokeColor=none;spacingTop=-3;spacingBottom=-3;spacingLeft=-3;spacingRight=-3;points=[];labelBackgroundColor=none;rounded=0;html=1;whiteSpace=wrap;" parent="CJAz3a5iVs_dnIX_Vtv_-25" vertex="1">
          <mxGeometry x="7" y="24" width="17" height="17" as="geometry" />
        </mxCell>
        <mxCell id="CJAz3a5iVs_dnIX_Vtv_-29" style="vsdxID=1027;fillColor=#b4ec36;gradientColor=none;shape=stencil(xZXbcoMgEEC/xkcZZAXhOU3/g2lQmVrJoGmSvy8OmgQvzTQT0zfY+2F22Qg2TSn3KiK4aa35VEe9a8sI3iJCdF0qq1t3imAbwSY3VhXWHOqdv+9lZ9mdvsx3F+Hk/ShBiei8CD57iRCIecm7d6h0fePg1ACBA01QYC/th1Pa3p6glHpze75I+oyLIVOO0qy3ieVJN7E1rWy1qb0ee10lbaFily/OK1kEquao1H4iniWaPgFGjP+NiAZArnxO5iOuwjOujyfj+ji7UyBBhL7qwafZASOgvxERMSaCNCRilxceYhL03BZKlolcOfO5H8XBYbgU8RXbJ2QJU7N06J0FFLhD4j6HcLhYhoC9Csa1BWQL6Z823Exc52v1VpumF9kw8A8SuQ+chrOTYPx/v+9kAbnDdX3luqr89rvVj9edE/lVCdsf);strokeColor=none;spacingTop=-3;spacingBottom=-3;spacingLeft=-3;spacingRight=-3;points=[];labelBackgroundColor=none;rounded=0;html=1;whiteSpace=wrap;" parent="CJAz3a5iVs_dnIX_Vtv_-25" vertex="1">
          <mxGeometry x="44" y="25" width="17" height="16" as="geometry" />
        </mxCell>
        <mxCell id="CJAz3a5iVs_dnIX_Vtv_-30" style="vsdxID=1028;fillColor=#FFFFFF;gradientColor=none;shape=stencil(vVPLUsMwDPwaH+Pxs0nOpfyHhzqJBxNnHEPD32MjQ+OUlukBbtJqZe16JMT386AmjRiZg3fP+mSOYUD8ATFmxkF7E2KE+AHxfee87r17HY+QTyoxU/Ti3tILC/RRQlIPI++QM4El/UQega78U6z6TN8xLBg0+NzBCW5agDKJEUyLR6XAPCNLpRYzV94FFYwboZ4lWOV7XcWBVWdVn/VBaT5pPa1gspZozahvTN+JL4E/WuINlrK0RFtM6sJSzb6RzKn5mfMHnjYaWyzohUZZSJQSS3bF+N0Syd3ffjleclzXt1dp4ymtUlOYur6e/2Dp19uIwfmuOmMtnOW6vr3DCMEN88MH);strokeColor=none;spacingTop=-3;spacingBottom=-3;spacingLeft=-3;spacingRight=-3;points=[];labelBackgroundColor=none;rounded=0;html=1;whiteSpace=wrap;" parent="CJAz3a5iVs_dnIX_Vtv_-25" vertex="1">
          <mxGeometry x="27" y="25" width="16" height="34" as="geometry" />
        </mxCell>
        <mxCell id="CJAz3a5iVs_dnIX_Vtv_-31" style="vsdxID=1029;fillColor=#5ea0ef;gradientColor=none;shape=stencil(vVHLDsIgEPwajiQI6RfU+h8bu22JCGRB2/69kG1iazx58DazM/vIjjBtmiCi0CplCjecbZ8nYc5Ca+snJJsLEqYTph0C4Ujh4XvmEaqzont41gkL96naodXKrGF6YSfQtUi0OXXDVlqPfJNP6usotUhYbJIUMmQb/GGrAxpRljVycDBuc1hKM2LclX8/7H9nFfB+82Cd45T2+mcspcSRmu4F);strokeColor=none;spacingTop=-3;spacingBottom=-3;spacingLeft=-3;spacingRight=-3;points=[];labelBackgroundColor=none;rounded=0;html=1;whiteSpace=wrap;" parent="CJAz3a5iVs_dnIX_Vtv_-25" vertex="1">
          <mxGeometry x="28" y="28" width="12" height="12" as="geometry" />
        </mxCell>
        <mxCell id="CJAz3a5iVs_dnIX_Vtv_-32" style="vsdxID=1030;fillColor=none;gradientColor=none;strokeColor=none;spacingTop=-3;spacingBottom=-3;spacingLeft=-3;spacingRight=-3;points=[];labelBackgroundColor=none;rounded=0;html=1;whiteSpace=wrap;" parent="CJAz3a5iVs_dnIX_Vtv_-17" vertex="1">
          <mxGeometry y="83" width="109" height="58" as="geometry" />
        </mxCell>
        <mxCell id="CJAz3a5iVs_dnIX_Vtv_-33" style="vsdxID=1031;fillColor=none;gradientColor=none;strokeColor=none;spacingTop=-3;spacingBottom=-3;spacingLeft=-3;spacingRight=-3;points=[];labelBackgroundColor=none;rounded=0;html=1;whiteSpace=wrap;" parent="CJAz3a5iVs_dnIX_Vtv_-32" vertex="1">
          <mxGeometry width="37" height="58" as="geometry" />
        </mxCell>
        <mxCell id="CJAz3a5iVs_dnIX_Vtv_-34" style="vsdxID=1032;fillColor=#b3b2b3;gradientColor=none;shape=stencil(vVNBEoIwDHxNj3QoBZSz4j86WqBjpUyogr+3GEYBFWY8cEuym6abdgnf1YWoJAn82oI5y0adbEH4ngSBKgsJyrqI8JTwXWZA5mCu5QnzSnTMLrqYW3dCi33M97uewL9jnsQ0Dp+VA9IFHB0KPT2iEUc+9A2cRglWekoSUpaMznzNaD3RqtoDY4VVpkS0x7SAXHpumpdpkY+gupGyGpTZ8H5alQM5Ed2yr7P/VfNrOytoGY/mNGRzSuLNVEm8HSn5WM1qj/L5I2bfZFHJ9M++VrOClkW/uODttUxpjVYd4lNvuhL6mqcP);strokeColor=none;spacingTop=-3;spacingBottom=-3;spacingLeft=-3;spacingRight=-3;points=[];labelBackgroundColor=none;rounded=0;html=1;whiteSpace=wrap;" parent="CJAz3a5iVs_dnIX_Vtv_-33" vertex="1">
          <mxGeometry width="37" height="58" as="geometry" />
        </mxCell>
        <mxCell id="CJAz3a5iVs_dnIX_Vtv_-35" style="vsdxID=1033;fillColor=#003067;gradientColor=none;shape=stencil(vZPJboMwEIafxkdGXjCBc5q8h9UYsOpiNDgJffuaOgtuQD1U4jb772+sIWI/tKrXhNPBo/vQV3PyLRFvhHPTtRqNDxYRByL2tUPdoDt3p+j3aqqcrE93mSaMsY9OHZx+RS+vgOU/kWMsVvgesngrZgUwFhvw3lFAWcTQvSiHSiRTbxpjpkYzZOi88sZ1Sc4qbHQW1LLaqiZJDVet+1mYzd9nTTeDKSXQ3YL0P2Do2oI2wFkXXwOir0BylwCFFckimfpQ2QBIAheL4stAEsoXoISGAq+SeZJBLrbC+eN3gvG8utpYG492nv99pSEUL1wcvgE=);strokeColor=none;spacingTop=-3;spacingBottom=-3;spacingLeft=-3;spacingRight=-3;points=[];labelBackgroundColor=none;rounded=0;html=1;whiteSpace=wrap;" parent="CJAz3a5iVs_dnIX_Vtv_-33" vertex="1">
          <mxGeometry x="5" y="20" width="26" height="9" as="geometry" />
        </mxCell>
        <mxCell id="CJAz3a5iVs_dnIX_Vtv_-36" style="vsdxID=1034;fillColor=#003067;gradientColor=none;shape=stencil(xVPLDoIwEPyaHmn6EIUz6n80WqCxUrJUxb+3WFBQiAkHvO1jptPZzSKeVLkoJWKksmBO8qaONkd8ixhTRS5BWRchvkM8SQ3IDMylOPq8FA2yic7m2rxQex5pGIzcfbaKcRQ+K3sPFnBwXWjBdI0J9QToGBscMl/qQCsc88GrrUYdiFpVARgrrDLFoKcFZDJwakGqRTZoVTcpy16Z9v+nVdEzE4WYbEakp8zQbzMRHZohUwNawM60+HxD3yN6qSxgKMSMj4rPN0Qwi/+3oh8LcsH78FKltb/bfv/zUF3JHznfPQA=);strokeColor=none;spacingTop=-3;spacingBottom=-3;spacingLeft=-3;spacingRight=-3;points=[];labelBackgroundColor=none;rounded=0;html=1;whiteSpace=wrap;" parent="CJAz3a5iVs_dnIX_Vtv_-33" vertex="1">
          <mxGeometry x="5" y="6" width="26" height="9" as="geometry" />
        </mxCell>
        <mxCell id="CJAz3a5iVs_dnIX_Vtv_-37" style="vsdxID=1035;fillColor=#50e6ff;gradientColor=none;shape=stencil(vVHLDsIgEPwajiQI6RfU+h8bu22JCGRB2/69kG1iazx58DazM/vIjjBtmiCi0CplCjecbZ8nYc5Ca+snJJsLEqYTph0C4Ujh4XvmEaqzont41gkL96naodXKrGF6YSfQtUi0OXXDVlqPfJNP6usotUhYbJIUMmQb/GGrAxpRljVycDBuc1hKM2LclX8/7H9nFfB+82Cd45T2+mcspcSRmu4F);strokeColor=none;spacingTop=-3;spacingBottom=-3;spacingLeft=-3;spacingRight=-3;points=[];labelBackgroundColor=none;rounded=0;html=1;whiteSpace=wrap;" parent="CJAz3a5iVs_dnIX_Vtv_-33" vertex="1">
          <mxGeometry x="7" y="8" width="6" height="6" as="geometry" />
        </mxCell>
        <mxCell id="CJAz3a5iVs_dnIX_Vtv_-38" style="vsdxID=1036;fillColor=#50e6ff;gradientColor=none;shape=stencil(vVHLDsIgEPwajiQI6RfU+h8bu22JCGRB2/69kG1iazx58DazM/vIjjBtmiCi0CplCjecbZ8nYc5Ca+snJJsLEqYTph0C4Ujh4XvmEaqzont41gkL96naodXKrGF6YSfQtUi0OXXDVlqPfJNP6usotUhYbJIUMmQb/GGrAxpRljVycDBuc1hKM2LclX8/7H9nFfB+82Cd45T2+mcspcSRmu4F);strokeColor=none;spacingTop=-3;spacingBottom=-3;spacingLeft=-3;spacingRight=-3;points=[];labelBackgroundColor=none;rounded=0;html=1;whiteSpace=wrap;" parent="CJAz3a5iVs_dnIX_Vtv_-33" vertex="1">
          <mxGeometry x="7" y="21" width="6" height="6" as="geometry" />
        </mxCell>
        <mxCell id="CJAz3a5iVs_dnIX_Vtv_-39" style="vsdxID=1037;fillColor=none;gradientColor=none;strokeColor=none;spacingTop=-3;spacingBottom=-3;spacingLeft=-3;spacingRight=-3;points=[];labelBackgroundColor=none;rounded=0;html=1;whiteSpace=wrap;" parent="CJAz3a5iVs_dnIX_Vtv_-32" vertex="1">
          <mxGeometry x="71" width="37" height="58" as="geometry" />
        </mxCell>
        <mxCell id="CJAz3a5iVs_dnIX_Vtv_-40" style="vsdxID=1038;fillColor=#b3b2b3;gradientColor=none;shape=stencil(vVPBkoMgDP0ajjIKYuXcbf+DaVGZZcWJdOv+fbGhu9ra7UwP3pK8lzxemBC+7RvVacLS3oP71Gdz9A3hH4Qx0zYajA8R4TvCt5UDXYM7tUfMOzUyx+jLfY8TBuzL0nTsYekP5rKgRX6t7JGu4BBQiHRBRYZ8iA2cComVSJE5ZeVs5q/GkKjB9Ak4r7xxLaIRswpqnQS1pLKqnkH9WetuUs6m77OmndgRdCMXtZ+5Ke/dRPe3gc+2s4KXuTSnefafk0I8OClnTh5Ws9qnyHxB990PkZJu2PJmVrDy8lxC8HdqlbEWL3WK359mKOFZ890F);strokeColor=none;spacingTop=-3;spacingBottom=-3;spacingLeft=-3;spacingRight=-3;points=[];labelBackgroundColor=none;rounded=0;html=1;whiteSpace=wrap;" parent="CJAz3a5iVs_dnIX_Vtv_-39" vertex="1">
          <mxGeometry width="37" height="58" as="geometry" />
        </mxCell>
        <mxCell id="CJAz3a5iVs_dnIX_Vtv_-41" style="vsdxID=1039;fillColor=#003067;gradientColor=none;shape=stencil(vZPbEoIgEIafhksZEDW97vAeTKIykTgrlb19GFqSOV00490e+fkWFrFtW/FGoJC0BvRJ3GRuKsR2KAxlXQmQxlqI7RHbFhpECfpS585veF/ZW2d97U/oXB/pO0Jyd16UYRo9IwdXzOFoszAU0wST1DXA2JHgNHGhsSjCmXfoINEFvJNtANpwI3Xt5RSHUgRWLCgUL71UexOimYTp9HpK1hOWNMb0i/IfKGRpPCvQLIt/B4pxNgeKNx7QbEIvkRV4Pv/FqL2Es5nheCz+dGKKI7YWyo+HscZ73QqplNvWaf5zPW3IrTbbPwA=);strokeColor=none;spacingTop=-3;spacingBottom=-3;spacingLeft=-3;spacingRight=-3;points=[];labelBackgroundColor=none;rounded=0;html=1;whiteSpace=wrap;" parent="CJAz3a5iVs_dnIX_Vtv_-39" vertex="1">
          <mxGeometry x="5" y="20" width="26" height="9" as="geometry" />
        </mxCell>
        <mxCell id="CJAz3a5iVs_dnIX_Vtv_-42" style="vsdxID=1040;fillColor=#003067;gradientColor=none;shape=stencil(vZPdDoIgFMefhksZgpRcl70HK1QWiTtS2duH0YeWrq027873n99hB7FVU8paIUoaB3avznrnSsTWiFJdlQq08xZiGWKr3IIqwB6rXfBr2VV21sGeuglt6CNdByWX4CUCp/wW2YRiCVufhXtxzLFIQwM8OpaY0xB6FCVYDIbeJdpItrqJwDrptK0GOSOhUJEXi3Iji0GqOStV98Jx/3lGVz2WlON4RPkPFDK1nhlopsXHgRaYfAKl8QDoY0NPkRl4OGZiVPx3HoITMbGkGYi+/I83XleXa2PC0fbz71fqQ+HCWXYF);strokeColor=none;spacingTop=-3;spacingBottom=-3;spacingLeft=-3;spacingRight=-3;points=[];labelBackgroundColor=none;rounded=0;html=1;whiteSpace=wrap;" parent="CJAz3a5iVs_dnIX_Vtv_-39" vertex="1">
          <mxGeometry x="5" y="6" width="26" height="9" as="geometry" />
        </mxCell>
        <mxCell id="CJAz3a5iVs_dnIX_Vtv_-43" style="vsdxID=1041;fillColor=#50e6ff;gradientColor=none;shape=stencil(vVHLDsIgEPwajiQI6RfU+h8bu22JCGRB2/69kG1iazx58DazM/vIjjBtmiCi0CplCjecbZ8nYc5Ca+snJJsLEqYTph0C4Ujh4XvmEaqzont41gkL96naodXKrGF6YSfQtUi0OXXDVlqPfJNP6usotUhYbJIUMmQb/GGrAxpRljVycDBuc1hKM2LclX8/7H9nFfB+82Cd45T2+mcspcSRmu4F);strokeColor=none;spacingTop=-3;spacingBottom=-3;spacingLeft=-3;spacingRight=-3;points=[];labelBackgroundColor=none;rounded=0;html=1;whiteSpace=wrap;" parent="CJAz3a5iVs_dnIX_Vtv_-39" vertex="1">
          <mxGeometry x="7" y="8" width="6" height="6" as="geometry" />
        </mxCell>
        <mxCell id="CJAz3a5iVs_dnIX_Vtv_-44" style="vsdxID=1042;fillColor=#50e6ff;gradientColor=none;shape=stencil(vVHLDsIgEPwajiQI6RfU+h8bu22JCGRB2/69kG1iazx58DazM/vIjjBtmiCi0CplCjecbZ8nYc5Ca+snJJsLEqYTph0C4Ujh4XvmEaqzont41gkL96naodXKrGF6YSfQtUi0OXXDVlqPfJNP6usotUhYbJIUMmQb/GGrAxpRljVycDBuc1hKM2LclX8/7H9nFfB+82Cd45T2+mcspcSRmu4F);strokeColor=none;spacingTop=-3;spacingBottom=-3;spacingLeft=-3;spacingRight=-3;points=[];labelBackgroundColor=none;rounded=0;html=1;whiteSpace=wrap;" parent="CJAz3a5iVs_dnIX_Vtv_-39" vertex="1">
          <mxGeometry x="7" y="21" width="6" height="6" as="geometry" />
        </mxCell>
        <UserObject label="&lt;div style=&quot;font-size: 1px&quot;&gt;&lt;/div&gt;" tags="Background" id="CJAz3a5iVs_dnIX_Vtv_-45">
          <mxCell style="verticalAlign=middle;align=center;overflow=width;vsdxID=1043;fillColor=#f2f2f2;gradientColor=none;shape=stencil(nZBLDoAgDERP0z3SIyjew0SURgSD+Lu9kMZoXLhwN9O+tukAlrNpJg1SzDH4QW/URgNYgZTkjA4UkwJUgGXng+6DX1zLfmoymdXo17xh5zmRJ6Q42BWCfc2oJfdAr+Yv+AP9Cb7OJ3H/2JG1HNGz/84klThPVCc=);strokeColor=none;spacingTop=-3;spacingBottom=-3;spacingLeft=-3;spacingRight=-3;points=[[0,0.5,0]];labelBackgroundColor=none;rounded=0;html=1;whiteSpace=wrap;" parent="1" vertex="1">
            <mxGeometry x="311" y="181" width="80" height="260" as="geometry" />
          </mxCell>
        </UserObject>
        <UserObject label="" tags="Background" id="CJAz3a5iVs_dnIX_Vtv_-47">
          <mxCell style="vsdxID=1045;fillColor=none;gradientColor=none;strokeColor=none;spacingTop=-3;spacingBottom=-3;spacingLeft=-3;spacingRight=-3;points=[];labelBackgroundColor=none;rounded=0;html=1;whiteSpace=wrap;" parent="1" vertex="1">
            <mxGeometry x="331" y="190" width="40" height="37" as="geometry" />
          </mxCell>
        </UserObject>
        <mxCell id="CJAz3a5iVs_dnIX_Vtv_-48" style="vsdxID=1046;fillColor=none;gradientColor=none;strokeColor=none;spacingTop=-3;spacingBottom=-3;spacingLeft=-3;spacingRight=-3;points=[];labelBackgroundColor=none;rounded=0;html=1;whiteSpace=wrap;" parent="CJAz3a5iVs_dnIX_Vtv_-47" vertex="1">
          <mxGeometry width="9" height="37" as="geometry" />
        </mxCell>
        <mxCell id="CJAz3a5iVs_dnIX_Vtv_-49" style="vsdxID=1047;fillColor=#949494;gradientColor=none;shape=stencil(vVXLcsMgDPwaH61BYAyc0/Q/PA1JPHXtDHab9O+Li9tEkHBpmhuWVsi76FGI1bhvDrbgbJzc8GqP7WbaF+Kp4Lzt99a1kz8VYl2I1XZwdueG934Tvg/NjJxPb8PHfMMpxLE5grPP8KUVmG/Dc8A27sU73YIVUAcvcwuegZHBskAQTE1v1KCWoFPZnNqxdMPUTO3Qk/xd43a29OnKbdfsiGs8WntIzMsPdm1/QUYwmH0X6Q0HLW8HKA2sogEGDN6WoALBqQQIiEQCLUDFV0rxKAl8MqVjCSTPPaqJGRE6RgOnT2oQePUoPhUHpHJ6fTHzQr5IZVKkglCqkjLR/NdyJ0qYoZSkRwU6S6lSMSVtKKVEJqzBqEdRSotER30XtxFWcRuxmtZdUsgKJN6VUKbskiZmIOs/8UlHDTtD/p1PJvv1Ser/3xB8/TPZr+KTuY9+LoqsYMkcZXSV0M2EHNh9OzSjVn4p+sN5m27brgvL+NIfb19vCptbrL8A);strokeColor=none;spacingTop=-3;spacingBottom=-3;spacingLeft=-3;spacingRight=-3;points=[];labelBackgroundColor=none;rounded=0;html=1;whiteSpace=wrap;" parent="CJAz3a5iVs_dnIX_Vtv_-48" vertex="1">
          <mxGeometry width="9" height="37" as="geometry" />
        </mxCell>
        <mxCell id="CJAz3a5iVs_dnIX_Vtv_-50" style="vsdxID=1048;fillColor=#a3a3a3;gradientColor=none;shape=stencil(vVTLcoMwDPwaH9H4CfY5Tf/D0xjwlGLG0Cb9+5q6nmAC9JabLO2upJ2RETuNrR4MonicvHs3V3uZWsReEKW2b423U4gQOyN2qp03jXef/SW+Bz0j5+jDfc0Kt8hjCkQ1syj+jhmC8e/7NcI72y/gnAChGVxVUPF9gpJAyowgMJRiSdD+LVR9GghElMM+EYD8TZg0FSiWaXIGMmEKfbNj4d2kJ+v6WI8b4U77xhShX1F3uslK49WY4SG9vdJB+02CZGuPQ+LYAvZgQZlZUMn1DPhZ6++13gQzDErkXh2gSbIlgUsORO0bdccnoyjQ3Cic65XAxbOMCsMQkrWXHOTBrfx7iyG433Ftuy5+A8v6+u5DKv4Z7PwD);strokeColor=none;spacingTop=-3;spacingBottom=-3;spacingLeft=-3;spacingRight=-3;points=[];labelBackgroundColor=none;rounded=0;html=1;whiteSpace=wrap;" parent="CJAz3a5iVs_dnIX_Vtv_-48" vertex="1">
          <mxGeometry width="9" height="6" as="geometry" />
        </mxCell>
        <mxCell id="CJAz3a5iVs_dnIX_Vtv_-51" style="vsdxID=1049;fillColor=#a3a3a3;gradientColor=none;shape=stencil(vZRhT4QwDIZ/zT7SbCuD8fk8/8fiDVhEdhnonf/e4eCkKEYT47fSt2+bPktheBhac7ZM8mEM/tFe3GlsGd4xKV3f2uDGGDE8MjzUPtgm+Of+lL7PZqqcoif/MnW4Jl+lQarJJflryuQVFPI9c58MnetXhlxAURIDgtDrehMeohiWehBz/zDXF8BT/6UlVlAJ0pLPemaubsiCH83ofE+0zoTGZnFWVnemIdJwsfa8Sov9bTjdREGB+8UCUP6mXkaSdC+lQat9Q6mhRGKYnqfah4uLeoObQ1kSuBpvmU89/wow31/pu/FfQ+Z8i4w+4JbAQmwhoCAXhEAcyClVJUDhfxH4wYXF4OM+a9d16bzX+vaeYyr9C/D4Bg==);strokeColor=none;spacingTop=-3;spacingBottom=-3;spacingLeft=-3;spacingRight=-3;points=[];labelBackgroundColor=none;rounded=0;html=1;whiteSpace=wrap;" parent="CJAz3a5iVs_dnIX_Vtv_-48" vertex="1">
          <mxGeometry y="31" width="9" height="6" as="geometry" />
        </mxCell>
        <mxCell id="CJAz3a5iVs_dnIX_Vtv_-52" style="vsdxID=1050;fillColor=#949494;gradientColor=none;shape=stencil(vVXLcsMgDPwaH63hYQyc2/Q/mIYkTF07g90m/fviQhIDNb2kuQFaJHYlpIo+jQd11BVB42SHN30y2+lQ0eeKENMftDWTW1V0U9Gn3WD13g4f/dbvj2pGzqv34XP2cPb3MELzHYK+/F5wEPLn5MXDlX11VhvgFLiH24BHIJk/CQgpADWxSwFcBEytzmas7TCpyQx9cOFtnbJ7Xbtw9a5T+8g0nrQ+Lo7x8oGd6Rd8WnkNFsJLAoKtXyAYZBtfkCDxugQNUBJrgAHjSAPcAk1dMvooCRAQkirACoQoyIRPTAZ4nE+JgTyMDHP1GGsp6EXulfRk2UEiIsSyEhEErqTvwwgVGGXhMQfelvLTZJ8u/NF1lVwJSvIoSlmJiOTLpSnCWYriJpKVMAd2XzaFkst+LwJWSI9j02R02ohO3mPQDfLvfArRf2+h4tLkA7wtNtC84WMnACnVM08EQ9cHrkwl5/HO1VzK/18j0S1u43Rnus5P46U9Hb/uyI9uuvkG);strokeColor=none;spacingTop=-3;spacingBottom=-3;spacingLeft=-3;spacingRight=-3;points=[];labelBackgroundColor=none;rounded=0;html=1;whiteSpace=wrap;" parent="CJAz3a5iVs_dnIX_Vtv_-47" vertex="1">
          <mxGeometry x="30" width="9" height="37" as="geometry" />
        </mxCell>
        <mxCell id="CJAz3a5iVs_dnIX_Vtv_-53" style="vsdxID=1051;fillColor=#a3a3a3;gradientColor=none;shape=stencil(tZRNcoMwDIVPwxKNbfl3nab38CQOeEohY0iT3r5QMy0KIV11Z0vfs6xnRIG7vvbnUAjWD6l7C9d4HOoCXwohYluHFIdxVeC+wN2pS6FK3aU95v3ZT+S0eu8+phNuWacZSD2pBPvMEc7Y9/41401sF7iy4ATBnQGD2wIODgmvGFi+5H06jNk08wiYsyzNAglW5ciMMOD0xlICm0W30t9iX6Zu8EPs2lmQc41PVSjHcuWp8RVJ9dcQzoswueDhkrJjfFWfry8gVpBYQ7iC8B567KYGxUnvCEo/c1MhdVMBN8TN8YW4Ikey/7OSdrNV+iGsHTBLW3cg7bbAWZD0dI1g1BNz5w//B9fAxDZuDDj6FlaCNE86+GvUxsXvmJ5i0+QpX+bvx3oM5V8C7r8A);strokeColor=none;spacingTop=-3;spacingBottom=-3;spacingLeft=-3;spacingRight=-3;points=[];labelBackgroundColor=none;rounded=0;html=1;whiteSpace=wrap;" parent="CJAz3a5iVs_dnIX_Vtv_-47" vertex="1">
          <mxGeometry x="30" width="9" height="6" as="geometry" />
        </mxCell>
        <mxCell id="CJAz3a5iVs_dnIX_Vtv_-54" style="vsdxID=1052;fillColor=#a3a3a3;gradientColor=none;shape=stencil(vZTdcoMgEIWfhkt3+A1wnabvwSSoTKk4aJrk7YvFTsXG9CbTu2XPt8vskRWx/dCa3iKKhzGGN3txp7FF7AVR6rrWRjemCLEDYvs6RNvEcO5O+dybiZyi9/AxdbjmOgp0qqH4ls9cg/xKvGbau25BCwWi5BkQveRNPCYxfvPAczccZ16CVjkzIzsMVBYt8axX5uqGKobRjC50heZNbGyV7qpqb5pCGi7W9r/Sd6chGJezCNipp+GSgOJFQXJP8+2C9C1kaa5WwMW2uwy4Lt0VQApziQS50fFZ/pIHhm3ffp8HIdaGsUfj09Xj4iBlMf/m6/6H6f/arBT8LGXtvM87vdTXS5xS+QfADp8=);strokeColor=none;spacingTop=-3;spacingBottom=-3;spacingLeft=-3;spacingRight=-3;points=[];labelBackgroundColor=none;rounded=0;html=1;whiteSpace=wrap;" parent="CJAz3a5iVs_dnIX_Vtv_-47" vertex="1">
          <mxGeometry x="30" y="31" width="9" height="6" as="geometry" />
        </mxCell>
        <mxCell id="CJAz3a5iVs_dnIX_Vtv_-55" style="vsdxID=1053;fillColor=#32bedd;gradientColor=none;shape=stencil(lZFRCsIwEERPs78lZrAeoNZ7FJqaxZiUNFq9vQmLaAWl/s1s3izLhNBMthsNaTWlGE5m5j5Zwp60Zm9N5JQVoSU0Q4jmGMPF9+LHrpBFncO1bLhJbqNUyWh1Fy/uIKhj/wOt62q7+44v4Wd4BQpUwPoz/rh4gWbxKmVg56TT9/fPEvNIPgDtAw==);strokeColor=none;spacingTop=-3;spacingBottom=-3;spacingLeft=-3;spacingRight=-3;points=[];labelBackgroundColor=none;rounded=0;html=1;whiteSpace=wrap;" parent="CJAz3a5iVs_dnIX_Vtv_-47" vertex="1">
          <mxGeometry x="19" y="11" width="12" height="21" as="geometry" />
        </mxCell>
        <mxCell id="CJAz3a5iVs_dnIX_Vtv_-56" style="vsdxID=1054;fillColor=#9cebff;gradientColor=none;shape=stencil(UzV2Ls5ILEhVNTIoLinKz04tz0wpyVA1dlE1MsrMy0gtyiwBslSNXVWNndPyi1LTi/JL81Ig/IJEkEoQKze/DGRCBUSfoYEBSI+RQSWEbwrhukHU5mTmIak1NdAzMEFRDdONVTklBuNRTIqL8asFMhDBkpaZkwMJVWR59GAECkGiwNgVAA==);strokeColor=none;spacingTop=-3;spacingBottom=-3;spacingLeft=-3;spacingRight=-3;points=[];labelBackgroundColor=none;rounded=0;html=1;whiteSpace=wrap;" parent="CJAz3a5iVs_dnIX_Vtv_-47" vertex="1">
          <mxGeometry x="7" y="4" width="25" height="14" as="geometry" />
        </mxCell>
        <mxCell id="CJAz3a5iVs_dnIX_Vtv_-57" style="vsdxID=1055;fillColor=#50e6ff;gradientColor=none;shape=stencil(UzV2Ls5ILEhVNTIoLinKz04tz0wpyVA1dlE1MsrMy0gtyiwBslSNXVWNndPyi1LTi/JL81Ig/IJEkEoQKze/DGRCBUSfoYEBSI+RQSWEb2ysZ2oMFnGDKM/JzMOjHMbHqhhVqZmZnqk5sYrxmEqhizGUAxmIwEnLzMmBhC2yPHpgAoUgEWHsCgA=);strokeColor=none;spacingTop=-3;spacingBottom=-3;spacingLeft=-3;spacingRight=-3;points=[];labelBackgroundColor=none;rounded=0;html=1;whiteSpace=wrap;" parent="CJAz3a5iVs_dnIX_Vtv_-47" vertex="1">
          <mxGeometry x="7" y="11" width="12" height="21" as="geometry" />
        </mxCell>
        <mxCell id="CJAz3a5iVs_dnIX_Vtv_-58" style="vsdxID=1056;fillColor=#9cebff;gradientColor=none;shape=stencil(UzV2Ls5ILEhVNTIoLinKz04tz0wpyVA1dlE1MsrMy0gtyiwBslSNXVWNndPyi1LTi/JL81Ig/IJEkEoQKze/DGRCBUSfAUiHkUElhGdiqWdhBhZxgyjOycxDUmxogKrcgHilMD5WxSQ5goBiIAPh17TMnBxIUCHLo4cNUAgSrsauAA==);strokeColor=none;spacingTop=-3;spacingBottom=-3;spacingLeft=-3;spacingRight=-3;points=[];labelBackgroundColor=none;rounded=0;html=1;whiteSpace=wrap;" parent="CJAz3a5iVs_dnIX_Vtv_-47" vertex="1">
          <mxGeometry x="7" y="18" width="12" height="14" as="geometry" />
        </mxCell>
        <mxCell id="CJAz3a5iVs_dnIX_Vtv_-59" style="vsdxID=1057;fillColor=#50e6ff;gradientColor=none;shape=stencil(UzV2Ls5ILEhVNTIoLinKz04tz0wpyVA1dlE1MsrMy0gtyiwBslSNXVWNndPyi1LTi/JL81Ig/IJEkEoQKze/DGRCBUSfoYEBSI+RQSWEb2KpZ2EGFnGDKM/JzENSjqrYgFiFMFuwKiXRCQSVAxkI36Zl5uRAAgtZHj10gEKQkDV2BQA=);strokeColor=none;spacingTop=-3;spacingBottom=-3;spacingLeft=-3;spacingRight=-3;points=[];labelBackgroundColor=none;rounded=0;html=1;whiteSpace=wrap;" parent="CJAz3a5iVs_dnIX_Vtv_-47" vertex="1">
          <mxGeometry x="19" y="18" width="12" height="14" as="geometry" />
        </mxCell>
        <UserObject label="" tags="Background" id="CJAz3a5iVs_dnIX_Vtv_-60">
          <mxCell style="vsdxID=1058;fillColor=none;gradientColor=none;strokeColor=none;spacingTop=-3;spacingBottom=-3;spacingLeft=-3;spacingRight=-3;points=[];labelBackgroundColor=none;rounded=0;html=1;whiteSpace=wrap;" parent="1" vertex="1">
            <mxGeometry x="95" y="601" width="65" height="65" as="geometry" />
          </mxCell>
        </UserObject>
        <mxCell id="CJAz3a5iVs_dnIX_Vtv_-61" style="vsdxID=1059;fillColor=#5e9624;gradientColor=none;shape=stencil(vVPLcoMwDPwaH9HIFg9zTpP/8CQGPKWYMU5D/75Qm2lM0vbWm7Raa7UjmdFh6tSomcDJO/uqb+biO0YvTAgzdNoZv0SMjowOjXW6dfY6XEI+qpW5Rm/2fe0wh3c1ByzXVwI/AsIRv/JToCt3Xmou0iVURWC7jZ5DzgM0pw22hrIASZGRqdlMmbNeeWOHUI/sXrlWZ4tc1vSqTUrTTevxAY4D9mbQv4gTVPfs89UF+zz6LyHf/EeIKqijyVnELghUR5ZIRpsppAUCisigJ1PudXkN5U4XU00CShWJQ5GKYiq4epU/764GzB92J2WyOwlI7Nk1/MPq/jzFJfg+48b0ffgF9/X92S9Q+DJ0/AQ=);strokeColor=none;strokeWidth=3;spacingTop=-3;spacingBottom=-3;spacingLeft=-3;spacingRight=-3;points=[];labelBackgroundColor=none;rounded=0;html=1;whiteSpace=wrap;" parent="CJAz3a5iVs_dnIX_Vtv_-60" vertex="1">
          <mxGeometry y="28" width="56" height="34" as="geometry" />
        </mxCell>
        <mxCell id="CJAz3a5iVs_dnIX_Vtv_-62" style="vsdxID=1060;fillColor=#FFFFFF;gradientColor=none;shape=stencil(vVJdE4IgEPw1PMrwkZrPZf+DSVQmEuektH8fBpU4U731dre7B7ewiO+GVvQSMTJYMCc5qsq2iO8RY6prJSjrKsRLxHe1AdmAuXSV73sxK+fqbK7zCZOfSynm+TzFyM0j1CEP4OD1Ao6OhKAvUkyDHsJATvGWeiiISHRg6KZETGpIwFhhlekiTgtoZOJuSmotmogaRin7BUyXu2nVLbxsCpzFVgj5rH6SrzVx/s13hjO+8s1wwSLfXx7zD/Z/f6Ur3jmoldY+Rkt+nRsH+czx8g4=);strokeColor=none;strokeWidth=3;spacingTop=-3;spacingBottom=-3;spacingLeft=-3;spacingRight=-3;points=[];labelBackgroundColor=none;rounded=0;html=1;whiteSpace=wrap;" parent="CJAz3a5iVs_dnIX_Vtv_-60" vertex="1">
          <mxGeometry x="20" y="29" width="16" height="22" as="geometry" />
        </mxCell>
        <mxCell id="CJAz3a5iVs_dnIX_Vtv_-63" style="vsdxID=1061;fillColor=#5e9624;gradientColor=none;shape=stencil(vVHLDsIgEPwajiQI6RfU+h8bu22JCGRB2/69kG1iazx58DazM/vIjjBtmiCi0CplCjecbZ8nYc5Ca+snJJsLEqYTph0C4Ujh4XvmEaqzont41gkL96naodXKrGF6YSfQtUi0OXXDVlqPfJNP6usotUhYbJIUMmQb/GGrAxpRljVycDBuc1hKM2LclX8/7H9nFfB+82Cd45T2+mcspcSRmu4F);strokeColor=none;strokeWidth=3;spacingTop=-3;spacingBottom=-3;spacingLeft=-3;spacingRight=-3;points=[];labelBackgroundColor=none;rounded=0;html=1;whiteSpace=wrap;" parent="CJAz3a5iVs_dnIX_Vtv_-60" vertex="1">
          <mxGeometry x="12" width="32" height="32" as="geometry" />
        </mxCell>
        <mxCell id="CJAz3a5iVs_dnIX_Vtv_-64" style="vsdxID=1062;fillColor=#32bedd;gradientColor=none;shape=stencil(lZFhDoIwDIVP079kthEPgHgPEoZrnBsZU+D2bmmMYiKBf+9132uaN6BqME2vAdUQg7/pkdtogM6AyM7owDEpoBqo6nzQ1+AfrhXfN5nM6u6fecMkuYNSOYNqFi/uIqhlt4KWZXHE//gSfoc3oEQFnbafsePiBZrEp5SOrZVOv99/S0wj+QCqXw==);strokeColor=none;strokeWidth=3;spacingTop=-3;spacingBottom=-3;spacingLeft=-3;spacingRight=-3;points=[];labelBackgroundColor=none;rounded=0;html=1;whiteSpace=wrap;" parent="CJAz3a5iVs_dnIX_Vtv_-60" vertex="1">
          <mxGeometry x="51" y="40" width="14" height="24" as="geometry" />
        </mxCell>
        <mxCell id="CJAz3a5iVs_dnIX_Vtv_-65" style="vsdxID=1063;fillColor=#9cebff;gradientColor=none;shape=stencil(UzV2Ls5ILEhVNTIoLinKz04tz0wpyVA1dlE1MsrMy0gtyiwBslSNXVWNndPyi1LTi/JL81Ig/IJEkEoQKze/DGRCBUSfoYEBSI+RQSWEb2qgZ2ABFnGDKM/JzENSboqqGqYbq1pKDMZjLIkuJqgcyEAETlpmTg4kbJHl0QMTKASJCGNXAA==);strokeColor=none;strokeWidth=3;spacingTop=-3;spacingBottom=-3;spacingLeft=-3;spacingRight=-3;points=[];labelBackgroundColor=none;rounded=0;html=1;whiteSpace=wrap;" parent="CJAz3a5iVs_dnIX_Vtv_-60" vertex="1">
          <mxGeometry x="37" y="32" width="28" height="16" as="geometry" />
        </mxCell>
        <mxCell id="CJAz3a5iVs_dnIX_Vtv_-66" style="vsdxID=1064;fillColor=#50e6ff;gradientColor=none;shape=stencil(UzV2Ls5ILEhVNTIoLinKz04tz0wpyVA1dlE1MsrMy0gtyiwBslSNXVWNndPyi1LTi/JL81Ig/IJEkEoQKze/DGRCBUSfoYEBSI+RQSWEb2ysZ2wOFnGDKM/JzMOjHMbHqhhVqZmZnqkRsYrxmEqhizGUAxmIwEnLzMmBhC2yPHpgAoUgEWHsCgA=);strokeColor=none;strokeWidth=3;spacingTop=-3;spacingBottom=-3;spacingLeft=-3;spacingRight=-3;points=[];labelBackgroundColor=none;rounded=0;html=1;whiteSpace=wrap;" parent="CJAz3a5iVs_dnIX_Vtv_-60" vertex="1">
          <mxGeometry x="37" y="40" width="14" height="24" as="geometry" />
        </mxCell>
        <mxCell id="CJAz3a5iVs_dnIX_Vtv_-67" style="vsdxID=1065;fillColor=#9cebff;gradientColor=none;shape=stencil(UzV2Ls5ILEhVNTIoLinKz04tz0wpyVA1dlE1MsrMy0gtyiwBslSNXVWNndPyi1LTi/JL81Ig/IJEkEoQKze/DGRCBUSfAUiHkUElhGdiqWduChZxgyjOycxDUmxogKrcgHilMD5WxSQ5goBiIAPh17TMnBxIUCHLo4cNUAgSrsauAA==);strokeColor=none;strokeWidth=3;spacingTop=-3;spacingBottom=-3;spacingLeft=-3;spacingRight=-3;points=[];labelBackgroundColor=none;rounded=0;html=1;whiteSpace=wrap;" parent="CJAz3a5iVs_dnIX_Vtv_-60" vertex="1">
          <mxGeometry x="37" y="49" width="14" height="16" as="geometry" />
        </mxCell>
        <mxCell id="CJAz3a5iVs_dnIX_Vtv_-68" style="vsdxID=1066;fillColor=#50e6ff;gradientColor=none;shape=stencil(UzV2Ls5ILEhVNTIoLinKz04tz0wpyVA1dlE1MsrMy0gtyiwBslSNXVWNndPyi1LTi/JL81Ig/IJEkEoQKze/DGRCBUSfoYEBSI+RQSWEb2KpZ24KFnGDKM/JzENSjqrYgFiFMFuwKiXRCQSVAxkI36Zl5uRAAgtZHj10gEKQkDV2BQA=);strokeColor=none;strokeWidth=3;spacingTop=-3;spacingBottom=-3;spacingLeft=-3;spacingRight=-3;points=[];labelBackgroundColor=none;rounded=0;html=1;whiteSpace=wrap;" parent="CJAz3a5iVs_dnIX_Vtv_-60" vertex="1">
          <mxGeometry x="51" y="49" width="14" height="16" as="geometry" />
        </mxCell>
        <UserObject label="" tags="Background" id="CJAz3a5iVs_dnIX_Vtv_-69">
          <mxCell style="vsdxID=1067;fillColor=none;gradientColor=none;strokeColor=none;spacingTop=-3;spacingBottom=-3;spacingLeft=-3;spacingRight=-3;points=[];labelBackgroundColor=none;rounded=0;html=1;whiteSpace=wrap;" parent="1" vertex="1">
            <mxGeometry x="501" y="603" width="54" height="65" as="geometry" />
          </mxCell>
        </UserObject>
        <mxCell id="CJAz3a5iVs_dnIX_Vtv_-70" style="vsdxID=1068;fillColor=#0078d4;gradientColor=none;shape=stencil(vVTbcoMgEP0aH90BVlCf0+Q/mASVqdUMmsb+fbGQ6jqt7Uv7hmcvZzkHN8HD0OirSQQbRtc/m7u9jE2CT4kQtmuMs6M/JXhM8FD1ztSuv3WX8H3Vc+Z8eulf5w5TqOOMzTWCvYXvTEHOP5BTSD/fXMjn24II5AiyCNAkAqQYII9ZESoliAhNGCDJQcWkiJQlKLEm1+7swy7OisCyUODitAIkxqZx/AIycp+lJZtSPdkhdf2oR9t3IR4v02pXm9TTpVWraxIa7sZcV/CuOujpSqrPfHNJ9WFUG6/g54xIM/AbV1rbrUykFvIMEPdU5HKroqIqeqElbckhl/+oIkJZUBX9BFxQFYWCAqmSbPPCNjKyPVLvAs8pKaOESgETlHA91uMRKygl5V3k+70jj65f/6aLx39iCH1eP+4If1j2S2XbNqyndXy7jzwUdhke3wE=);strokeColor=none;strokeWidth=3;spacingTop=-3;spacingBottom=-3;spacingLeft=-3;spacingRight=-3;points=[];labelBackgroundColor=none;rounded=0;html=1;whiteSpace=wrap;" parent="CJAz3a5iVs_dnIX_Vtv_-69" vertex="1">
          <mxGeometry width="54" height="65" as="geometry" />
        </mxCell>
        <mxCell id="CJAz3a5iVs_dnIX_Vtv_-71" style="vsdxID=1069;fillColor=#0078d4;gradientColor=none;shape=stencil(tVTRcoMgEPwaH70BTkh4TtP/YBI0TK1m0DT274sFraeT9ClvuCzs3S5ehofuYq42E6zrffth7+7cXzJ8y4RwzcV614dVhscMD2XrbeXbW3OO31czMsfVZ/s13jDEc5yx8Yxg3/G7UKDUL/Ie6aebj3y+PpCAHYLCCA0iQooB8sRKkJYgdomFEZIcVJFYCdIaiLjxp7DrU60ITES+T9UKkAlJlGIPqEhD85VsyM3guty3veld28Tt1ExtfGXzIJeXtanIVne39rqA+TN3MKhp6s+yc0FunrxZOoiUgQ9SqV2zCJFGyAuQ8pmLnG9c1MTFAFATOQfJX+ci7SbELB+oP3IdQe+o6+HMdMvkulCgp/dGg5hf5Mp29kw0pMYUFWVUUClgSAWXZU1vPpQlqe6m4U2CmwD3JMD1Xx2exCz78vz+HSlh8TeOSlfXcZot99fjK0Bx9OHxBw==);strokeColor=none;strokeWidth=3;spacingTop=-3;spacingBottom=-3;spacingLeft=-3;spacingRight=-3;points=[];labelBackgroundColor=none;rounded=0;html=1;whiteSpace=wrap;" parent="CJAz3a5iVs_dnIX_Vtv_-69" vertex="1">
          <mxGeometry x="2" y="2" width="49" height="59" as="geometry" />
        </mxCell>
        <mxCell id="CJAz3a5iVs_dnIX_Vtv_-72" style="vsdxID=1070;fillColor=#ffbd02;gradientColor=none;shape=stencil(vVbbcoIwEP0aHt1JNvfn1v4H06IypeJEevv7rhNEF0Ta0fIGm72dk70kUw/7Tb4rMhT7JtavxWf50mwy9ZghlttNEcuGvjK1zNTDqo7FOtbv25f0v8sPmoevt/rj4OEr2QUNIRysUHwniXbgk+QpGVTl9szAe3DmNgMlwNtzgzw+02lsDbQE4ZJBPFpI0DKJWiXnwCLzGkDqVmWRf5X7RaybvCnrbToW6azK47pYUMDFqsrX7Gj/WRS7gfhiisqBkjxF9GAUSxGJWs1SdGDw/1LktCP2o3cEXWZdgDUD1kVgkKQEP3KVM0AaRJ+oPAPGXdfnFPThg+cXKpgzIwHDXNB56GBBuis4QMgJKCeVVkMKMRcWGjnOXQw+gkZiH01AhqZL/sTP8TJnqMrR4L9SpzIKt91lMKD4KKQ6b33Oc51TG4SvHEeT5i9tTIPL69sMJjYOzUrFSZYOhGEsK+o5DlN68PetMjmeIgVzvUKQultCrZJFMHxCEg573/ksx3m3umu7AUWX1ygO16jucB69WuDTAmnwqtkwjUcfKyW0w1ri82rQAVSf7r4NewXSdP/Rx+m9uCqrKj03z8/770sSpbepWv4A);strokeColor=none;strokeWidth=3;spacingTop=-3;spacingBottom=-3;spacingLeft=-3;spacingRight=-3;points=[];labelBackgroundColor=none;rounded=0;html=1;whiteSpace=wrap;" parent="CJAz3a5iVs_dnIX_Vtv_-69" vertex="1">
          <mxGeometry x="14" y="12" width="24" height="32" as="geometry" />
        </mxCell>
        <mxCell id="CJAz3a5iVs_dnIX_Vtv_-73" style="vsdxID=1071;fillColor=#ffe452;gradientColor=none;shape=stencil(vZPbkoMgDIafhkszICp63Xbfg9miMqXiRLaHt19Y7Fac1sve5fAnmY8EwndTL0dFcjo5tCd11UfXE74nea6HXqF23iL8QPiutag6tD/DMfqjDMpgne0ldLjFuhJEE4pyeo8B+ud9Ra3Rw0LbVFBuiCV++wz+Nw6poMVZLKCaq2cJozTpxqAuZkEmb3rK0DrptB2Ww6iR2KnMD8taI7skNV2VGhdh9p6FQcPT4XQT5vFKD5gaSp7ApChNAZx9iiUdLaCutkgYW69lRVKAEC+2/AGQ7WP0xvOKW21M/ATL/PrqfSj+GH74BQ==);strokeColor=none;strokeWidth=3;spacingTop=-3;spacingBottom=-3;spacingLeft=-3;spacingRight=-3;points=[];labelBackgroundColor=none;rounded=0;html=1;whiteSpace=wrap;" parent="CJAz3a5iVs_dnIX_Vtv_-69" vertex="1">
          <mxGeometry x="14" y="27" width="24" height="16" as="geometry" />
        </mxCell>
        <mxCell id="CJAz3a5iVs_dnIX_Vtv_-74" style="vsdxID=1072;fillColor=#ffd400;gradientColor=none;fillOpacity=50;strokeOpacity=50;shape=stencil(vVPLjoMwDPyaHImSmBY49/EfURsg2pQgk7b07zfZgJawFdJeerNnxrYmdggchlb2igg2OLRf6qmvriVwJELorlWonY8InAgcaouqQXvvrjHvZVCG6GYfocMY66qcCh6qBHtFhP1k5yg2uluIgeYbWokXz+Ck3dFABS1O4oLuq4iMy+q5F6dlPtGZHPWQoXXSadslYiOxUZkfldVGNgk1PJXq/8BvjVQlZUU6nW164XztZScSL3P93M+/K/BP2VkPL2i5/6cbSNxUfnvwZtOfWM32Qfrg95RrbUz8CUt+ffoeit8GTt8=);strokeColor=none;strokeWidth=3;spacingTop=-3;spacingBottom=-3;spacingLeft=-3;spacingRight=-3;points=[];labelBackgroundColor=none;rounded=0;html=1;whiteSpace=wrap;" parent="CJAz3a5iVs_dnIX_Vtv_-69" vertex="1">
          <mxGeometry x="15" y="27" width="24" height="16" as="geometry" />
        </mxCell>
        <UserObject label="" tags="Background" id="CJAz3a5iVs_dnIX_Vtv_-75">
          <mxCell style="vsdxID=1073;fillColor=none;gradientColor=none;strokeColor=none;spacingTop=-3;spacingBottom=-3;spacingLeft=-3;spacingRight=-3;points=[];labelBackgroundColor=none;rounded=0;html=1;whiteSpace=wrap;" parent="1" vertex="1">
            <mxGeometry x="366" y="601" width="65" height="66" as="geometry" />
          </mxCell>
        </UserObject>
        <mxCell id="CJAz3a5iVs_dnIX_Vtv_-76" style="vsdxID=1074;rotation=315;fillColor=#198ab3;gradientColor=none;shape=stencil(vVPLDoMgEPwajhqENtaztf9BKiopFbPQqn9fLDa+aprUxNsyO+swi4NorAtWcUSwNqBuvBapKRA9I0JEWXAQxlaIJojGmQKeg3qUqTtXrGN21V09uy80bg53EwS37nQkfhS8kYsjM7jaLvTkAPuh40M/cAh9HDlowWk/QK/ReKwR2gNlmBGqnOhLBjn3rJqXSZZPWrrmvFrA/f2kKEdmTpFPv2pvcLO2oB3szMWH6/3tZ7Gh3d5m8V9sfJm11exg5UdmbDGkLRNSurCO+/N0WsglmyYv);strokeColor=none;strokeWidth=3;spacingTop=-3;spacingBottom=-3;spacingLeft=-3;spacingRight=-3;points=[];labelBackgroundColor=none;rounded=0;html=1;whiteSpace=wrap;" parent="CJAz3a5iVs_dnIX_Vtv_-75" vertex="1">
          <mxGeometry x="-2" y="53" width="22" height="5" as="geometry" />
        </mxCell>
        <mxCell id="CJAz3a5iVs_dnIX_Vtv_-77" style="vsdxID=1075;fillColor=#5ea0ef;gradientColor=none;shape=stencil(xVrbcuJIDP0aHtPV98vz7Ox/UDMkoZYNKcLskL8feUzLSMJtUwPet0S0LPnorvbKffl4Xb9vVlZ/HA/7fzY/t9+Pryv318ra7dvr5rA9wl8r93XlvjzvD5uXw/7H2/f+//d1d7L769/9f90TTj1fScrYjsvqz57itMrxN+XvnmF9+Aa/Hs4MwarSnz98IiW7nlQfqlUp5KGmqHwWc3pan7YfT4f9cX3c7t/633X/2259eNk8gcCn5936hfz08XOzeRfk6yqC+MR01FXrEyoUDVGxqPRADXfbt80s6WPnTaCA6mq3MQiiFxCETDFQVAeXlHOPg4Bq6L1KkWoIpEitpIl+3qp0V/VMA0AAh/u5wVCpAAblqJ/npGx5HITMKxrir76U8aowr+hI7KUgI2T61KyKWeylGuKvM2SM9hpLWvk/YxC+oHk+MQQzG1VkjwTbLJZObFI+c/EpNxhyzfHIEJWL4wxQFLTlDGdfus5glHWUAZRsnLcqJH6+NFKic5ivK0OukF9nAIt4zpBKgyEqa25iyJhhK0OphrkPgwdU6TsY3fCLEPkrs+PUzyH/Z+rmQEmeeHoEO7kRUBbw9Jb4sditsXqRxz19qVywg6k5B4rlA19K6Oikjpbq2GrUFgB+Rp9IG8scVKAti3WsOFEJCRh8m4F1EJAgHIUNSAjJ2WEyYrtIn8dUdEqzkOpItOACUjGOvPhDOh2K+wxDUcsGpyJ1BV4KKAhdcbQUBCAF2ulJOy0KgnynCW+dBmEKtK6khkY4aExcYwwUZogfw7oUINXGpR5yvCxDyLj8/8E8iJ/JIFCYwhkoraItEREMDOeIJQhxjsrTCVhaL11MD0vgHOKI+JkMHeUWuwjUqF2g4zQUEJjmbCNrxILloMIMJFa4wRk8NR6k9/zAIZG1YwmbfCF+JgNQGmaBxj7F5vlvPw49zAY5amb9PJN8qK29Plk8FWvOt1iXsNVzeKoubT4dGs2054opK1O3kIDEqtlcxN34aRgqYm6cFnUqUIcDiqftBMjXjunrFwvrabRY0Dnl6FBlQnNGmsEgtjiBgQYkT2s7mMFR0Ibt1QKrHA8xydprILG5xkL1FE1YCnfV8aZVziD++ktFZVh6BJKmCz47tJ+DOe19Z4aGu87wJuqvBqaem/IpSGCLD8HAircW4yCQMILPzzB8LPf6oTOuSOIXCtQkbtGJMYkbbPgwiXtVqs86eaomcUhijY4IPEu0iLo1YofakQ3jq8cVWwVeucAhLYttc6EEFj6HBbH41DhPXjjTYsl9hvPTaIlK9K2xldvFRk4wsFgpMlaKYmnT8c0JhFPdMS+QNgVmg/ixgdzxWwenaO8u/P+iOX68G0xalaXMwFuchB3gdTcIfNEqGET5TLzEFxQ6lPjElqt4u7TImsUKoxrqqbLCdu993+uuVnRP20l0xp7qWyDW8jgI4DmWzf8diQ1MUEbCiBrLNLBeGqHhrTNQmIINMkJqtBByhBQMYs/iWTwAqVa30cEN4tjfNy/eNCgM4mcyTMA2A2e2mClYgodbt9AYx8xw/YKXlREvZetTvaJqg3uUxYJaSE+pOb3GrLJw/9jo8h1WA7yRAVSoq10FdrEVyAyzUj9IeMlUr1qCagmYPs9qgcZKhMVA8+8Kum2zuAIuD0yDTMcsOisgsd0WJBW2woOQu69dG51VxgtkKX60s+JtwsUGf8j2dD8Ecu7bJvyRK7ErrCLCFZyrLYBtRQUDBS0n3JdV0HIcHPFMoV/BQCa/88K+de3nGWSD9LF9EHdsr7S8bR2DdYn7rmmrsoxVULth09L6RA5MyNrRLFYz4Crsah6mvTu3o63wLuLOsTSrMZgxy0Vfoi8F3sJmiwGpJeJ72lDwx/Al5PN2t+s/pLz8nX85CaT+q0v39Rc=);strokeColor=none;strokeWidth=3;spacingTop=-3;spacingBottom=-3;spacingLeft=-3;spacingRight=-3;points=[];labelBackgroundColor=none;rounded=0;html=1;whiteSpace=wrap;" parent="CJAz3a5iVs_dnIX_Vtv_-75" vertex="1">
          <mxGeometry x="18" width="47" height="47" as="geometry" />
        </mxCell>
        <mxCell id="CJAz3a5iVs_dnIX_Vtv_-78" style="vsdxID=1076;fillColor=#50e6ff;gradientColor=none;shape=stencil(vVHLDsIgEPwajiQI6RfU+h8bu22JCGRB2/69kG1iazx58DazM/vIjjBtmiCi0CplCjecbZ8nYc5Ca+snJJsLEqYTph0C4Ujh4XvmEaqzont41gkL96naodXKrGF6YSfQtUi0OXXDVlqPfJNP6usotUhYbJIUMmQb/GGrAxpRljVycDBuc1hKM2LclX8/7H9nFfB+82Cd45T2+mcspcSRmu4F);strokeColor=none;strokeWidth=3;spacingTop=-3;spacingBottom=-3;spacingLeft=-3;spacingRight=-3;points=[];labelBackgroundColor=none;rounded=0;html=1;whiteSpace=wrap;" parent="CJAz3a5iVs_dnIX_Vtv_-75" vertex="1">
          <mxGeometry x="8" y="24" width="31" height="31" as="geometry" />
        </mxCell>
        <mxCell id="CJAz3a5iVs_dnIX_Vtv_-79" style="vsdxID=1077;fillColor=#FFFFFF;gradientColor=none;shape=stencil(vVHLDsIgEPwajiQI6RfU+h8bu22JCGRB2/69kG1iazx58DazM/vIjjBtmiCi0CplCjecbZ8nYc5Ca+snJJsLEqYTph0C4Ujh4XvmEaqzont41gkL96naodXKrGF6YSfQtUi0OXXDVlqPfJNP6usotUhYbJIUMmQb/GGrAxpRljVycDBuc1hKM2LclX8/7H9nFfB+82Cd45T2+mcspcSRmu4F);strokeColor=none;strokeWidth=3;spacingTop=-3;spacingBottom=-3;spacingLeft=-3;spacingRight=-3;points=[];labelBackgroundColor=none;rounded=0;html=1;whiteSpace=wrap;" parent="CJAz3a5iVs_dnIX_Vtv_-75" vertex="1">
          <mxGeometry x="11" y="27" width="24" height="24" as="geometry" />
        </mxCell>
        <mxCell id="CJAz3a5iVs_dnIX_Vtv_-80" style="vsdxID=1078;fillColor=#76bc2d;gradientColor=none;shape=stencil(vVTLcoMwDPwaH9HYFn5wTtP/8DQGPKWQMbRJ/75mHNKYYHrrTUi71lprRPAwtuZsCafj5Id3e3GnqSX4Qjh3fWu9m0JE8EjwUA/eNn747E/x+2xm5Bx9DF/zCdfI4xwUzixOv2Om1MBi5jUSOtc/EFCCUgmBUZqHCwZUJnBEwJ3z5ZMgxYDn8UoBT/UgAyXzhEVuFm78W6j6RY8EqiPB3y9cQhUlLYdWCnSVTkWDKm+YwlzdWPhhMpMb+li/ieiMb2wRWhZ1Z5qkNF6sPT+lt4eAQMtM++0pI6SulAiVzuPLCmg65R01KECkFoZ2yPIEjsDYWr7Yka/XasKr2Xu0dB+cOh7uKqvUcaXv9i6SQaaKlQAU/+U346Az3bcH/PdfHoLfHVG7rosr5rG+3ikhFfcRHn8A);strokeColor=none;strokeWidth=3;spacingTop=-3;spacingBottom=-3;spacingLeft=-3;spacingRight=-3;points=[];labelBackgroundColor=none;rounded=0;html=1;whiteSpace=wrap;" parent="CJAz3a5iVs_dnIX_Vtv_-75" vertex="1">
          <mxGeometry x="12" y="33" width="21" height="13" as="geometry" />
        </mxCell>
        <UserObject label="&lt;div style=&quot;&quot;&gt;&lt;font style=&quot;font-size: 25px;&quot; face=&quot;Segoe UI Semibold&quot; color=&quot;#000000&quot;&gt;Role Entitlement&lt;/font&gt;&lt;/div&gt;" tags="Background" id="CJAz3a5iVs_dnIX_Vtv_-81">
          <mxCell style="verticalAlign=middle;align=center;overflow=width;vsdxID=1079;fillColor=none;gradientColor=none;shape=stencil(nZBLDoAgDERP0z3SIyjew0SURgSD+Lu9kMZoXLhwN9O+tukAlrNpJg1SzDH4QW/URgNYgZTkjA4UkwJUgGXng+6DX1zLfmoymdXo17xh5zmRJ6Q42BWCfc2oJfdAr+Yv+AP9Cb7OJ3H/2JG1HNGz/84klThPVCc=);strokeColor=none;points=[];labelBackgroundColor=none;rounded=0;html=1;whiteSpace=wrap;fontFamily=Helvetica;fontSize=12;fontColor=default;" parent="1" vertex="1">
            <mxGeometry x="29" y="681" width="176" height="60" as="geometry" />
          </mxCell>
        </UserObject>
        <UserObject label="&lt;div style=&quot;font-size: 1px&quot;&gt;&lt;font style=&quot;font-size:25.4px;font-family:Themed;color:#000000;direction:ltr;letter-spacing:0px;line-height:120%;opacity:1&quot;&gt;&lt;span style=&quot;font-family: &amp;quot;Segoe UI Semibold&amp;quot;; font-size: 25px;&quot;&gt;Policy&lt;/span&gt;&lt;br&gt;&lt;/font&gt;&lt;/div&gt;&lt;div style=&quot;font-size: 1px&quot;&gt;&lt;font style=&quot;font-size:25.4px;font-family:Themed;color:#000000;direction:ltr;letter-spacing:0px;line-height:120%;opacity:1&quot;&gt;&lt;span style=&quot;font-family: &amp;quot;Segoe UI Semibold&amp;quot;; font-size: 25px;&quot;&gt;Assignment&lt;/span&gt;&lt;/font&gt;&lt;/div&gt;" tags="Background" id="CJAz3a5iVs_dnIX_Vtv_-82">
          <mxCell style="verticalAlign=middle;align=center;overflow=width;vsdxID=1080;fillColor=none;gradientColor=none;shape=stencil(nZBLDoAgDERP0z3SIyjew0SURgSD+Lu9kMZoXLhwN9O+tukAlrNpJg1SzDH4QW/URgNYgZTkjA4UkwJUgGXng+6DX1zLfmoymdXo17xh5zmRJ6Q42BWCfc2oJfdAr+Yv+AP9Cb7OJ3H/2JG1HNGz/84klThPVCc=);strokeColor=none;points=[];labelBackgroundColor=none;rounded=0;html=1;whiteSpace=wrap;" parent="1" vertex="1">
            <mxGeometry x="188" y="681" width="164" height="60" as="geometry" />
          </mxCell>
        </UserObject>
        <UserObject label="&lt;div style=&quot;&quot;&gt;&lt;font face=&quot;Segoe UI Semibold&quot; color=&quot;#000000&quot; style=&quot;direction: ltr; letter-spacing: 0px; line-height: 120%; opacity: 1;&quot;&gt;&lt;div style=&quot;font-size: 25px;&quot;&gt;Network&lt;br&gt;&lt;br&gt;&lt;/div&gt;&lt;div style=&quot;font-size: 25px;&quot;&gt;Watcher&lt;/div&gt;&lt;/font&gt;&lt;/div&gt;" tags="Background" id="CJAz3a5iVs_dnIX_Vtv_-83">
          <mxCell style="verticalAlign=middle;align=center;overflow=width;vsdxID=1081;fillColor=none;gradientColor=none;shape=stencil(nZBLDoAgDERP0z3SIyjew0SURgSD+Lu9kMZoXLhwN9O+tukAlrNpJg1SzDH4QW/URgNYgZTkjA4UkwJUgGXng+6DX1zLfmoymdXo17xh5zmRJ6Q42BWCfc2oJfdAr+Yv+AP9Cb7OJ3H/2JG1HNGz/84klThPVCc=);strokeColor=none;points=[];labelBackgroundColor=none;rounded=0;html=1;whiteSpace=wrap;" parent="1" vertex="1">
            <mxGeometry x="339" y="683" width="152" height="60" as="geometry" />
          </mxCell>
        </UserObject>
        <UserObject label="&lt;div style=&quot;font-size: 1px&quot;&gt;&lt;font style=&quot;font-size:25.4px;font-family:Calibri;color:#000000;direction:ltr;letter-spacing:0px;line-height:120%;opacity:1&quot;&gt;&lt;div style=&quot;font-family: &amp;quot;Segoe UI Semibold&amp;quot;; font-size: 25px;&quot;&gt;Security&lt;/div&gt;&lt;div style=&quot;font-family: &amp;quot;Segoe UI Semibold&amp;quot;; font-size: 25px;&quot;&gt;Center&lt;/div&gt;&lt;/font&gt;&lt;/div&gt;" tags="Background" id="CJAz3a5iVs_dnIX_Vtv_-84">
          <mxCell style="verticalAlign=middle;align=center;overflow=width;vsdxID=1082;fillColor=none;gradientColor=none;shape=stencil(nZBLDoAgDERP0z3SIyjew0SURgSD+Lu9kMZoXLhwN9O+tukAlrNpJg1SzDH4QW/URgNYgZTkjA4UkwJUgGXng+6DX1zLfmoymdXo17xh5zmRJ6Q42BWCfc2oJfdAr+Yv+AP9Cb7OJ3H/2JG1HNGz/84klThPVCc=);strokeColor=none;points=[];labelBackgroundColor=none;rounded=0;html=1;whiteSpace=wrap;" parent="1" vertex="1">
            <mxGeometry x="468" y="681" width="152" height="60" as="geometry" />
          </mxCell>
        </UserObject>
        <UserObject label="" tags="Background" id="CJAz3a5iVs_dnIX_Vtv_-85">
          <mxCell style="vsdxID=1083;fillColor=none;gradientColor=none;strokeColor=none;spacingTop=-3;spacingBottom=-3;spacingLeft=-3;spacingRight=-3;points=[];labelBackgroundColor=none;rounded=0;html=1;whiteSpace=wrap;" parent="1" vertex="1">
            <mxGeometry x="227" y="603" width="63" height="67" as="geometry" />
          </mxCell>
        </UserObject>
        <mxCell id="CJAz3a5iVs_dnIX_Vtv_-86" style="vsdxID=1084;fillColor=#198ab3;gradientColor=none;shape=stencil(vVHLDsIgEPwajiQI6RfU+h8bu22JCGRB2/69kG1iazx58DazM/vIjjBtmiCi0CplCjecbZ8nYc5Ca+snJJsLEqYTph0C4Ujh4XvmEaqzont41gkL96naodXKrGF6YSfQtUi0OXXDVlqPfJNP6usotUhYbJIUMmQb/GGrAxpRljVycDBuc1hKM2LclX8/7H9nFfB+82Cd45T2+mcspcSRmu4F);strokeColor=none;spacingTop=-3;spacingBottom=-3;spacingLeft=-3;spacingRight=-3;points=[];labelBackgroundColor=none;rounded=0;html=1;whiteSpace=wrap;" parent="CJAz3a5iVs_dnIX_Vtv_-85" vertex="1">
          <mxGeometry x="19" y="22" width="20" height="20" as="geometry" />
        </mxCell>
        <mxCell id="CJAz3a5iVs_dnIX_Vtv_-87" style="vsdxID=1085;fillColor=#32bedd;gradientColor=none;shape=stencil(vVHLDsIgEPwajiQI6RfU+h8bu22JCGRB2/69kG1iazx58DazM/vIjjBtmiCi0CplCjecbZ8nYc5Ca+snJJsLEqYTph0C4Ujh4XvmEaqzont41gkL96naodXKrGF6YSfQtUi0OXXDVlqPfJNP6usotUhYbJIUMmQb/GGrAxpRljVycDBuc1hKM2LclX8/7H9nFfB+82Cd45T2+mcspcSRmu4F);strokeColor=none;spacingTop=-3;spacingBottom=-3;spacingLeft=-3;spacingRight=-3;points=[];labelBackgroundColor=none;rounded=0;html=1;whiteSpace=wrap;" parent="CJAz3a5iVs_dnIX_Vtv_-85" vertex="1">
          <mxGeometry x="53" y="12" width="10" height="10" as="geometry" />
        </mxCell>
        <mxCell id="CJAz3a5iVs_dnIX_Vtv_-88" style="vsdxID=1086;fillColor=#32bedd;gradientColor=none;shape=stencil(vVHLDsIgEPwajiQI6RfU+h8bu22JCGRB2/69kG1iazx58DazM/vIjjBtmiCi0CplCjecbZ8nYc5Ca+snJJsLEqYTph0C4Ujh4XvmEaqzont41gkL96naodXKrGF6YSfQtUi0OXXDVlqPfJNP6usotUhYbJIUMmQb/GGrAxpRljVycDBuc1hKM2LclX8/7H9nFfB+82Cd45T2+mcspcSRmu4F);strokeColor=none;spacingTop=-3;spacingBottom=-3;spacingLeft=-3;spacingRight=-3;points=[];labelBackgroundColor=none;rounded=0;html=1;whiteSpace=wrap;" parent="CJAz3a5iVs_dnIX_Vtv_-85" vertex="1">
          <mxGeometry x="53" y="28" width="10" height="10" as="geometry" />
        </mxCell>
        <mxCell id="CJAz3a5iVs_dnIX_Vtv_-89" style="vsdxID=1087;fillColor=#32bedd;gradientColor=none;shape=stencil(vVHLDsIgEPwajiQI6RfU+h8bu22JCGRB2/69kG1iazx58DazM/vIjjBtmiCi0CplCjecbZ8nYc5Ca+snJJsLEqYTph0C4Ujh4XvmEaqzont41gkL96naodXKrGF6YSfQtUi0OXXDVlqPfJNP6usotUhYbJIUMmQb/GGrAxpRljVycDBuc1hKM2LclX8/7H9nFfB+82Cd45T2+mcspcSRmu4F);strokeColor=none;spacingTop=-3;spacingBottom=-3;spacingLeft=-3;spacingRight=-3;points=[];labelBackgroundColor=none;rounded=0;html=1;whiteSpace=wrap;" parent="CJAz3a5iVs_dnIX_Vtv_-85" vertex="1">
          <mxGeometry x="53" y="45" width="10" height="10" as="geometry" />
        </mxCell>
        <mxCell id="CJAz3a5iVs_dnIX_Vtv_-90" style="vsdxID=1088;fillColor=#50e6ff;gradientColor=none;shape=stencil(vVHLDsIgEPwajiQI6RfU+h8bu22JCGRB2/69kG1iazx58DazM/vIjjBtmiCi0CplCjecbZ8nYc5Ca+snJJsLEqYTph0C4Ujh4XvmEaqzont41gkL96naodXKrGF6YSfQtUi0OXXDVlqPfJNP6usotUhYbJIUMmQb/GGrAxpRljVycDBuc1hKM2LclX8/7H9nFfB+82Cd45T2+mcspcSRmu4F);strokeColor=none;spacingTop=-3;spacingBottom=-3;spacingLeft=-3;spacingRight=-3;points=[];labelBackgroundColor=none;rounded=0;html=1;whiteSpace=wrap;" parent="CJAz3a5iVs_dnIX_Vtv_-85" vertex="1">
          <mxGeometry x="41" y="20" width="10" height="10" as="geometry" />
        </mxCell>
        <mxCell id="CJAz3a5iVs_dnIX_Vtv_-91" style="vsdxID=1089;fillColor=#50e6ff;gradientColor=none;shape=stencil(vVHLDsIgEPwajiQI6RfU+h8bu22JCGRB2/69kG1iazx58DazM/vIjjBtmiCi0CplCjecbZ8nYc5Ca+snJJsLEqYTph0C4Ujh4XvmEaqzont41gkL96naodXKrGF6YSfQtUi0OXXDVlqPfJNP6usotUhYbJIUMmQb/GGrAxpRljVycDBuc1hKM2LclX8/7H9nFfB+82Cd45T2+mcspcSRmu4F);strokeColor=none;spacingTop=-3;spacingBottom=-3;spacingLeft=-3;spacingRight=-3;points=[];labelBackgroundColor=none;rounded=0;html=1;whiteSpace=wrap;" parent="CJAz3a5iVs_dnIX_Vtv_-85" vertex="1">
          <mxGeometry x="41" y="37" width="10" height="10" as="geometry" />
        </mxCell>
        <mxCell id="CJAz3a5iVs_dnIX_Vtv_-92" style="vsdxID=1090;fillColor=#949494;gradientColor=none;shape=stencil(tVTbboMwDP0aHrESm0t47rr/iNoA0RigQFf29wtLUAmIbdK2t8Q+x5fjxBGdhlr2KkI2jKZ7UXd9HeuIniJE3dbK6NGeIjpHdCo7oyrT3dqru/dyRs6n1+5tjjA5HufAcWYhe/cWxj7vzw4uzcX6zAIHUTi08fAEMuEsj4iCgoiFgCTxmFhOeohNN8pRd63zu3yskaZSsc0Xl42sAtdwV6pfmfm6wka3q4bSHPIwPSEgrQmXm3EScE8RQJmn8C2HTei7yIEvKG8SGaRevIn2KNqifi5pEUrqR7J0JBAS/FNB2bGg2+SZfTH0q3aKAlgaxLRDY/R/DW0Hvi6A7yvA/bPAINkybEsSPBw2g1wca8lA5OEkOWTJF/gQTIDH2G9/sj08tkCpm8YtkbV/uzWsyW0cOn8A);strokeColor=none;spacingTop=-3;spacingBottom=-3;spacingLeft=-3;spacingRight=-3;points=[];labelBackgroundColor=none;rounded=0;html=1;whiteSpace=wrap;" parent="CJAz3a5iVs_dnIX_Vtv_-85" vertex="1">
          <mxGeometry width="50" height="20" as="geometry" />
        </mxCell>
        <mxCell id="CJAz3a5iVs_dnIX_Vtv_-93" style="vsdxID=1091;fillColor=#949494;gradientColor=none;shape=stencil(vZTBcoMgEIafhqM7wAaRc5q+B5OgMrXiIG3s2weL04gzpod2clv//XeXD10JHsdWD4ZwOgbv3szVXkJL8IVwbvvWeBtiRPBE8Fg7bxrvPvpLeh707Jyjd/c5d5hSneIgca7i9CspFLD8Fl6Tv7P9ys+BZe4Sgcq1XftzzPrFXv5090tBBVQlZbHQnX50KvRkx8K7oIN1febutG9MEWcVdaebLDVejRlWMtuHyUcrBRXfR0GQKkc5gCgzlO3l3Dv+Fwzdh1ESZD4eD8AeAMXjb4AECJYBMZpfEVcg8FlA2+ECWPUnmgff+jPez6+bFoP7mta269KWr/PbtY5S+iXg6QY=);strokeColor=none;spacingTop=-3;spacingBottom=-3;spacingLeft=-3;spacingRight=-3;points=[];labelBackgroundColor=none;rounded=0;html=1;whiteSpace=wrap;" parent="CJAz3a5iVs_dnIX_Vtv_-85" vertex="1">
          <mxGeometry x="29" y="50" width="20" height="17" as="geometry" />
        </mxCell>
        <mxCell id="CJAz3a5iVs_dnIX_Vtv_-94" style="vsdxID=1092;fillColor=#B3B3B3;gradientColor=none;shape=stencil(vZTNcoQgDMefhqMZCKJw3m7fg+miMrXqoO3aty8W2xV3dHvoeAv5+IefxBB+6ivdGYK0H1z7aq72MlSEPxFE21TG2cFbhJ8JPxWtM6Vr35tLOHd6ypyst/ZjUhhDHaN0qkH6Gc4yh4x/e55DunYvPurm9BQohnw3FyBwETxzipKA2YYmHRM92j5x7aAH2zYhPt+g1q40ie+XFLUuo1B/NaZbuNnyhrVtFkBIATFqn1HIxTYSghIxEoOcR0hMQsYiTaGAyaOQ7tv7Dyq3iTiIFREClQ+IMsjTo4AoxL3pHotco/w874YY+x3RfwKhfwfJBMh0Dwb5etSkih8GhIwlc0jVUTz+3+Uqaq8UqH0idke0GrXVhrkpHgD0cL1547YaC1vXYbMu4+tV6l1hDfPzFw==);strokeColor=none;spacingTop=-3;spacingBottom=-3;spacingLeft=-3;spacingRight=-3;points=[];labelBackgroundColor=none;rounded=0;html=1;whiteSpace=wrap;" parent="CJAz3a5iVs_dnIX_Vtv_-85" vertex="1">
          <mxGeometry y="16" width="29" height="50" as="geometry" />
        </mxCell>
        <UserObject label="" tags="Background" id="CJAz3a5iVs_dnIX_Vtv_-95">
          <mxCell style="vsdxID=1093;fillColor=none;gradientColor=none;points=[];labelBackgroundColor=none;rounded=0;strokeColor=none;html=1;whiteSpace=wrap;" parent="1" vertex="1">
            <mxGeometry x="758" y="601" width="73" height="65" as="geometry" />
          </mxCell>
        </UserObject>
        <mxCell id="CJAz3a5iVs_dnIX_Vtv_-96" style="vsdxID=1094;fillColor=#76bc2d;gradientColor=none;shape=stencil(xZTNcoQgDMefhqMMH4Jy3m7fg+miMrXiIO1u375YaJVS9tCDvUHyJ/GXxAB6WgY5K0DQ4qx5Vld9cQOgD4AQPQ3KaudPgJ4BPXXGqt6a1+kS7rNclevpxbytEW7hHReQNOsrgt6DBX3eHoN41NNOTBFsaFks7ZP32CjGGDIexDaqMYFtG0xRRHxElkTksCZRUsmbXiprnHTaTPuEaJS2V5VPWHWj7BPXclVqzsy/8vgvTHFqCjm5ixTdeyTBEqQsKPNI/CikvKCCQtbeb1PeJZIg5X3HCB1FlE/oV/ISTy1yIJwANT5mqUoHIIkW1inSNiN/H7w86jbOB0DlNf3+lYuD1+RMCVJpO/3L2CVif9hWaqfHMWzkvf/nCvamsL7p+QM=);strokeColor=none;spacingTop=-3;spacingBottom=-3;spacingLeft=-3;spacingRight=-3;points=[];labelBackgroundColor=none;rounded=0;html=1;whiteSpace=wrap;" parent="CJAz3a5iVs_dnIX_Vtv_-95" vertex="1">
          <mxGeometry width="73" height="65" as="geometry" />
        </mxCell>
        <mxCell id="CJAz3a5iVs_dnIX_Vtv_-97" style="vsdxID=1095;fillColor=#FFFFFF;gradientColor=none;fillOpacity=90;strokeOpacity=90;shape=stencil(vVfddtowDH6aXKJjS/7Ldde9R04bIGeMcAJdu7efWOwEOcNtN9hdkCV/0qc/U9HDcdsc2grV8TT039rX7vm0rehLhdjtt+3QnfiroseKHtb90G6G/mX/PP4+NGfN89f3/sf5hrfRzioIdLZC9XOUaA0u/JZ8HQ2a4YlPh2igDWg9GgzRwkGIkqjjLCgjLjVQ+6iyat6642roT82p6/fjsRrPds2waVeMt1rvmk3EG4+Or217WIiveYhLD53wsBT2p11UH3Bx1+0/x7pMEzlwKAxqAm3+jYRlmuZLb0WCuk5CCf6vYyoRdavaK8T0gTxl/acn76KBV2ALJKCdui2RoBGMZIGVtLjUEdB/q24loS34QjzGAXoZDyKQFfGYGmwtbg1qGkP3qNSnl2HMko5JCRBSmvTSA4ycqBR6FHiENPYoV4kCx8HSdXqI2auzdHvAIOhhV5wctxacvR87WUVy/dncR4XgZE1yDk2QXuq7Tps8h+SnJZRySPXEbsohcfvJJJ57OvFNC6Uk4Uz7wujinKGkKADpdwjiNra3LfLC2uQdTVkj8lLyXvjIBS33FukpsPsPFp6lIWPIpwXw5+FiwGTDEjWYxXCRs0U7qOubxlSsS6xBp2rSSw9iFc5jP9UlRzKNSVoopbok8FhCvzCJEhPAWwmOWUvw1pr2boLmyqgltjVpL13DZqQM3PKjACW45w1KGb4HjRL/UmserT6U8C+qWU/LKifecS4y5ucVPYevwToJv1jk2Rvw/c3PH/O7fd3tduOz//I8f+ezaPyPQI+/AA==);strokeColor=none;spacingTop=-3;spacingBottom=-3;spacingLeft=-3;spacingRight=-3;points=[];labelBackgroundColor=none;rounded=0;html=1;whiteSpace=wrap;" parent="CJAz3a5iVs_dnIX_Vtv_-95" vertex="1">
          <mxGeometry x="24" y="8" width="24" height="50" as="geometry" />
        </mxCell>
        <UserObject label="" tags="Background" id="CJAz3a5iVs_dnIX_Vtv_-98">
          <mxCell style="vsdxID=1096;fillColor=none;gradientColor=none;points=[];labelBackgroundColor=none;rounded=0;strokeColor=none;html=1;whiteSpace=wrap;" parent="1" vertex="1">
            <mxGeometry x="625" y="603" width="76" height="60" as="geometry" />
          </mxCell>
        </UserObject>
        <mxCell id="CJAz3a5iVs_dnIX_Vtv_-99" style="vsdxID=1097;fillColor=#0078d4;gradientColor=none;shape=stencil(vVTLcsIwDPyaHKOxpcSPM4X/8IABT9OEcUKBv29SmxS7zHAiN1taWevVo6BVfzQnWyDrB9992ovbDceCPgpE1x6td8N4Kmhd0GrfeXvw3bndhfvJTMjp9NV9Ty9cQxxnbIpBdgt3oUD+GjYBbfx2dPqIRoSaAt7HAOKgeDBFkGJQJ2+SAq4jpDRX15e+G8zgujb4I4PG+IMtx4TlvjGHxNVfrD39Mz+nqIB4RlGDFgnFmgNVCUe2GD8NTKb8Kg6MEn5IUIuEHwoQy2koQGGmoQSVapj1DQHni/GTgDk/BVWm4dh1aY3nXn8Hw+3Zh7ni9zrH3DxPjnMjqMj4hjmG4q8YiPssUYqJaRvXPkyzFID86Z+f6liBrlMZBWiVqCjlrGuEaA1SLlZpnJPNlca5rq922FsIpoq/2p/j4W/17l3ThM396M9X9WgKa57WPw==);strokeColor=none;spacingTop=-3;spacingBottom=-3;spacingLeft=-3;spacingRight=-3;points=[];labelBackgroundColor=none;rounded=0;html=1;whiteSpace=wrap;" parent="CJAz3a5iVs_dnIX_Vtv_-98" vertex="1">
          <mxGeometry width="76" height="54" as="geometry" />
        </mxCell>
        <mxCell id="CJAz3a5iVs_dnIX_Vtv_-100" style="vsdxID=1098;fillColor=#50e6ff;gradientColor=none;shape=stencil(vVPbcoMgEP0aHmWAVdDnNPkPJkFlasVB0ti/r85iC7bpY9/2cpazy54lcJp7PRki2By8ezUPews9gRcihB17421YLQJnAqfWedN5dx9v6E96Q27Wm3vfXliwrmJbiWAf6KJ3QeT17hHKMVkzykWE8xTPFoFuU9NqR8QQSCpVRAGGONtJY6CWVJUps/bXNe1jj4qqBgt8bJMLqiA+GpkFlZCN8sWyFHqxc+Fd0MG6MWt80L4zxUpXtIPustT8MGZKwjxtcLBj8olqb//I/Wyc8sc4ssrGybdSKyr+a5YDs9wX+kQTnJZ1Lol04VEDvKHNvhyRCwcOMoRfdJg3+JdiV+Nb6K0dBryTNH88jDWERwXnTw==);strokeColor=none;spacingTop=-3;spacingBottom=-3;spacingLeft=-3;spacingRight=-3;points=[];labelBackgroundColor=none;rounded=0;html=1;whiteSpace=wrap;" parent="CJAz3a5iVs_dnIX_Vtv_-98" vertex="1">
          <mxGeometry x="21" y="27" width="54" height="33" as="geometry" />
        </mxCell>
        <mxCell id="CJAz3a5iVs_dnIX_Vtv_-101" style="vsdxID=1099;fillColor=#FFFFFF;gradientColor=none;shape=stencil(xVTbcoMgEP0aHt1BFgM8p+l/MAkqUysOmsb8fbSgkXTSmT5k+raXs5zD7gLBfV/rzhBG+8G7D3Oxp6Em+EYYs21tvB0mi+CB4L503lTendtT8Ds9I2fr033NJ4yhjoFUcxGj1xDIKf323wNa++OU8ytaRLSPcA4KQyRCKEhMDlQSeBEhmR5tn3k36MG6NhaEXKN9ZbKJLisbXSWp/mJMtwnnvwrER4GSpQJTdRxE/jp1x7MP3c5jEnaRPgZQAOWRn8U7cKAyolhCNWJwCwp0aTJuEU9YRQFKpLw05dwMaeHcKsN0N1bWe/eeTYP/mEa6LkoBY/+5L1KkCou1+YtCAfkuUbi24RX6Gtv+4XlOxv1ll7ZpwsewzT/+BFMo/CJ4uAE=);strokeColor=none;spacingTop=-3;spacingBottom=-3;spacingLeft=-3;spacingRight=-3;points=[];labelBackgroundColor=none;rounded=0;html=1;whiteSpace=wrap;" parent="CJAz3a5iVs_dnIX_Vtv_-98" vertex="1">
          <mxGeometry x="24" y="30" width="48" height="27" as="geometry" />
        </mxCell>
        <mxCell id="CJAz3a5iVs_dnIX_Vtv_-102" style="vsdxID=1100;fillColor=#9cebff;gradientColor=none;shape=stencil(rVLREoIgEPwaHmVQVPS57D+YRGUicQ5K+/swtKLG6aW3u929O5Y7RHem44NACTEW9EmMsrYdonuUJLLvBEjrIkQrRHeNBtGCvvS1zwc+K+forK9zh8nXxYTMNQm5+TylmOUP5ODlHI6OhVWes5UnsJTELMaFhxZV2HLJpohP0kSgLbdS9wGnOLQicqOiRvE2oMwoxPAFL49TshdbY1mJ82zbSZlhRkMjZYEJDYykOc6KoOvzv/5kJ96283M1LnittZFK+at45z/PwEH+hGh1Bw==);strokeColor=none;spacingTop=-3;spacingBottom=-3;spacingLeft=-3;spacingRight=-3;points=[];labelBackgroundColor=none;rounded=0;html=1;whiteSpace=wrap;" parent="CJAz3a5iVs_dnIX_Vtv_-98" vertex="1">
          <mxGeometry x="49" y="33" width="11" height="11" as="geometry" />
        </mxCell>
        <mxCell id="CJAz3a5iVs_dnIX_Vtv_-103" style="vsdxID=1101;fillColor=#50e6ff;gradientColor=none;shape=stencil(rVLLDoMgEPwajhIePuq5tf9BKiopFbPSav++WDQVE9tLb8vM7C4Dg/ixb0QnESO9BXOVgyptg/gJMabaRoKyrkK8QPxYGZA1mHtb+nMnJuVU3cxjmjD6PjJ1MPL0p5jjNH4jZy/Wql2JE0fzoIESspYLuDgOZnlOce7VMMvzGHPmoTEcsAzMcnxYFJEYVR+BscIq0wb31QJqGbl1UaVFHVD9IGW3gum+n+3yL15omuEsDt3QjGGaBHb2nvNfZsi+mR8/6YpPBiqltY/Qmt9mxkE+b7x4AQ==);strokeColor=none;spacingTop=-3;spacingBottom=-3;spacingLeft=-3;spacingRight=-3;points=[];labelBackgroundColor=none;rounded=0;html=1;whiteSpace=wrap;" parent="CJAz3a5iVs_dnIX_Vtv_-98" vertex="1">
          <mxGeometry x="35" y="33" width="11" height="11" as="geometry" />
        </mxCell>
        <mxCell id="CJAz3a5iVs_dnIX_Vtv_-104" style="vsdxID=1102;fillColor=#9cebff;gradientColor=none;shape=stencil(rVLLEoIwDPyaHumkjYicffxHRwt0rJQJVfHvLZZR6uh48ZZkN9nsJAzXfaM6zST0ntxRX83BNww3TErTNpqMDxHDLcN15UjX5M7tIeadGpljdHKXccIQ+2DskHCLWY58gY/KLpIV7QNKE1mA5BBxoKmlXHCxiqWJJYHLIhkrYJIZMjWYPiPnlTeuTVawimqdBcGssqpOoP6qdTcri/mK1rQzP0+pN+nPflYFxzL1IwrJyyIxlC95jsnU/9qB73Z+nCcEr8NWxtr4F3P8/RFCKT4Rbu8=);strokeColor=none;spacingTop=-3;spacingBottom=-3;spacingLeft=-3;spacingRight=-3;points=[];labelBackgroundColor=none;rounded=0;html=1;whiteSpace=wrap;" parent="CJAz3a5iVs_dnIX_Vtv_-98" vertex="1">
          <mxGeometry x="57" y="40" width="11" height="12" as="geometry" />
        </mxCell>
        <mxCell id="CJAz3a5iVs_dnIX_Vtv_-105" style="vsdxID=1103;fillColor=#32bedd;gradientColor=none;shape=stencil(rVLLDsIgEPwajiUUrJWz1v8gSlsilmZBrX8vBKtF23gx4bCP2VkGBrGtbUUvESXWgTnJmzq6FrEdolR1rQTlfIRYhdi2NiAbMJfuGPNeBGSIzuYaGIY4lxMSZii5x7xgOKT+7CNcq24CXzG85skAmYIFHHwHRu7NCpd5RMMTnpcEF7E0TAlGutd9hkwMymZgnHDKdAlWC2hk5pdltRZN0rI3Kfuv8qyWko83+dg9L4ZQzHkqhheYlImY5ef8l6B8WdDPv/TB2we10jraaNr/9I0vRc+x6gE=);strokeColor=none;spacingTop=-3;spacingBottom=-3;spacingLeft=-3;spacingRight=-3;points=[];labelBackgroundColor=none;rounded=0;html=1;whiteSpace=wrap;" parent="CJAz3a5iVs_dnIX_Vtv_-98" vertex="1">
          <mxGeometry x="28" y="40" width="11" height="12" as="geometry" />
        </mxCell>
        <mxCell id="CJAz3a5iVs_dnIX_Vtv_-106" style="vsdxID=1104;fillColor=#32bedd;gradientColor=none;shape=stencil(vVLRDoIwDPyaPbLAijCeFf9j0QGLk5EyFf/e4SAyjfpg4lt7d23X7gis+0Z0krC4t2gO8qL2tiGwIYyptpGorIsIlATWlUFZozm1e593YlSO0dGcxw6Dr0vieKxh8XXOKRR3ZOvlAneOxUle0BS8HucCThPuoUnDc8p50HQaMURiUH2ExgqrTBtwWmAtIzcsqrSoA6q/SNm9wNPztGoX24S7ZDldwXtxRnN42v1D6yKlWRLIgdE0/+1U76//h2N9/XoXPGxTKa2965b8s80c5C0K5Q0=);strokeColor=none;spacingTop=-3;spacingBottom=-3;spacingLeft=-3;spacingRight=-3;points=[];labelBackgroundColor=none;rounded=0;html=1;whiteSpace=wrap;" parent="CJAz3a5iVs_dnIX_Vtv_-98" vertex="1">
          <mxGeometry x="50" y="44" width="14" height="7" as="geometry" />
        </mxCell>
        <mxCell id="CJAz3a5iVs_dnIX_Vtv_-107" style="vsdxID=1105;fillColor=#767676;gradientColor=none;shape=stencil(vVHLDsIgEPwajiQI6RfU+h8bu22JCGRB2/69kG1iazx58DazM/vIjjBtmiCi0CplCjecbZ8nYc5Ca+snJJsLEqYTph0C4Ujh4XvmEaqzont41gkL96naodXKrGF6YSfQtUi0OXXDVlqPfJNP6usotUhYbJIUMmQb/GGrAxpRljVycDBuc1hKM2LclX8/7H9nFfB+82Cd45T2+mcspcSRmu4F);strokeColor=none;spacingTop=-3;spacingBottom=-3;spacingLeft=-3;spacingRight=-3;points=[];labelBackgroundColor=none;rounded=0;html=1;whiteSpace=wrap;" parent="CJAz3a5iVs_dnIX_Vtv_-98" vertex="1">
          <mxGeometry x="44" y="47" width="7" height="7" as="geometry" />
        </mxCell>
        <UserObject label="&lt;div style=&quot;font-size: 1px&quot;&gt;&lt;font style=&quot;font-size:25.4px;font-family:Calibri;color:#000000;direction:ltr;letter-spacing:0px;line-height:120%;opacity:1&quot;&gt;&lt;div style=&quot;font-family: &amp;quot;Segoe UI Semibold&amp;quot;; font-size: 25px;&quot;&gt;Azure&lt;/div&gt;&lt;div style=&quot;font-family: &amp;quot;Segoe UI Semibold&amp;quot;; font-size: 25px;&quot;&gt;Monitor&lt;/div&gt;&lt;/font&gt;&lt;/div&gt;" tags="Background" id="CJAz3a5iVs_dnIX_Vtv_-108">
          <mxCell style="verticalAlign=middle;align=center;overflow=width;vsdxID=1106;fillColor=none;gradientColor=none;shape=stencil(nZBLDoAgDERP0z3SIyjew0SURgSD+Lu9kMZoXLhwN9O+tukAlrNpJg1SzDH4QW/URgNYgZTkjA4UkwJUgGXng+6DX1zLfmoymdXo17xh5zmRJ6Q42BWCfc2oJfdAr+Yv+AP9Cb7OJ3H/2JG1HNGz/84klThPVCc=);strokeColor=none;points=[];labelBackgroundColor=none;rounded=0;html=1;whiteSpace=wrap;" parent="1" vertex="1">
            <mxGeometry x="591" y="681" width="152" height="60" as="geometry" />
          </mxCell>
        </UserObject>
        <UserObject label="&lt;div style=&quot;font-size: 1px&quot;&gt;&lt;font style=&quot;font-size:25.4px;font-family:Calibri;color:#000000;direction:ltr;letter-spacing:0px;line-height:120%;opacity:1&quot;&gt;&lt;div style=&quot;font-family: &amp;quot;Segoe UI Semibold&amp;quot;; font-size: 25px;&quot;&gt;Azure Cost&lt;/div&gt;&lt;div style=&quot;font-family: &amp;quot;Segoe UI Semibold&amp;quot;; font-size: 25px;&quot;&gt;Management&lt;/div&gt;&lt;/font&gt;&lt;/div&gt;" tags="Background" id="CJAz3a5iVs_dnIX_Vtv_-109">
          <mxCell style="verticalAlign=middle;align=center;overflow=width;vsdxID=1107;fillColor=none;gradientColor=none;shape=stencil(nZBLDoAgDERP0z3SIyjew0SURgSD+Lu9kMZoXLhwN9O+tukAlrNpJg1SzDH4QW/URgNYgZTkjA4UkwJUgGXng+6DX1zLfmoymdXo17xh5zmRJ6Q42BWCfc2oJfdAr+Yv+AP9Cb7OJ3H/2JG1HNGz/84klThPVCc=);strokeColor=none;points=[];labelBackgroundColor=none;rounded=0;html=1;whiteSpace=wrap;" parent="1" vertex="1">
            <mxGeometry x="715" y="679" width="200" height="60" as="geometry" />
          </mxCell>
        </UserObject>
        <UserObject label="&lt;div style=&quot;font-size: 1px&quot;&gt;&lt;/div&gt;" tags="Background" id="CJAz3a5iVs_dnIX_Vtv_-110">
          <mxCell style="verticalAlign=middle;align=center;overflow=width;vsdxID=1108;fillColor=#f2f2f2;gradientColor=none;shape=stencil(nZBLDoAgDERP0z3SIyjew0SURgSD+Lu9kMZoXLhwN9O+tukAlrNpJg1SzDH4QW/URgNYgZTkjA4UkwJUgGXng+6DX1zLfmoymdXo17xh5zmRJ6Q42BWCfc2oJfdAr+Yv+AP9Cb7OJ3H/2JG1HNGz/84klThPVCc=);strokeColor=none;spacingTop=-3;spacingBottom=-3;spacingLeft=-3;spacingRight=-3;points=[[0,0.5,0]];labelBackgroundColor=none;rounded=0;html=1;whiteSpace=wrap;" parent="1" vertex="1">
            <mxGeometry x="411" y="181" width="80" height="260" as="geometry" />
          </mxCell>
        </UserObject>
        <UserObject label="" tags="Background" id="CJAz3a5iVs_dnIX_Vtv_-112">
          <mxCell style="vsdxID=1110;fillColor=none;gradientColor=none;strokeColor=none;spacingTop=-3;spacingBottom=-3;spacingLeft=-3;spacingRight=-3;points=[];labelBackgroundColor=none;rounded=0;html=1;whiteSpace=wrap;" parent="1" vertex="1">
            <mxGeometry x="431" y="190" width="40" height="37" as="geometry" />
          </mxCell>
        </UserObject>
        <mxCell id="CJAz3a5iVs_dnIX_Vtv_-113" style="vsdxID=1111;fillColor=none;gradientColor=none;strokeColor=none;spacingTop=-3;spacingBottom=-3;spacingLeft=-3;spacingRight=-3;points=[];labelBackgroundColor=none;rounded=0;html=1;whiteSpace=wrap;" parent="CJAz3a5iVs_dnIX_Vtv_-112" vertex="1">
          <mxGeometry width="9" height="37" as="geometry" />
        </mxCell>
        <mxCell id="CJAz3a5iVs_dnIX_Vtv_-114" style="vsdxID=1112;fillColor=#949494;gradientColor=none;shape=stencil(vVXLcsMgDPwaH61BYAyc0/Q/PA1JPHXtDHab9O+Li9tEkHBpmhuWVsi76FGI1bhvDrbgbJzc8GqP7WbaF+Kp4Lzt99a1kz8VYl2I1XZwdueG934Tvg/NjJxPb8PHfMMpxLE5grPP8KUVmG/Dc8A27sU73YIVUAcvcwuegZHBskAQTE1v1KCWoFPZnNqxdMPUTO3Qk/xd43a29OnKbdfsiGs8WntIzMsPdm1/QUYwmH0X6Q0HLW8HKA2sogEGDN6WoALBqQQIiEQCLUDFV0rxKAl8MqVjCSTPPaqJGRE6RgOnT2oQePUoPhUHpHJ6fTHzQr5IZVKkglCqkjLR/NdyJ0qYoZSkRwU6S6lSMSVtKKVEJqzBqEdRSotER30XtxFWcRuxmtZdUsgKJN6VUKbskiZmIOs/8UlHDTtD/p1PJvv1Ser/3xB8/TPZr+KTuY9+LoqsYMkcZXSV0M2EHNh9OzSjVn4p+sN5m27brgvL+NIfb19vCptbrL8A);strokeColor=none;spacingTop=-3;spacingBottom=-3;spacingLeft=-3;spacingRight=-3;points=[];labelBackgroundColor=none;rounded=0;html=1;whiteSpace=wrap;" parent="CJAz3a5iVs_dnIX_Vtv_-113" vertex="1">
          <mxGeometry width="9" height="37" as="geometry" />
        </mxCell>
        <mxCell id="CJAz3a5iVs_dnIX_Vtv_-115" style="vsdxID=1113;fillColor=#a3a3a3;gradientColor=none;shape=stencil(vVTLcoMwDPwaH9H4CfY5Tf/D0xjwlGLG0Cb9+5q6nmAC9JabLO2upJ2RETuNrR4MonicvHs3V3uZWsReEKW2b423U4gQOyN2qp03jXef/SW+Bz0j5+jDfc0Kt8hjCkQ1syj+jhmC8e/7NcI72y/gnAChGVxVUPF9gpJAyowgMJRiSdD+LVR9GghElMM+EYD8TZg0FSiWaXIGMmEKfbNj4d2kJ+v6WI8b4U77xhShX1F3uslK49WY4SG9vdJB+02CZGuPQ+LYAvZgQZlZUMn1DPhZ6++13gQzDErkXh2gSbIlgUsORO0bdccnoyjQ3Cic65XAxbOMCsMQkrWXHOTBrfx7iyG433Ftuy5+A8v6+u5DKv4Z7PwD);strokeColor=none;spacingTop=-3;spacingBottom=-3;spacingLeft=-3;spacingRight=-3;points=[];labelBackgroundColor=none;rounded=0;html=1;whiteSpace=wrap;" parent="CJAz3a5iVs_dnIX_Vtv_-113" vertex="1">
          <mxGeometry width="9" height="6" as="geometry" />
        </mxCell>
        <mxCell id="CJAz3a5iVs_dnIX_Vtv_-116" style="vsdxID=1114;fillColor=#a3a3a3;gradientColor=none;shape=stencil(vZRhT4QwDIZ/zT7SbCuD8fk8/8fiDVhEdhnonf/e4eCkKEYT47fSt2+bPktheBhac7ZM8mEM/tFe3GlsGd4xKV3f2uDGGDE8MjzUPtgm+Of+lL7PZqqcoif/MnW4Jl+lQarJJflryuQVFPI9c58MnetXhlxAURIDgtDrehMeohiWehBz/zDXF8BT/6UlVlAJ0pLPemaubsiCH83ofE+0zoTGZnFWVnemIdJwsfa8Sov9bTjdREGB+8UCUP6mXkaSdC+lQat9Q6mhRGKYnqfah4uLeoObQ1kSuBpvmU89/wow31/pu/FfQ+Z8i4w+4JbAQmwhoCAXhEAcyClVJUDhfxH4wYXF4OM+a9d16bzX+vaeYyr9C/D4Bg==);strokeColor=none;spacingTop=-3;spacingBottom=-3;spacingLeft=-3;spacingRight=-3;points=[];labelBackgroundColor=none;rounded=0;html=1;whiteSpace=wrap;" parent="CJAz3a5iVs_dnIX_Vtv_-113" vertex="1">
          <mxGeometry y="31" width="9" height="6" as="geometry" />
        </mxCell>
        <mxCell id="CJAz3a5iVs_dnIX_Vtv_-117" style="vsdxID=1115;fillColor=#949494;gradientColor=none;shape=stencil(vVXLcsMgDPwaH63hYQyc2/Q/mIYkTF07g90m/fviQhIDNb2kuQFaJHYlpIo+jQd11BVB42SHN30y2+lQ0eeKENMftDWTW1V0U9Gn3WD13g4f/dbvj2pGzqv34XP2cPb3MELzHYK+/F5wEPLn5MXDlX11VhvgFLiH24BHIJk/CQgpADWxSwFcBEytzmas7TCpyQx9cOFtnbJ7Xbtw9a5T+8g0nrQ+Lo7x8oGd6Rd8WnkNFsJLAoKtXyAYZBtfkCDxugQNUBJrgAHjSAPcAk1dMvooCRAQkirACoQoyIRPTAZ4nE+JgTyMDHP1GGsp6EXulfRk2UEiIsSyEhEErqTvwwgVGGXhMQfelvLTZJ8u/NF1lVwJSvIoSlmJiOTLpSnCWYriJpKVMAd2XzaFkst+LwJWSI9j02R02ohO3mPQDfLvfArRf2+h4tLkA7wtNtC84WMnACnVM08EQ9cHrkwl5/HO1VzK/18j0S1u43Rnus5P46U9Hb/uyI9uuvkG);strokeColor=none;spacingTop=-3;spacingBottom=-3;spacingLeft=-3;spacingRight=-3;points=[];labelBackgroundColor=none;rounded=0;html=1;whiteSpace=wrap;" parent="CJAz3a5iVs_dnIX_Vtv_-112" vertex="1">
          <mxGeometry x="30" width="9" height="37" as="geometry" />
        </mxCell>
        <mxCell id="CJAz3a5iVs_dnIX_Vtv_-118" style="vsdxID=1116;fillColor=#a3a3a3;gradientColor=none;shape=stencil(tZRNcoMwDIVPwxKNbfl3nab38CQOeEohY0iT3r5QMy0KIV11Z0vfs6xnRIG7vvbnUAjWD6l7C9d4HOoCXwohYluHFIdxVeC+wN2pS6FK3aU95v3ZT+S0eu8+phNuWacZSD2pBPvMEc7Y9/41401sF7iy4ATBnQGD2wIODgmvGFi+5H06jNk08wiYsyzNAglW5ciMMOD0xlICm0W30t9iX6Zu8EPs2lmQc41PVSjHcuWp8RVJ9dcQzoswueDhkrJjfFWfry8gVpBYQ7iC8B567KYGxUnvCEo/c1MhdVMBN8TN8YW4Ikey/7OSdrNV+iGsHTBLW3cg7bbAWZD0dI1g1BNz5w//B9fAxDZuDDj6FlaCNE86+GvUxsXvmJ5i0+QpX+bvx3oM5V8C7r8A);strokeColor=none;spacingTop=-3;spacingBottom=-3;spacingLeft=-3;spacingRight=-3;points=[];labelBackgroundColor=none;rounded=0;html=1;whiteSpace=wrap;" parent="CJAz3a5iVs_dnIX_Vtv_-112" vertex="1">
          <mxGeometry x="30" width="9" height="6" as="geometry" />
        </mxCell>
        <mxCell id="CJAz3a5iVs_dnIX_Vtv_-119" style="vsdxID=1117;fillColor=#a3a3a3;gradientColor=none;shape=stencil(vZTdcoMgEIWfhkt3+A1wnabvwSSoTKk4aJrk7YvFTsXG9CbTu2XPt8vskRWx/dCa3iKKhzGGN3txp7FF7AVR6rrWRjemCLEDYvs6RNvEcO5O+dybiZyi9/AxdbjmOgp0qqH4ls9cg/xKvGbau25BCwWi5BkQveRNPCYxfvPAczccZ16CVjkzIzsMVBYt8axX5uqGKobRjC50heZNbGyV7qpqb5pCGi7W9r/Sd6chGJezCNipp+GSgOJFQXJP8+2C9C1kaa5WwMW2uwy4Lt0VQApziQS50fFZ/pIHhm3ffp8HIdaGsUfj09Xj4iBlMf/m6/6H6f/arBT8LGXtvM87vdTXS5xS+QfADp8=);strokeColor=none;spacingTop=-3;spacingBottom=-3;spacingLeft=-3;spacingRight=-3;points=[];labelBackgroundColor=none;rounded=0;html=1;whiteSpace=wrap;" parent="CJAz3a5iVs_dnIX_Vtv_-112" vertex="1">
          <mxGeometry x="30" y="31" width="9" height="6" as="geometry" />
        </mxCell>
        <mxCell id="CJAz3a5iVs_dnIX_Vtv_-120" style="vsdxID=1118;fillColor=#32bedd;gradientColor=none;shape=stencil(lZFRCsIwEERPs78lZrAeoNZ7FJqaxZiUNFq9vQmLaAWl/s1s3izLhNBMthsNaTWlGE5m5j5Zwp60Zm9N5JQVoSU0Q4jmGMPF9+LHrpBFncO1bLhJbqNUyWh1Fy/uIKhj/wOt62q7+44v4Wd4BQpUwPoz/rh4gWbxKmVg56TT9/fPEvNIPgDtAw==);strokeColor=none;spacingTop=-3;spacingBottom=-3;spacingLeft=-3;spacingRight=-3;points=[];labelBackgroundColor=none;rounded=0;html=1;whiteSpace=wrap;" parent="CJAz3a5iVs_dnIX_Vtv_-112" vertex="1">
          <mxGeometry x="19" y="11" width="12" height="21" as="geometry" />
        </mxCell>
        <mxCell id="CJAz3a5iVs_dnIX_Vtv_-121" style="vsdxID=1119;fillColor=#9cebff;gradientColor=none;shape=stencil(UzV2Ls5ILEhVNTIoLinKz04tz0wpyVA1dlE1MsrMy0gtyiwBslSNXVWNndPyi1LTi/JL81Ig/IJEkEoQKze/DGRCBUSfoYEBSI+RQSWEbwrhukHU5mTmIak1NdAzMEFRDdONVTklBuNRTIqL8asFMhDBkpaZkwMJVWR59GAECkGiwNgVAA==);strokeColor=none;spacingTop=-3;spacingBottom=-3;spacingLeft=-3;spacingRight=-3;points=[];labelBackgroundColor=none;rounded=0;html=1;whiteSpace=wrap;" parent="CJAz3a5iVs_dnIX_Vtv_-112" vertex="1">
          <mxGeometry x="7" y="4" width="25" height="14" as="geometry" />
        </mxCell>
        <mxCell id="CJAz3a5iVs_dnIX_Vtv_-122" style="vsdxID=1120;fillColor=#50e6ff;gradientColor=none;shape=stencil(UzV2Ls5ILEhVNTIoLinKz04tz0wpyVA1dlE1MsrMy0gtyiwBslSNXVWNndPyi1LTi/JL81Ig/IJEkEoQKze/DGRCBUSfoYEBSI+RQSWEb2ysZ2oMFnGDKM/JzMOjHMbHqhhVqZmZnqk5sYrxmEqhizGUAxmIwEnLzMmBhC2yPHpgAoUgEWHsCgA=);strokeColor=none;spacingTop=-3;spacingBottom=-3;spacingLeft=-3;spacingRight=-3;points=[];labelBackgroundColor=none;rounded=0;html=1;whiteSpace=wrap;" parent="CJAz3a5iVs_dnIX_Vtv_-112" vertex="1">
          <mxGeometry x="7" y="11" width="12" height="21" as="geometry" />
        </mxCell>
        <mxCell id="CJAz3a5iVs_dnIX_Vtv_-123" style="vsdxID=1121;fillColor=#9cebff;gradientColor=none;shape=stencil(UzV2Ls5ILEhVNTIoLinKz04tz0wpyVA1dlE1MsrMy0gtyiwBslSNXVWNndPyi1LTi/JL81Ig/IJEkEoQKze/DGRCBUSfAUiHkUElhGdiqWdhBhZxgyjOycxDUmxogKrcgHilMD5WxSQ5goBiIAPh17TMnBxIUCHLo4cNUAgSrsauAA==);strokeColor=none;spacingTop=-3;spacingBottom=-3;spacingLeft=-3;spacingRight=-3;points=[];labelBackgroundColor=none;rounded=0;html=1;whiteSpace=wrap;" parent="CJAz3a5iVs_dnIX_Vtv_-112" vertex="1">
          <mxGeometry x="7" y="18" width="12" height="14" as="geometry" />
        </mxCell>
        <mxCell id="CJAz3a5iVs_dnIX_Vtv_-124" style="vsdxID=1122;fillColor=#50e6ff;gradientColor=none;shape=stencil(UzV2Ls5ILEhVNTIoLinKz04tz0wpyVA1dlE1MsrMy0gtyiwBslSNXVWNndPyi1LTi/JL81Ig/IJEkEoQKze/DGRCBUSfoYEBSI+RQSWEb2KpZ2EGFnGDKM/JzENSjqrYgFiFMFuwKiXRCQSVAxkI36Zl5uRAAgtZHj10gEKQkDV2BQA=);strokeColor=none;spacingTop=-3;spacingBottom=-3;spacingLeft=-3;spacingRight=-3;points=[];labelBackgroundColor=none;rounded=0;html=1;whiteSpace=wrap;" parent="CJAz3a5iVs_dnIX_Vtv_-112" vertex="1">
          <mxGeometry x="19" y="18" width="12" height="14" as="geometry" />
        </mxCell>
        <UserObject label="&lt;div style=&quot;font-size: 1px&quot;&gt;&lt;/div&gt;" tags="Background" id="CJAz3a5iVs_dnIX_Vtv_-125">
          <mxCell style="verticalAlign=middle;align=center;overflow=width;vsdxID=1123;fillColor=#f2f2f2;gradientColor=none;shape=stencil(nZBLDoAgDERP0z3SIyjew0SURgSD+Lu9kMZoXLhwN9O+tukAlrNpJg1SzDH4QW/URgNYgZTkjA4UkwJUgGXng+6DX1zLfmoymdXo17xh5zmRJ6Q42BWCfc2oJfdAr+Yv+AP9Cb7OJ3H/2JG1HNGz/84klThPVCc=);strokeColor=none;spacingTop=-3;spacingBottom=-3;spacingLeft=-3;spacingRight=-3;points=[[0,0.5,0]];labelBackgroundColor=none;rounded=0;html=1;whiteSpace=wrap;" parent="1" vertex="1">
            <mxGeometry x="511" y="181" width="80" height="260" as="geometry" />
          </mxCell>
        </UserObject>
        <UserObject label="&lt;div style=&quot;font-size: 1px&quot;&gt;&lt;font style=&quot;font-size:22.58px;font-family:Themed;color:#000000;direction:ltr;letter-spacing:0px;line-height:120%;opacity:1&quot;&gt;&lt;span style=&quot;font-family: &amp;quot;Segoe UI Semibold&amp;quot;; font-size: 22px;&quot;&gt;Resource Group(s)&lt;/span&gt;&lt;br&gt;&lt;/font&gt;&lt;/div&gt;" tags="Background" id="CJAz3a5iVs_dnIX_Vtv_-126">
          <mxCell style="verticalAlign=middle;align=center;overflow=width;vsdxID=1124;rotation=90;fillColor=none;gradientColor=none;shape=stencil(nZBLDoAgDERP0z3SIyjew0SURgSD+Lu9kMZoXLhwN9O+tukAlrNpJg1SzDH4QW/URgNYgZTkjA4UkwJUgGXng+6DX1zLfmoymdXo17xh5zmRJ6Q42BWCfc2oJfdAr+Yv+AP9Cb7OJ3H/2JG1HNGz/84klThPVCc=);strokeColor=none;points=[];labelBackgroundColor=none;rounded=0;html=1;whiteSpace=wrap;" parent="1" vertex="1">
            <mxGeometry x="441" y="299" width="220" height="62" as="geometry" />
          </mxCell>
        </UserObject>
        <UserObject label="" tags="Background" id="CJAz3a5iVs_dnIX_Vtv_-127">
          <mxCell style="vsdxID=1125;fillColor=none;gradientColor=none;strokeColor=none;spacingTop=-3;spacingBottom=-3;spacingLeft=-3;spacingRight=-3;points=[];labelBackgroundColor=none;rounded=0;html=1;whiteSpace=wrap;" parent="1" vertex="1">
            <mxGeometry x="531" y="190" width="40" height="37" as="geometry" />
          </mxCell>
        </UserObject>
        <mxCell id="CJAz3a5iVs_dnIX_Vtv_-128" style="vsdxID=1126;fillColor=none;gradientColor=none;strokeColor=none;spacingTop=-3;spacingBottom=-3;spacingLeft=-3;spacingRight=-3;points=[];labelBackgroundColor=none;rounded=0;html=1;whiteSpace=wrap;" parent="CJAz3a5iVs_dnIX_Vtv_-127" vertex="1">
          <mxGeometry width="9" height="37" as="geometry" />
        </mxCell>
        <mxCell id="CJAz3a5iVs_dnIX_Vtv_-129" style="vsdxID=1127;fillColor=#949494;gradientColor=none;shape=stencil(vVXLcsMgDPwaH61BYAyc0/Q/PA1JPHXtDHab9O+Li9tEkHBpmhuWVsi76FGI1bhvDrbgbJzc8GqP7WbaF+Kp4Lzt99a1kz8VYl2I1XZwdueG934Tvg/NjJxPb8PHfMMpxLE5grPP8KUVmG/Dc8A27sU73YIVUAcvcwuegZHBskAQTE1v1KCWoFPZnNqxdMPUTO3Qk/xd43a29OnKbdfsiGs8WntIzMsPdm1/QUYwmH0X6Q0HLW8HKA2sogEGDN6WoALBqQQIiEQCLUDFV0rxKAl8MqVjCSTPPaqJGRE6RgOnT2oQePUoPhUHpHJ6fTHzQr5IZVKkglCqkjLR/NdyJ0qYoZSkRwU6S6lSMSVtKKVEJqzBqEdRSotER30XtxFWcRuxmtZdUsgKJN6VUKbskiZmIOs/8UlHDTtD/p1PJvv1Ser/3xB8/TPZr+KTuY9+LoqsYMkcZXSV0M2EHNh9OzSjVn4p+sN5m27brgvL+NIfb19vCptbrL8A);strokeColor=none;spacingTop=-3;spacingBottom=-3;spacingLeft=-3;spacingRight=-3;points=[];labelBackgroundColor=none;rounded=0;html=1;whiteSpace=wrap;" parent="CJAz3a5iVs_dnIX_Vtv_-128" vertex="1">
          <mxGeometry width="9" height="37" as="geometry" />
        </mxCell>
        <mxCell id="CJAz3a5iVs_dnIX_Vtv_-130" style="vsdxID=1128;fillColor=#a3a3a3;gradientColor=none;shape=stencil(vVTLcoMwDPwaH9H4CfY5Tf/D0xjwlGLG0Cb9+5q6nmAC9JabLO2upJ2RETuNrR4MonicvHs3V3uZWsReEKW2b423U4gQOyN2qp03jXef/SW+Bz0j5+jDfc0Kt8hjCkQ1syj+jhmC8e/7NcI72y/gnAChGVxVUPF9gpJAyowgMJRiSdD+LVR9GghElMM+EYD8TZg0FSiWaXIGMmEKfbNj4d2kJ+v6WI8b4U77xhShX1F3uslK49WY4SG9vdJB+02CZGuPQ+LYAvZgQZlZUMn1DPhZ6++13gQzDErkXh2gSbIlgUsORO0bdccnoyjQ3Cic65XAxbOMCsMQkrWXHOTBrfx7iyG433Ftuy5+A8v6+u5DKv4Z7PwD);strokeColor=none;spacingTop=-3;spacingBottom=-3;spacingLeft=-3;spacingRight=-3;points=[];labelBackgroundColor=none;rounded=0;html=1;whiteSpace=wrap;" parent="CJAz3a5iVs_dnIX_Vtv_-128" vertex="1">
          <mxGeometry width="9" height="6" as="geometry" />
        </mxCell>
        <mxCell id="CJAz3a5iVs_dnIX_Vtv_-131" style="vsdxID=1129;fillColor=#a3a3a3;gradientColor=none;shape=stencil(vZRhT4QwDIZ/zT7SbCuD8fk8/8fiDVhEdhnonf/e4eCkKEYT47fSt2+bPktheBhac7ZM8mEM/tFe3GlsGd4xKV3f2uDGGDE8MjzUPtgm+Of+lL7PZqqcoif/MnW4Jl+lQarJJflryuQVFPI9c58MnetXhlxAURIDgtDrehMeohiWehBz/zDXF8BT/6UlVlAJ0pLPemaubsiCH83ofE+0zoTGZnFWVnemIdJwsfa8Sov9bTjdREGB+8UCUP6mXkaSdC+lQat9Q6mhRGKYnqfah4uLeoObQ1kSuBpvmU89/wow31/pu/FfQ+Z8i4w+4JbAQmwhoCAXhEAcyClVJUDhfxH4wYXF4OM+a9d16bzX+vaeYyr9C/D4Bg==);strokeColor=none;spacingTop=-3;spacingBottom=-3;spacingLeft=-3;spacingRight=-3;points=[];labelBackgroundColor=none;rounded=0;html=1;whiteSpace=wrap;" parent="CJAz3a5iVs_dnIX_Vtv_-128" vertex="1">
          <mxGeometry y="31" width="9" height="6" as="geometry" />
        </mxCell>
        <mxCell id="CJAz3a5iVs_dnIX_Vtv_-132" style="vsdxID=1130;fillColor=#949494;gradientColor=none;shape=stencil(vVXLcsMgDPwaH63hYQyc2/Q/mIYkTF07g90m/fviQhIDNb2kuQFaJHYlpIo+jQd11BVB42SHN30y2+lQ0eeKENMftDWTW1V0U9Gn3WD13g4f/dbvj2pGzqv34XP2cPb3MELzHYK+/F5wEPLn5MXDlX11VhvgFLiH24BHIJk/CQgpADWxSwFcBEytzmas7TCpyQx9cOFtnbJ7Xbtw9a5T+8g0nrQ+Lo7x8oGd6Rd8WnkNFsJLAoKtXyAYZBtfkCDxugQNUBJrgAHjSAPcAk1dMvooCRAQkirACoQoyIRPTAZ4nE+JgTyMDHP1GGsp6EXulfRk2UEiIsSyEhEErqTvwwgVGGXhMQfelvLTZJ8u/NF1lVwJSvIoSlmJiOTLpSnCWYriJpKVMAd2XzaFkst+LwJWSI9j02R02ohO3mPQDfLvfArRf2+h4tLkA7wtNtC84WMnACnVM08EQ9cHrkwl5/HO1VzK/18j0S1u43Rnus5P46U9Hb/uyI9uuvkG);strokeColor=none;spacingTop=-3;spacingBottom=-3;spacingLeft=-3;spacingRight=-3;points=[];labelBackgroundColor=none;rounded=0;html=1;whiteSpace=wrap;" parent="CJAz3a5iVs_dnIX_Vtv_-127" vertex="1">
          <mxGeometry x="30" width="9" height="37" as="geometry" />
        </mxCell>
        <mxCell id="CJAz3a5iVs_dnIX_Vtv_-133" style="vsdxID=1131;fillColor=#a3a3a3;gradientColor=none;shape=stencil(tZRNcoMwDIVPwxKNbfl3nab38CQOeEohY0iT3r5QMy0KIV11Z0vfs6xnRIG7vvbnUAjWD6l7C9d4HOoCXwohYluHFIdxVeC+wN2pS6FK3aU95v3ZT+S0eu8+phNuWacZSD2pBPvMEc7Y9/41401sF7iy4ATBnQGD2wIODgmvGFi+5H06jNk08wiYsyzNAglW5ciMMOD0xlICm0W30t9iX6Zu8EPs2lmQc41PVSjHcuWp8RVJ9dcQzoswueDhkrJjfFWfry8gVpBYQ7iC8B567KYGxUnvCEo/c1MhdVMBN8TN8YW4Ikey/7OSdrNV+iGsHTBLW3cg7bbAWZD0dI1g1BNz5w//B9fAxDZuDDj6FlaCNE86+GvUxsXvmJ5i0+QpX+bvx3oM5V8C7r8A);strokeColor=none;spacingTop=-3;spacingBottom=-3;spacingLeft=-3;spacingRight=-3;points=[];labelBackgroundColor=none;rounded=0;html=1;whiteSpace=wrap;" parent="CJAz3a5iVs_dnIX_Vtv_-127" vertex="1">
          <mxGeometry x="30" width="9" height="6" as="geometry" />
        </mxCell>
        <mxCell id="CJAz3a5iVs_dnIX_Vtv_-134" style="vsdxID=1132;fillColor=#a3a3a3;gradientColor=none;shape=stencil(vZTdcoMgEIWfhkt3+A1wnabvwSSoTKk4aJrk7YvFTsXG9CbTu2XPt8vskRWx/dCa3iKKhzGGN3txp7FF7AVR6rrWRjemCLEDYvs6RNvEcO5O+dybiZyi9/AxdbjmOgp0qqH4ls9cg/xKvGbau25BCwWi5BkQveRNPCYxfvPAczccZ16CVjkzIzsMVBYt8axX5uqGKobRjC50heZNbGyV7qpqb5pCGi7W9r/Sd6chGJezCNipp+GSgOJFQXJP8+2C9C1kaa5WwMW2uwy4Lt0VQApziQS50fFZ/pIHhm3ffp8HIdaGsUfj09Xj4iBlMf/m6/6H6f/arBT8LGXtvM87vdTXS5xS+QfADp8=);strokeColor=none;spacingTop=-3;spacingBottom=-3;spacingLeft=-3;spacingRight=-3;points=[];labelBackgroundColor=none;rounded=0;html=1;whiteSpace=wrap;" parent="CJAz3a5iVs_dnIX_Vtv_-127" vertex="1">
          <mxGeometry x="30" y="31" width="9" height="6" as="geometry" />
        </mxCell>
        <mxCell id="CJAz3a5iVs_dnIX_Vtv_-135" style="vsdxID=1133;fillColor=#32bedd;gradientColor=none;shape=stencil(lZFRCsIwEERPs78lZrAeoNZ7FJqaxZiUNFq9vQmLaAWl/s1s3izLhNBMthsNaTWlGE5m5j5Zwp60Zm9N5JQVoSU0Q4jmGMPF9+LHrpBFncO1bLhJbqNUyWh1Fy/uIKhj/wOt62q7+44v4Wd4BQpUwPoz/rh4gWbxKmVg56TT9/fPEvNIPgDtAw==);strokeColor=none;spacingTop=-3;spacingBottom=-3;spacingLeft=-3;spacingRight=-3;points=[];labelBackgroundColor=none;rounded=0;html=1;whiteSpace=wrap;" parent="CJAz3a5iVs_dnIX_Vtv_-127" vertex="1">
          <mxGeometry x="19" y="11" width="12" height="21" as="geometry" />
        </mxCell>
        <mxCell id="CJAz3a5iVs_dnIX_Vtv_-136" style="vsdxID=1134;fillColor=#9cebff;gradientColor=none;shape=stencil(UzV2Ls5ILEhVNTIoLinKz04tz0wpyVA1dlE1MsrMy0gtyiwBslSNXVWNndPyi1LTi/JL81Ig/IJEkEoQKze/DGRCBUSfoYEBSI+RQSWEbwrhukHU5mTmIak1NdAzMEFRDdONVTklBuNRTIqL8asFMhDBkpaZkwMJVWR59GAECkGiwNgVAA==);strokeColor=none;spacingTop=-3;spacingBottom=-3;spacingLeft=-3;spacingRight=-3;points=[];labelBackgroundColor=none;rounded=0;html=1;whiteSpace=wrap;" parent="CJAz3a5iVs_dnIX_Vtv_-127" vertex="1">
          <mxGeometry x="7" y="4" width="25" height="14" as="geometry" />
        </mxCell>
        <mxCell id="CJAz3a5iVs_dnIX_Vtv_-137" style="vsdxID=1135;fillColor=#50e6ff;gradientColor=none;shape=stencil(UzV2Ls5ILEhVNTIoLinKz04tz0wpyVA1dlE1MsrMy0gtyiwBslSNXVWNndPyi1LTi/JL81Ig/IJEkEoQKze/DGRCBUSfoYEBSI+RQSWEb2ysZ2oMFnGDKM/JzMOjHMbHqhhVqZmZnqk5sYrxmEqhizGUAxmIwEnLzMmBhC2yPHpgAoUgEWHsCgA=);strokeColor=none;spacingTop=-3;spacingBottom=-3;spacingLeft=-3;spacingRight=-3;points=[];labelBackgroundColor=none;rounded=0;html=1;whiteSpace=wrap;" parent="CJAz3a5iVs_dnIX_Vtv_-127" vertex="1">
          <mxGeometry x="7" y="11" width="12" height="21" as="geometry" />
        </mxCell>
        <mxCell id="CJAz3a5iVs_dnIX_Vtv_-138" style="vsdxID=1136;fillColor=#9cebff;gradientColor=none;shape=stencil(UzV2Ls5ILEhVNTIoLinKz04tz0wpyVA1dlE1MsrMy0gtyiwBslSNXVWNndPyi1LTi/JL81Ig/IJEkEoQKze/DGRCBUSfAUiHkUElhGdiqWdhBhZxgyjOycxDUmxogKrcgHilMD5WxSQ5goBiIAPh17TMnBxIUCHLo4cNUAgSrsauAA==);strokeColor=none;spacingTop=-3;spacingBottom=-3;spacingLeft=-3;spacingRight=-3;points=[];labelBackgroundColor=none;rounded=0;html=1;whiteSpace=wrap;" parent="CJAz3a5iVs_dnIX_Vtv_-127" vertex="1">
          <mxGeometry x="7" y="18" width="12" height="14" as="geometry" />
        </mxCell>
        <mxCell id="CJAz3a5iVs_dnIX_Vtv_-139" style="vsdxID=1137;fillColor=#50e6ff;gradientColor=none;shape=stencil(UzV2Ls5ILEhVNTIoLinKz04tz0wpyVA1dlE1MsrMy0gtyiwBslSNXVWNndPyi1LTi/JL81Ig/IJEkEoQKze/DGRCBUSfoYEBSI+RQSWEb2KpZ2EGFnGDKM/JzENSjqrYgFiFMFuwKiXRCQSVAxkI36Zl5uRAAgtZHj10gEKQkDV2BQA=);strokeColor=none;spacingTop=-3;spacingBottom=-3;spacingLeft=-3;spacingRight=-3;points=[];labelBackgroundColor=none;rounded=0;html=1;whiteSpace=wrap;" parent="CJAz3a5iVs_dnIX_Vtv_-127" vertex="1">
          <mxGeometry x="19" y="18" width="12" height="14" as="geometry" />
        </mxCell>
        <UserObject label="&lt;div style=&quot;font-size: 1px&quot;&gt;&lt;font style=&quot;font-size:16.93px;font-family:Calibri;color:#538135;direction:ltr;letter-spacing:0px;line-height:120%;opacity:1&quot;&gt;&lt;i&gt;&lt;b&gt;Vertical Resource Groups&lt;br/&gt;(Apps)&lt;br/&gt;&lt;/b&gt;&lt;/i&gt;&lt;/font&gt;&lt;/div&gt;" tags="Background" id="CJAz3a5iVs_dnIX_Vtv_-140">
          <mxCell style="verticalAlign=top;align=center;overflow=width;vsdxID=1138;fillColor=none;gradientColor=none;shape=stencil(nZBLDoAgDERP0z3SIyjew0SURgSD+Lu9kMZoXLhwN9O+tukAlrNpJg1SzDH4QW/URgNYgZTkjA4UkwJUgGXng+6DX1zLfmoymdXo17xh5zmRJ6Q42BWCfc2oJfdAr+Yv+AP9Cb7OJ3H/2JG1HNGz/84klThPVCc=);strokeColor=none;points=[];labelBackgroundColor=none;rounded=0;html=1;whiteSpace=wrap;" parent="1" vertex="1">
            <mxGeometry x="691" y="281" width="120" height="60" as="geometry" />
          </mxCell>
        </UserObject>
        <UserObject label="" tags="Background" id="CJAz3a5iVs_dnIX_Vtv_-141">
          <mxCell style="vsdxID=1139;fillColor=none;gradientColor=none;shape=stencil(nZBLDoAgDERP0z3SIyjew0SURgSD+Lu9kMZoXLhwN9O+tukAlrNpJg1SzDH4QW/URgNYgZTkjA4UkwJUgGXng+6DX1zLfmoymdXo17xh5zmRJ6Q42BWCfc2oJfdAr+Yv+AP9Cb7OJ3H/2JG1HNGz/84klThPVCc=);strokeColor=#0070c0;points=[[1,0.5,0],[0.5,0,0],[0.5,0.5,0],[0.5,0.5,0]];labelBackgroundColor=none;rounded=0;html=1;whiteSpace=wrap;" parent="1" vertex="1">
            <mxGeometry x="91" y="481" width="720" height="120" as="geometry" />
          </mxCell>
        </UserObject>
        <UserObject label="&lt;div style=&quot;font-size: 1px&quot;&gt;&lt;font style=&quot;font-size:16.93px;font-family:Calibri;color:#0070c0;direction:ltr;letter-spacing:0px;line-height:120%;opacity:1&quot;&gt;&lt;i&gt;&lt;b&gt;Horizontal&lt;/b&gt;&lt;/i&gt;&lt;/font&gt;&lt;font style=&quot;font-size:16.93px;font-family:Calibri;color:#0070c0;direction:ltr;letter-spacing:0px;line-height:120%;opacity:1&quot;&gt;&lt;i&gt;&lt;b&gt; Resource Group&lt;br/&gt;(&lt;/b&gt;&lt;/i&gt;&lt;/font&gt;&lt;font style=&quot;font-size:16.93px;font-family:Calibri;color:#0070c0;direction:ltr;letter-spacing:0px;line-height:120%;opacity:1&quot;&gt;&lt;i&gt;&lt;b&gt;Infra&lt;/b&gt;&lt;/i&gt;&lt;/font&gt;&lt;font style=&quot;font-size:16.93px;font-family:Calibri;color:#0070c0;direction:ltr;letter-spacing:0px;line-height:120%;opacity:1&quot;&gt;&lt;i&gt;&lt;b&gt;)&lt;br/&gt;&lt;/b&gt;&lt;/i&gt;&lt;/font&gt;&lt;/div&gt;" tags="Background" id="CJAz3a5iVs_dnIX_Vtv_-173">
          <mxCell style="verticalAlign=top;align=center;overflow=width;vsdxID=1185;fillColor=none;gradientColor=none;shape=stencil(nZBLDoAgDERP0z3SIyjew0SURgSD+Lu9kMZoXLhwN9O+tukAlrNpJg1SzDH4QW/URgNYgZTkjA4UkwJUgGXng+6DX1zLfmoymdXo17xh5zmRJ6Q42BWCfc2oJfdAr+Yv+AP9Cb7OJ3H/2JG1HNGz/84klThPVCc=);strokeColor=none;points=[];labelBackgroundColor=none;rounded=0;html=1;whiteSpace=wrap;" parent="CJAz3a5iVs_dnIX_Vtv_-141" vertex="1">
            <mxGeometry x="595" y="20" width="120" height="100" as="geometry" />
          </mxCell>
        </UserObject>
        <UserObject label="&lt;div style=&quot;font-size: 1px&quot;&gt;&lt;/div&gt;" tags="Background" id="CJAz3a5iVs_dnIX_Vtv_-143">
          <mxCell style="verticalAlign=middle;align=center;overflow=width;vsdxID=1155;rotation=270;fillColor=#f2f2f2;gradientColor=none;shape=stencil(nZBLDoAgDERP0z3SIyjew0SURgSD+Lu9kMZoXLhwN9O+tukAlrNpJg1SzDH4QW/URgNYgZTkjA4UkwJUgGXng+6DX1zLfmoymdXo17xh5zmRJ6Q42BWCfc2oJfdAr+Yv+AP9Cb7OJ3H/2JG1HNGz/84klThPVCc=);strokeColor=none;spacingTop=-3;spacingBottom=-3;spacingLeft=-3;spacingRight=-3;points=[[0,0.5,0]];labelBackgroundColor=none;rounded=0;html=1;whiteSpace=wrap;" parent="1" vertex="1">
            <mxGeometry x="371" y="241" width="60" height="580" as="geometry" />
          </mxCell>
        </UserObject>
        <UserObject label="&lt;div style=&quot;&quot;&gt;&lt;font face=&quot;Segoe UI Semibold&quot; style=&quot;color: rgb(0, 0, 0); direction: ltr; letter-spacing: 0px; line-height: 120%; opacity: 1; font-size: 25px;&quot;&gt;Networking&lt;/font&gt;&lt;/div&gt;" tags="Background" id="CJAz3a5iVs_dnIX_Vtv_-144">
          <mxCell style="verticalAlign=middle;align=center;overflow=width;vsdxID=1156;fillColor=none;gradientColor=none;shape=stencil(nZBLDoAgDERP0z3SIyjew0SURgSD+Lu9kMZoXLhwN9O+tukAlrNpJg1SzDH4QW/URgNYgZTkjA4UkwJUgGXng+6DX1zLfmoymdXo17xh5zmRJ6Q42BWCfc2oJfdAr+Yv+AP9Cb7OJ3H/2JG1HNGz/84klThPVCc=);strokeColor=none;points=[];labelBackgroundColor=none;rounded=0;html=1;whiteSpace=wrap;" parent="1" vertex="1">
            <mxGeometry x="111" y="501" width="580" height="62" as="geometry" />
          </mxCell>
        </UserObject>
        <UserObject label="" tags="Background" id="CJAz3a5iVs_dnIX_Vtv_-145">
          <mxCell style="vsdxID=1157;fillColor=none;gradientColor=none;strokeColor=none;spacingTop=-3;spacingBottom=-3;spacingLeft=-3;spacingRight=-3;points=[];labelBackgroundColor=none;rounded=0;html=1;whiteSpace=wrap;" parent="1" vertex="1">
            <mxGeometry x="151" y="511" width="40" height="37" as="geometry" />
          </mxCell>
        </UserObject>
        <mxCell id="CJAz3a5iVs_dnIX_Vtv_-146" style="vsdxID=1158;fillColor=none;gradientColor=none;strokeColor=none;spacingTop=-3;spacingBottom=-3;spacingLeft=-3;spacingRight=-3;points=[];labelBackgroundColor=none;rounded=0;html=1;whiteSpace=wrap;" parent="CJAz3a5iVs_dnIX_Vtv_-145" vertex="1">
          <mxGeometry width="9" height="37" as="geometry" />
        </mxCell>
        <mxCell id="CJAz3a5iVs_dnIX_Vtv_-147" style="vsdxID=1159;fillColor=#949494;gradientColor=none;shape=stencil(vVXLcsMgDPwaH61BYAyc0/Q/PA1JPHXtDHab9O+Li9tEkHBpmhuWVsi76FGI1bhvDrbgbJzc8GqP7WbaF+Kp4Lzt99a1kz8VYl2I1XZwdueG934Tvg/NjJxPb8PHfMMpxLE5grPP8KUVmG/Dc8A27sU73YIVUAcvcwuegZHBskAQTE1v1KCWoFPZnNqxdMPUTO3Qk/xd43a29OnKbdfsiGs8WntIzMsPdm1/QUYwmH0X6Q0HLW8HKA2sogEGDN6WoALBqQQIiEQCLUDFV0rxKAl8MqVjCSTPPaqJGRE6RgOnT2oQePUoPhUHpHJ6fTHzQr5IZVKkglCqkjLR/NdyJ0qYoZSkRwU6S6lSMSVtKKVEJqzBqEdRSotER30XtxFWcRuxmtZdUsgKJN6VUKbskiZmIOs/8UlHDTtD/p1PJvv1Ser/3xB8/TPZr+KTuY9+LoqsYMkcZXSV0M2EHNh9OzSjVn4p+sN5m27brgvL+NIfb19vCptbrL8A);strokeColor=none;spacingTop=-3;spacingBottom=-3;spacingLeft=-3;spacingRight=-3;points=[];labelBackgroundColor=none;rounded=0;html=1;whiteSpace=wrap;" parent="CJAz3a5iVs_dnIX_Vtv_-146" vertex="1">
          <mxGeometry width="9" height="37" as="geometry" />
        </mxCell>
        <mxCell id="CJAz3a5iVs_dnIX_Vtv_-148" style="vsdxID=1160;fillColor=#a3a3a3;gradientColor=none;shape=stencil(vVTLcoMwDPwaH9H4CfY5Tf/D0xjwlGLG0Cb9+5q6nmAC9JabLO2upJ2RETuNrR4MonicvHs3V3uZWsReEKW2b423U4gQOyN2qp03jXef/SW+Bz0j5+jDfc0Kt8hjCkQ1syj+jhmC8e/7NcI72y/gnAChGVxVUPF9gpJAyowgMJRiSdD+LVR9GghElMM+EYD8TZg0FSiWaXIGMmEKfbNj4d2kJ+v6WI8b4U77xhShX1F3uslK49WY4SG9vdJB+02CZGuPQ+LYAvZgQZlZUMn1DPhZ6++13gQzDErkXh2gSbIlgUsORO0bdccnoyjQ3Cic65XAxbOMCsMQkrWXHOTBrfx7iyG433Ftuy5+A8v6+u5DKv4Z7PwD);strokeColor=none;spacingTop=-3;spacingBottom=-3;spacingLeft=-3;spacingRight=-3;points=[];labelBackgroundColor=none;rounded=0;html=1;whiteSpace=wrap;" parent="CJAz3a5iVs_dnIX_Vtv_-146" vertex="1">
          <mxGeometry width="9" height="6" as="geometry" />
        </mxCell>
        <mxCell id="CJAz3a5iVs_dnIX_Vtv_-149" style="vsdxID=1161;fillColor=#a3a3a3;gradientColor=none;shape=stencil(vZRhT4QwDIZ/zT7SbCuD8fk8/8fiDVhEdhnonf/e4eCkKEYT47fSt2+bPktheBhac7ZM8mEM/tFe3GlsGd4xKV3f2uDGGDE8MjzUPtgm+Of+lL7PZqqcoif/MnW4Jl+lQarJJflryuQVFPI9c58MnetXhlxAURIDgtDrehMeohiWehBz/zDXF8BT/6UlVlAJ0pLPemaubsiCH83ofE+0zoTGZnFWVnemIdJwsfa8Sov9bTjdREGB+8UCUP6mXkaSdC+lQat9Q6mhRGKYnqfah4uLeoObQ1kSuBpvmU89/wow31/pu/FfQ+Z8i4w+4JbAQmwhoCAXhEAcyClVJUDhfxH4wYXF4OM+a9d16bzX+vaeYyr9C/D4Bg==);strokeColor=none;spacingTop=-3;spacingBottom=-3;spacingLeft=-3;spacingRight=-3;points=[];labelBackgroundColor=none;rounded=0;html=1;whiteSpace=wrap;" parent="CJAz3a5iVs_dnIX_Vtv_-146" vertex="1">
          <mxGeometry y="31" width="9" height="6" as="geometry" />
        </mxCell>
        <mxCell id="CJAz3a5iVs_dnIX_Vtv_-150" style="vsdxID=1162;fillColor=#949494;gradientColor=none;shape=stencil(vVXLcsMgDPwaH63hYQyc2/Q/mIYkTF07g90m/fviQhIDNb2kuQFaJHYlpIo+jQd11BVB42SHN30y2+lQ0eeKENMftDWTW1V0U9Gn3WD13g4f/dbvj2pGzqv34XP2cPb3MELzHYK+/F5wEPLn5MXDlX11VhvgFLiH24BHIJk/CQgpADWxSwFcBEytzmas7TCpyQx9cOFtnbJ7Xbtw9a5T+8g0nrQ+Lo7x8oGd6Rd8WnkNFsJLAoKtXyAYZBtfkCDxugQNUBJrgAHjSAPcAk1dMvooCRAQkirACoQoyIRPTAZ4nE+JgTyMDHP1GGsp6EXulfRk2UEiIsSyEhEErqTvwwgVGGXhMQfelvLTZJ8u/NF1lVwJSvIoSlmJiOTLpSnCWYriJpKVMAd2XzaFkst+LwJWSI9j02R02ohO3mPQDfLvfArRf2+h4tLkA7wtNtC84WMnACnVM08EQ9cHrkwl5/HO1VzK/18j0S1u43Rnus5P46U9Hb/uyI9uuvkG);strokeColor=none;spacingTop=-3;spacingBottom=-3;spacingLeft=-3;spacingRight=-3;points=[];labelBackgroundColor=none;rounded=0;html=1;whiteSpace=wrap;" parent="CJAz3a5iVs_dnIX_Vtv_-145" vertex="1">
          <mxGeometry x="30" width="9" height="37" as="geometry" />
        </mxCell>
        <mxCell id="CJAz3a5iVs_dnIX_Vtv_-151" style="vsdxID=1163;fillColor=#a3a3a3;gradientColor=none;shape=stencil(tZRNcoMwDIVPwxKNbfl3nab38CQOeEohY0iT3r5QMy0KIV11Z0vfs6xnRIG7vvbnUAjWD6l7C9d4HOoCXwohYluHFIdxVeC+wN2pS6FK3aU95v3ZT+S0eu8+phNuWacZSD2pBPvMEc7Y9/41401sF7iy4ATBnQGD2wIODgmvGFi+5H06jNk08wiYsyzNAglW5ciMMOD0xlICm0W30t9iX6Zu8EPs2lmQc41PVSjHcuWp8RVJ9dcQzoswueDhkrJjfFWfry8gVpBYQ7iC8B567KYGxUnvCEo/c1MhdVMBN8TN8YW4Ikey/7OSdrNV+iGsHTBLW3cg7bbAWZD0dI1g1BNz5w//B9fAxDZuDDj6FlaCNE86+GvUxsXvmJ5i0+QpX+bvx3oM5V8C7r8A);strokeColor=none;spacingTop=-3;spacingBottom=-3;spacingLeft=-3;spacingRight=-3;points=[];labelBackgroundColor=none;rounded=0;html=1;whiteSpace=wrap;" parent="CJAz3a5iVs_dnIX_Vtv_-145" vertex="1">
          <mxGeometry x="30" width="9" height="6" as="geometry" />
        </mxCell>
        <mxCell id="CJAz3a5iVs_dnIX_Vtv_-152" style="vsdxID=1164;fillColor=#a3a3a3;gradientColor=none;shape=stencil(vZTdcoMgEIWfhkt3+A1wnabvwSSoTKk4aJrk7YvFTsXG9CbTu2XPt8vskRWx/dCa3iKKhzGGN3txp7FF7AVR6rrWRjemCLEDYvs6RNvEcO5O+dybiZyi9/AxdbjmOgp0qqH4ls9cg/xKvGbau25BCwWi5BkQveRNPCYxfvPAczccZ16CVjkzIzsMVBYt8axX5uqGKobRjC50heZNbGyV7qpqb5pCGi7W9r/Sd6chGJezCNipp+GSgOJFQXJP8+2C9C1kaa5WwMW2uwy4Lt0VQApziQS50fFZ/pIHhm3ffp8HIdaGsUfj09Xj4iBlMf/m6/6H6f/arBT8LGXtvM87vdTXS5xS+QfADp8=);strokeColor=none;spacingTop=-3;spacingBottom=-3;spacingLeft=-3;spacingRight=-3;points=[];labelBackgroundColor=none;rounded=0;html=1;whiteSpace=wrap;" parent="CJAz3a5iVs_dnIX_Vtv_-145" vertex="1">
          <mxGeometry x="30" y="31" width="9" height="6" as="geometry" />
        </mxCell>
        <mxCell id="CJAz3a5iVs_dnIX_Vtv_-153" style="vsdxID=1165;fillColor=#32bedd;gradientColor=none;shape=stencil(lZFRCsIwEERPs78lZrAeoNZ7FJqaxZiUNFq9vQmLaAWl/s1s3izLhNBMthsNaTWlGE5m5j5Zwp60Zm9N5JQVoSU0Q4jmGMPF9+LHrpBFncO1bLhJbqNUyWh1Fy/uIKhj/wOt62q7+44v4Wd4BQpUwPoz/rh4gWbxKmVg56TT9/fPEvNIPgDtAw==);strokeColor=none;spacingTop=-3;spacingBottom=-3;spacingLeft=-3;spacingRight=-3;points=[];labelBackgroundColor=none;rounded=0;html=1;whiteSpace=wrap;" parent="CJAz3a5iVs_dnIX_Vtv_-145" vertex="1">
          <mxGeometry x="19" y="11" width="12" height="21" as="geometry" />
        </mxCell>
        <mxCell id="CJAz3a5iVs_dnIX_Vtv_-154" style="vsdxID=1166;fillColor=#9cebff;gradientColor=none;shape=stencil(UzV2Ls5ILEhVNTIoLinKz04tz0wpyVA1dlE1MsrMy0gtyiwBslSNXVWNndPyi1LTi/JL81Ig/IJEkEoQKze/DGRCBUSfoYEBSI+RQSWEbwrhukHU5mTmIak1NdAzMEFRDdONVTklBuNRTIqL8asFMhDBkpaZkwMJVWR59GAECkGiwNgVAA==);strokeColor=none;spacingTop=-3;spacingBottom=-3;spacingLeft=-3;spacingRight=-3;points=[];labelBackgroundColor=none;rounded=0;html=1;whiteSpace=wrap;" parent="CJAz3a5iVs_dnIX_Vtv_-145" vertex="1">
          <mxGeometry x="7" y="4" width="25" height="14" as="geometry" />
        </mxCell>
        <mxCell id="CJAz3a5iVs_dnIX_Vtv_-155" style="vsdxID=1167;fillColor=#50e6ff;gradientColor=none;shape=stencil(UzV2Ls5ILEhVNTIoLinKz04tz0wpyVA1dlE1MsrMy0gtyiwBslSNXVWNndPyi1LTi/JL81Ig/IJEkEoQKze/DGRCBUSfoYEBSI+RQSWEb2ysZ2oMFnGDKM/JzMOjHMbHqhhVqZmZnqk5sYrxmEqhizGUAxmIwEnLzMmBhC2yPHpgAoUgEWHsCgA=);strokeColor=none;spacingTop=-3;spacingBottom=-3;spacingLeft=-3;spacingRight=-3;points=[];labelBackgroundColor=none;rounded=0;html=1;whiteSpace=wrap;" parent="CJAz3a5iVs_dnIX_Vtv_-145" vertex="1">
          <mxGeometry x="7" y="11" width="12" height="21" as="geometry" />
        </mxCell>
        <mxCell id="CJAz3a5iVs_dnIX_Vtv_-156" style="vsdxID=1168;fillColor=#9cebff;gradientColor=none;shape=stencil(UzV2Ls5ILEhVNTIoLinKz04tz0wpyVA1dlE1MsrMy0gtyiwBslSNXVWNndPyi1LTi/JL81Ig/IJEkEoQKze/DGRCBUSfAUiHkUElhGdiqWdhBhZxgyjOycxDUmxogKrcgHilMD5WxSQ5goBiIAPh17TMnBxIUCHLo4cNUAgSrsauAA==);strokeColor=none;spacingTop=-3;spacingBottom=-3;spacingLeft=-3;spacingRight=-3;points=[];labelBackgroundColor=none;rounded=0;html=1;whiteSpace=wrap;" parent="CJAz3a5iVs_dnIX_Vtv_-145" vertex="1">
          <mxGeometry x="7" y="18" width="12" height="14" as="geometry" />
        </mxCell>
        <mxCell id="CJAz3a5iVs_dnIX_Vtv_-157" style="vsdxID=1169;fillColor=#50e6ff;gradientColor=none;shape=stencil(UzV2Ls5ILEhVNTIoLinKz04tz0wpyVA1dlE1MsrMy0gtyiwBslSNXVWNndPyi1LTi/JL81Ig/IJEkEoQKze/DGRCBUSfoYEBSI+RQSWEb2KpZ2EGFnGDKM/JzENSjqrYgFiFMFuwKiXRCQSVAxkI36Zl5uRAAgtZHj10gEKQkDV2BQA=);strokeColor=none;spacingTop=-3;spacingBottom=-3;spacingLeft=-3;spacingRight=-3;points=[];labelBackgroundColor=none;rounded=0;html=1;whiteSpace=wrap;" parent="CJAz3a5iVs_dnIX_Vtv_-145" vertex="1">
          <mxGeometry x="19" y="18" width="12" height="14" as="geometry" />
        </mxCell>
        <UserObject label="&lt;div style=&quot;font-size: 1px&quot;&gt;&lt;/div&gt;" tags="Background" id="CJAz3a5iVs_dnIX_Vtv_-158">
          <mxCell style="verticalAlign=middle;align=center;overflow=width;vsdxID=1170;fillColor=#f2f2f2;gradientColor=none;shape=stencil(nZBLDoAgDERP0z3SIyjew0SURgSD+Lu9kMZoXLhwN9O+tukAlrNpJg1SzDH4QW/URgNYgZTkjA4UkwJUgGXng+6DX1zLfmoymdXo17xh5zmRJ6Q42BWCfc2oJfdAr+Yv+AP9Cb7OJ3H/2JG1HNGz/84klThPVCc=);strokeColor=none;spacingTop=-3;spacingBottom=-3;spacingLeft=-3;spacingRight=-3;points=[[0,0.5,0]];labelBackgroundColor=none;rounded=0;html=1;whiteSpace=wrap;" parent="1" vertex="1">
            <mxGeometry x="611" y="181" width="80" height="260" as="geometry" />
          </mxCell>
        </UserObject>
        <UserObject label="&lt;div style=&quot;font-size: 1px&quot;&gt;&lt;font style=&quot;font-size:22.58px;font-family:Themed;color:#000000;direction:ltr;letter-spacing:0px;line-height:120%;opacity:1&quot;&gt;&lt;span style=&quot;font-family: &amp;quot;Segoe UI Semibold&amp;quot;; font-size: 22px;&quot;&gt;Resource Group(s)&lt;/span&gt;&lt;br&gt;&lt;/font&gt;&lt;/div&gt;" tags="Background" id="CJAz3a5iVs_dnIX_Vtv_-159">
          <mxCell style="verticalAlign=middle;align=center;overflow=width;vsdxID=1171;rotation=90;fillColor=none;gradientColor=none;shape=stencil(nZBLDoAgDERP0z3SIyjew0SURgSD+Lu9kMZoXLhwN9O+tukAlrNpJg1SzDH4QW/URgNYgZTkjA4UkwJUgGXng+6DX1zLfmoymdXo17xh5zmRJ6Q42BWCfc2oJfdAr+Yv+AP9Cb7OJ3H/2JG1HNGz/84klThPVCc=);strokeColor=none;points=[];labelBackgroundColor=none;rounded=0;html=1;whiteSpace=wrap;" parent="1" vertex="1">
            <mxGeometry x="541" y="299" width="220" height="62" as="geometry" />
          </mxCell>
        </UserObject>
        <UserObject label="" tags="Background" id="CJAz3a5iVs_dnIX_Vtv_-160">
          <mxCell style="vsdxID=1172;fillColor=none;gradientColor=none;strokeColor=none;spacingTop=-3;spacingBottom=-3;spacingLeft=-3;spacingRight=-3;points=[];labelBackgroundColor=none;rounded=0;html=1;whiteSpace=wrap;" parent="1" vertex="1">
            <mxGeometry x="631" y="190" width="40" height="37" as="geometry" />
          </mxCell>
        </UserObject>
        <mxCell id="CJAz3a5iVs_dnIX_Vtv_-161" style="vsdxID=1173;fillColor=none;gradientColor=none;strokeColor=none;spacingTop=-3;spacingBottom=-3;spacingLeft=-3;spacingRight=-3;points=[];labelBackgroundColor=none;rounded=0;html=1;whiteSpace=wrap;" parent="CJAz3a5iVs_dnIX_Vtv_-160" vertex="1">
          <mxGeometry width="9" height="37" as="geometry" />
        </mxCell>
        <mxCell id="CJAz3a5iVs_dnIX_Vtv_-162" style="vsdxID=1174;fillColor=#949494;gradientColor=none;shape=stencil(vVXLcsMgDPwaH61BYAyc0/Q/PA1JPHXtDHab9O+Li9tEkHBpmhuWVsi76FGI1bhvDrbgbJzc8GqP7WbaF+Kp4Lzt99a1kz8VYl2I1XZwdueG934Tvg/NjJxPb8PHfMMpxLE5grPP8KUVmG/Dc8A27sU73YIVUAcvcwuegZHBskAQTE1v1KCWoFPZnNqxdMPUTO3Qk/xd43a29OnKbdfsiGs8WntIzMsPdm1/QUYwmH0X6Q0HLW8HKA2sogEGDN6WoALBqQQIiEQCLUDFV0rxKAl8MqVjCSTPPaqJGRE6RgOnT2oQePUoPhUHpHJ6fTHzQr5IZVKkglCqkjLR/NdyJ0qYoZSkRwU6S6lSMSVtKKVEJqzBqEdRSotER30XtxFWcRuxmtZdUsgKJN6VUKbskiZmIOs/8UlHDTtD/p1PJvv1Ser/3xB8/TPZr+KTuY9+LoqsYMkcZXSV0M2EHNh9OzSjVn4p+sN5m27brgvL+NIfb19vCptbrL8A);strokeColor=none;spacingTop=-3;spacingBottom=-3;spacingLeft=-3;spacingRight=-3;points=[];labelBackgroundColor=none;rounded=0;html=1;whiteSpace=wrap;" parent="CJAz3a5iVs_dnIX_Vtv_-161" vertex="1">
          <mxGeometry width="9" height="37" as="geometry" />
        </mxCell>
        <mxCell id="CJAz3a5iVs_dnIX_Vtv_-163" style="vsdxID=1175;fillColor=#a3a3a3;gradientColor=none;shape=stencil(vVTLcoMwDPwaH9H4CfY5Tf/D0xjwlGLG0Cb9+5q6nmAC9JabLO2upJ2RETuNrR4MonicvHs3V3uZWsReEKW2b423U4gQOyN2qp03jXef/SW+Bz0j5+jDfc0Kt8hjCkQ1syj+jhmC8e/7NcI72y/gnAChGVxVUPF9gpJAyowgMJRiSdD+LVR9GghElMM+EYD8TZg0FSiWaXIGMmEKfbNj4d2kJ+v6WI8b4U77xhShX1F3uslK49WY4SG9vdJB+02CZGuPQ+LYAvZgQZlZUMn1DPhZ6++13gQzDErkXh2gSbIlgUsORO0bdccnoyjQ3Cic65XAxbOMCsMQkrWXHOTBrfx7iyG433Ftuy5+A8v6+u5DKv4Z7PwD);strokeColor=none;spacingTop=-3;spacingBottom=-3;spacingLeft=-3;spacingRight=-3;points=[];labelBackgroundColor=none;rounded=0;html=1;whiteSpace=wrap;" parent="CJAz3a5iVs_dnIX_Vtv_-161" vertex="1">
          <mxGeometry width="9" height="6" as="geometry" />
        </mxCell>
        <mxCell id="CJAz3a5iVs_dnIX_Vtv_-164" style="vsdxID=1176;fillColor=#a3a3a3;gradientColor=none;shape=stencil(vZRhT4QwDIZ/zT7SbCuD8fk8/8fiDVhEdhnonf/e4eCkKEYT47fSt2+bPktheBhac7ZM8mEM/tFe3GlsGd4xKV3f2uDGGDE8MjzUPtgm+Of+lL7PZqqcoif/MnW4Jl+lQarJJflryuQVFPI9c58MnetXhlxAURIDgtDrehMeohiWehBz/zDXF8BT/6UlVlAJ0pLPemaubsiCH83ofE+0zoTGZnFWVnemIdJwsfa8Sov9bTjdREGB+8UCUP6mXkaSdC+lQat9Q6mhRGKYnqfah4uLeoObQ1kSuBpvmU89/wow31/pu/FfQ+Z8i4w+4JbAQmwhoCAXhEAcyClVJUDhfxH4wYXF4OM+a9d16bzX+vaeYyr9C/D4Bg==);strokeColor=none;spacingTop=-3;spacingBottom=-3;spacingLeft=-3;spacingRight=-3;points=[];labelBackgroundColor=none;rounded=0;html=1;whiteSpace=wrap;" parent="CJAz3a5iVs_dnIX_Vtv_-161" vertex="1">
          <mxGeometry y="31" width="9" height="6" as="geometry" />
        </mxCell>
        <mxCell id="CJAz3a5iVs_dnIX_Vtv_-165" style="vsdxID=1177;fillColor=#949494;gradientColor=none;shape=stencil(vVXLcsMgDPwaH63hYQyc2/Q/mIYkTF07g90m/fviQhIDNb2kuQFaJHYlpIo+jQd11BVB42SHN30y2+lQ0eeKENMftDWTW1V0U9Gn3WD13g4f/dbvj2pGzqv34XP2cPb3MELzHYK+/F5wEPLn5MXDlX11VhvgFLiH24BHIJk/CQgpADWxSwFcBEytzmas7TCpyQx9cOFtnbJ7Xbtw9a5T+8g0nrQ+Lo7x8oGd6Rd8WnkNFsJLAoKtXyAYZBtfkCDxugQNUBJrgAHjSAPcAk1dMvooCRAQkirACoQoyIRPTAZ4nE+JgTyMDHP1GGsp6EXulfRk2UEiIsSyEhEErqTvwwgVGGXhMQfelvLTZJ8u/NF1lVwJSvIoSlmJiOTLpSnCWYriJpKVMAd2XzaFkst+LwJWSI9j02R02ohO3mPQDfLvfArRf2+h4tLkA7wtNtC84WMnACnVM08EQ9cHrkwl5/HO1VzK/18j0S1u43Rnus5P46U9Hb/uyI9uuvkG);strokeColor=none;spacingTop=-3;spacingBottom=-3;spacingLeft=-3;spacingRight=-3;points=[];labelBackgroundColor=none;rounded=0;html=1;whiteSpace=wrap;" parent="CJAz3a5iVs_dnIX_Vtv_-160" vertex="1">
          <mxGeometry x="30" width="9" height="37" as="geometry" />
        </mxCell>
        <mxCell id="CJAz3a5iVs_dnIX_Vtv_-166" style="vsdxID=1178;fillColor=#a3a3a3;gradientColor=none;shape=stencil(tZRNcoMwDIVPwxKNbfl3nab38CQOeEohY0iT3r5QMy0KIV11Z0vfs6xnRIG7vvbnUAjWD6l7C9d4HOoCXwohYluHFIdxVeC+wN2pS6FK3aU95v3ZT+S0eu8+phNuWacZSD2pBPvMEc7Y9/41401sF7iy4ATBnQGD2wIODgmvGFi+5H06jNk08wiYsyzNAglW5ciMMOD0xlICm0W30t9iX6Zu8EPs2lmQc41PVSjHcuWp8RVJ9dcQzoswueDhkrJjfFWfry8gVpBYQ7iC8B567KYGxUnvCEo/c1MhdVMBN8TN8YW4Ikey/7OSdrNV+iGsHTBLW3cg7bbAWZD0dI1g1BNz5w//B9fAxDZuDDj6FlaCNE86+GvUxsXvmJ5i0+QpX+bvx3oM5V8C7r8A);strokeColor=none;spacingTop=-3;spacingBottom=-3;spacingLeft=-3;spacingRight=-3;points=[];labelBackgroundColor=none;rounded=0;html=1;whiteSpace=wrap;" parent="CJAz3a5iVs_dnIX_Vtv_-160" vertex="1">
          <mxGeometry x="30" width="9" height="6" as="geometry" />
        </mxCell>
        <mxCell id="CJAz3a5iVs_dnIX_Vtv_-167" style="vsdxID=1179;fillColor=#a3a3a3;gradientColor=none;shape=stencil(vZTdcoMgEIWfhkt3+A1wnabvwSSoTKk4aJrk7YvFTsXG9CbTu2XPt8vskRWx/dCa3iKKhzGGN3txp7FF7AVR6rrWRjemCLEDYvs6RNvEcO5O+dybiZyi9/AxdbjmOgp0qqH4ls9cg/xKvGbau25BCwWi5BkQveRNPCYxfvPAczccZ16CVjkzIzsMVBYt8axX5uqGKobRjC50heZNbGyV7qpqb5pCGi7W9r/Sd6chGJezCNipp+GSgOJFQXJP8+2C9C1kaa5WwMW2uwy4Lt0VQApziQS50fFZ/pIHhm3ffp8HIdaGsUfj09Xj4iBlMf/m6/6H6f/arBT8LGXtvM87vdTXS5xS+QfADp8=);strokeColor=none;spacingTop=-3;spacingBottom=-3;spacingLeft=-3;spacingRight=-3;points=[];labelBackgroundColor=none;rounded=0;html=1;whiteSpace=wrap;" parent="CJAz3a5iVs_dnIX_Vtv_-160" vertex="1">
          <mxGeometry x="30" y="31" width="9" height="6" as="geometry" />
        </mxCell>
        <mxCell id="CJAz3a5iVs_dnIX_Vtv_-168" style="vsdxID=1180;fillColor=#32bedd;gradientColor=none;shape=stencil(lZFRCsIwEERPs78lZrAeoNZ7FJqaxZiUNFq9vQmLaAWl/s1s3izLhNBMthsNaTWlGE5m5j5Zwp60Zm9N5JQVoSU0Q4jmGMPF9+LHrpBFncO1bLhJbqNUyWh1Fy/uIKhj/wOt62q7+44v4Wd4BQpUwPoz/rh4gWbxKmVg56TT9/fPEvNIPgDtAw==);strokeColor=none;spacingTop=-3;spacingBottom=-3;spacingLeft=-3;spacingRight=-3;points=[];labelBackgroundColor=none;rounded=0;html=1;whiteSpace=wrap;" parent="CJAz3a5iVs_dnIX_Vtv_-160" vertex="1">
          <mxGeometry x="19" y="11" width="12" height="21" as="geometry" />
        </mxCell>
        <mxCell id="CJAz3a5iVs_dnIX_Vtv_-169" style="vsdxID=1181;fillColor=#9cebff;gradientColor=none;shape=stencil(UzV2Ls5ILEhVNTIoLinKz04tz0wpyVA1dlE1MsrMy0gtyiwBslSNXVWNndPyi1LTi/JL81Ig/IJEkEoQKze/DGRCBUSfoYEBSI+RQSWEbwrhukHU5mTmIak1NdAzMEFRDdONVTklBuNRTIqL8asFMhDBkpaZkwMJVWR59GAECkGiwNgVAA==);strokeColor=none;spacingTop=-3;spacingBottom=-3;spacingLeft=-3;spacingRight=-3;points=[];labelBackgroundColor=none;rounded=0;html=1;whiteSpace=wrap;" parent="CJAz3a5iVs_dnIX_Vtv_-160" vertex="1">
          <mxGeometry x="7" y="4" width="25" height="14" as="geometry" />
        </mxCell>
        <mxCell id="CJAz3a5iVs_dnIX_Vtv_-170" style="vsdxID=1182;fillColor=#50e6ff;gradientColor=none;shape=stencil(UzV2Ls5ILEhVNTIoLinKz04tz0wpyVA1dlE1MsrMy0gtyiwBslSNXVWNndPyi1LTi/JL81Ig/IJEkEoQKze/DGRCBUSfoYEBSI+RQSWEb2ysZ2oMFnGDKM/JzMOjHMbHqhhVqZmZnqk5sYrxmEqhizGUAxmIwEnLzMmBhC2yPHpgAoUgEWHsCgA=);strokeColor=none;spacingTop=-3;spacingBottom=-3;spacingLeft=-3;spacingRight=-3;points=[];labelBackgroundColor=none;rounded=0;html=1;whiteSpace=wrap;" parent="CJAz3a5iVs_dnIX_Vtv_-160" vertex="1">
          <mxGeometry x="7" y="11" width="12" height="21" as="geometry" />
        </mxCell>
        <mxCell id="CJAz3a5iVs_dnIX_Vtv_-171" style="vsdxID=1183;fillColor=#9cebff;gradientColor=none;shape=stencil(UzV2Ls5ILEhVNTIoLinKz04tz0wpyVA1dlE1MsrMy0gtyiwBslSNXVWNndPyi1LTi/JL81Ig/IJEkEoQKze/DGRCBUSfAUiHkUElhGdiqWdhBhZxgyjOycxDUmxogKrcgHilMD5WxSQ5goBiIAPh17TMnBxIUCHLo4cNUAgSrsauAA==);strokeColor=none;spacingTop=-3;spacingBottom=-3;spacingLeft=-3;spacingRight=-3;points=[];labelBackgroundColor=none;rounded=0;html=1;whiteSpace=wrap;" parent="CJAz3a5iVs_dnIX_Vtv_-160" vertex="1">
          <mxGeometry x="7" y="18" width="12" height="14" as="geometry" />
        </mxCell>
        <mxCell id="CJAz3a5iVs_dnIX_Vtv_-172" style="vsdxID=1184;fillColor=#50e6ff;gradientColor=none;shape=stencil(UzV2Ls5ILEhVNTIoLinKz04tz0wpyVA1dlE1MsrMy0gtyiwBslSNXVWNndPyi1LTi/JL81Ig/IJEkEoQKze/DGRCBUSfoYEBSI+RQSWEb2KpZ2EGFnGDKM/JzENSjqrYgFiFMFuwKiXRCQSVAxkI36Zl5uRAAgtZHj10gEKQkDV2BQA=);strokeColor=none;spacingTop=-3;spacingBottom=-3;spacingLeft=-3;spacingRight=-3;points=[];labelBackgroundColor=none;rounded=0;html=1;whiteSpace=wrap;" parent="CJAz3a5iVs_dnIX_Vtv_-160" vertex="1">
          <mxGeometry x="19" y="18" width="12" height="14" as="geometry" />
        </mxCell>
        <UserObject label="&lt;div style=&quot;font-size: 1px&quot;&gt;&lt;font style=&quot;font-size:22.58px;font-family:Themed;color:#000000;direction:ltr;letter-spacing:0px;line-height:120%;opacity:1&quot;&gt;&lt;span style=&quot;font-family: &amp;quot;Segoe UI Semibold&amp;quot;; font-size: 22px;&quot;&gt;Resource Group(s)&lt;/span&gt;&lt;br&gt;&lt;/font&gt;&lt;/div&gt;" tags="Background" id="JQd3RE6r9Z4yACwEhe57-2">
          <mxCell style="verticalAlign=middle;align=center;overflow=width;vsdxID=1171;rotation=90;fillColor=none;gradientColor=none;shape=stencil(nZBLDoAgDERP0z3SIyjew0SURgSD+Lu9kMZoXLhwN9O+tukAlrNpJg1SzDH4QW/URgNYgZTkjA4UkwJUgGXng+6DX1zLfmoymdXo17xh5zmRJ6Q42BWCfc2oJfdAr+Yv+AP9Cb7OJ3H/2JG1HNGz/84klThPVCc=);strokeColor=none;points=[];labelBackgroundColor=none;rounded=0;html=1;whiteSpace=wrap;" vertex="1" parent="1">
            <mxGeometry x="341" y="304" width="220" height="62" as="geometry" />
          </mxCell>
        </UserObject>
        <UserObject label="&lt;div style=&quot;font-size: 1px&quot;&gt;&lt;font style=&quot;font-size:22.58px;font-family:Themed;color:#000000;direction:ltr;letter-spacing:0px;line-height:120%;opacity:1&quot;&gt;&lt;span style=&quot;font-family: &amp;quot;Segoe UI Semibold&amp;quot;; font-size: 22px;&quot;&gt;Resource Group(s)&lt;/span&gt;&lt;br&gt;&lt;/font&gt;&lt;/div&gt;" tags="Background" id="JQd3RE6r9Z4yACwEhe57-3">
          <mxCell style="verticalAlign=middle;align=center;overflow=width;vsdxID=1171;rotation=90;fillColor=none;gradientColor=none;shape=stencil(nZBLDoAgDERP0z3SIyjew0SURgSD+Lu9kMZoXLhwN9O+tukAlrNpJg1SzDH4QW/URgNYgZTkjA4UkwJUgGXng+6DX1zLfmoymdXo17xh5zmRJ6Q42BWCfc2oJfdAr+Yv+AP9Cb7OJ3H/2JG1HNGz/84klThPVCc=);strokeColor=none;points=[];labelBackgroundColor=none;rounded=0;html=1;whiteSpace=wrap;" vertex="1" parent="1">
            <mxGeometry x="241" y="302" width="220" height="62" as="geometry" />
          </mxCell>
        </UserObject>
      </root>
    </mxGraphModel>
  </diagram>
</mxfile>
